<svg width="122" height="22" viewBox="0 0 122 22" fill="none" xmlns="http://www.w3.org/2000/svg">
<g clip-path="url(#clip0_0_487)">
<path d="M106.858 20.6645H104.928V3.42537L104.802 3.3885C102.596 9.25166 100.389 15.1179 98.149 21.0794L91.3885 5.52419H91.324V5.91445C91.324 10.7431 91.324 15.5696 91.324 20.3941C91.324 20.7014 91.2287 20.809 90.8938 20.7199V20.305C90.8938 15.3084 90.8722 10.3088 90.9122 5.31216C90.9024 4.53582 90.6675 3.77901 90.2362 3.13345C89.9288 2.64485 89.5724 2.19313 89.2068 1.6861C89.9197 1.6861 90.6265 1.71068 91.3271 1.6861C91.4834 1.6565 91.6452 1.68687 91.7801 1.77114C91.915 1.85542 92.0133 1.98743 92.0554 2.14089C93.0602 4.52856 94.0957 6.90086 95.1283 9.27624C95.9743 11.2225 96.8215 13.1686 97.6696 15.1148C98.026 15.9322 98.3703 16.7558 98.7206 17.5732C98.7797 17.6796 98.8455 17.7821 98.9173 17.8804C100.967 12.4476 102.995 7.07603 105.02 1.69839H106.864L106.858 20.6645Z" fill="black"/>
<path d="M62.678 11.3162C63.0068 11.814 63.3111 12.2749 63.6183 12.7298C64.4266 13.9313 65.2285 15.1328 66.0491 16.3251C66.7651 17.3668 67.4688 18.4208 68.2339 19.4257C68.6451 19.8919 69.0898 20.3273 69.5645 20.7286C68.2554 20.8116 66.931 20.8915 65.9907 19.7391C65.4191 19.0416 64.9459 18.2672 64.4541 17.5143C63.3878 15.9071 62.3338 14.2908 61.2768 12.6806C61.0985 12.4071 60.9111 12.1397 60.7544 11.854C60.7172 11.7728 60.6552 11.7055 60.5773 11.6619C60.4995 11.6182 60.4097 11.6005 60.321 11.6112C59.6204 11.6112 58.9229 11.6112 58.17 11.6112V20.661H56.2095V1.70406C56.3202 1.70406 56.4369 1.6887 56.5567 1.6887C57.9549 1.6887 59.3562 1.64261 60.7544 1.6887C62.2048 1.75016 63.6429 1.94375 64.9612 2.63823C65.553 2.91891 66.0648 3.34369 66.4499 3.87361C66.8348 4.40353 67.0806 5.02163 67.1645 5.67122C67.3091 6.42602 67.2488 7.20576 66.9899 7.92936C66.731 8.65297 66.283 9.29403 65.6926 9.78588C64.8629 10.4682 63.8984 10.9677 62.8624 11.2517C62.8133 11.2609 62.7795 11.2763 62.678 11.3162ZM58.1761 11.3439C59.5866 11.3132 60.9695 11.4576 62.3246 11.1134C63.5139 10.8061 64.3866 10.1362 64.7431 8.90702C65.1103 7.56006 65.1103 6.13933 64.7431 4.79237C64.6257 4.21015 64.349 3.67197 63.9437 3.23788C63.5383 2.8038 63.0204 2.49087 62.4476 2.33401C61.6292 2.10548 60.7795 2.01003 59.9309 2.05131C59.347 2.05131 58.7631 2.05131 58.1669 2.05131L58.1761 11.3439Z" fill="black"/>
<path d="M19.5513 11.178C19.5513 8.15729 19.5513 5.1366 19.5513 2.1159C19.5329 1.7748 19.6374 1.67647 19.9785 1.67647C21.5149 1.69491 23.0268 1.63652 24.5479 1.69491C26.3917 1.76558 28.1801 2.10053 29.8026 3.02241C30.7206 3.53275 31.5165 4.23696 32.1347 5.08605C32.753 5.93515 33.1788 6.90874 33.3826 7.93911C33.5252 8.66118 33.6279 9.39057 33.6899 10.124C33.8396 11.719 33.6361 13.3273 33.0938 14.8348C32.6274 16.2991 31.7712 17.6089 30.617 18.6237C29.4291 19.6432 27.9771 20.3058 26.4286 20.5351C25.0304 20.7717 23.623 20.6456 22.2186 20.6764C21.4811 20.6764 20.7437 20.661 20.0062 20.6764C19.6589 20.6764 19.5452 20.5935 19.5452 20.2278C19.5575 17.2194 19.5513 14.1986 19.5513 11.178ZM21.6256 2.10975V20.3138C21.7085 20.3138 21.7669 20.3292 21.8284 20.3292L25.7187 20.2555C26.5813 20.2359 27.4257 20.0037 28.177 19.5793C29.4021 18.8874 30.3248 17.7631 30.7645 16.4266C31.2074 15.14 31.447 13.7922 31.4743 12.4317C31.5481 10.6341 31.5573 8.83026 31.1271 7.05718C30.577 4.78628 29.2679 3.21294 27.0247 2.51538C26.236 2.29421 25.4246 2.16329 24.6063 2.12512C23.623 2.06059 22.6335 2.10975 21.6256 2.10975Z" fill="black"/>
<path d="M36.508 11.1685C36.4611 9.56776 36.7413 7.97422 37.3315 6.48542C37.703 5.52425 38.2408 4.63595 38.9202 3.86113C40.0159 2.58517 41.5322 1.74363 43.1946 1.48882C45.3948 1.14465 47.466 1.51648 49.2698 2.92696C50.9384 4.23295 51.8388 5.99989 52.3428 8.01266C52.6603 9.2752 52.7837 10.5787 52.7085 11.8785C52.6428 13.5955 52.2123 15.2789 51.4455 16.8166C50.3546 18.8786 48.7075 20.3075 46.4028 20.8114C44.0213 21.3215 41.7657 20.9251 39.8205 19.3795C38.4654 18.3039 37.6326 16.8535 37.1071 15.2218C36.6755 13.9153 36.4728 12.5441 36.508 11.1685ZM50.4375 11.1685H50.5451C50.4098 9.74273 50.3208 8.31073 50.1272 6.89411C50.0035 5.87327 49.654 4.89279 49.1039 4.024C48.5438 3.0531 47.6422 2.32566 46.5749 1.98357C45.7756 1.6998 44.9197 1.61233 44.0796 1.72851C43.5545 1.78878 43.034 1.88426 42.5216 2.01429C40.9852 2.53669 40.0633 3.69827 39.5102 5.17327C38.874 6.8511 38.7665 8.61803 38.7143 10.3788C38.6774 11.5465 38.7911 12.7173 38.8465 13.885C38.8946 14.9595 39.1017 16.021 39.461 17.0348C39.9496 18.4053 40.7363 19.5577 42.1221 20.1691C43.2863 20.6591 44.5699 20.7918 45.8097 20.5502C47.509 20.2706 48.6614 19.2964 49.402 17.8061C50.1426 16.3157 50.3239 14.6502 50.4344 12.9939C50.4713 12.3978 50.4375 11.7801 50.4375 11.1654V11.1685Z" fill="black"/>
<path d="M82.4756 1.67637V3.05918C79.7438 2.00825 76.9075 2.05741 74.0374 2.13731V10.72H76.2929C76.3881 10.72 76.4834 10.6862 76.5786 10.6801C77.8079 10.6309 79.0186 10.5848 80.2385 10.5295C80.6257 10.5111 81.0098 10.4465 81.397 10.4281C81.4615 10.4281 81.5845 10.5479 81.5937 10.6217C81.6151 10.889 81.5937 11.1564 81.5937 11.439L74.0251 11.1102V20.2246C77.0334 20.3444 80.0265 20.3537 82.8966 19.0753C82.875 19.4133 82.8658 19.6623 82.8413 19.9111C82.8167 20.1601 82.7737 20.3906 82.7306 20.6825H82.3619C79.0708 20.6825 75.7766 20.6825 72.4855 20.6825C72.1013 20.6825 72.0184 20.5657 72.0184 20.2C72.0307 14.1832 72.0307 8.16641 72.0184 2.1496C72.0184 1.78699 72.1013 1.66715 72.4855 1.67022C75.6782 1.68559 78.8742 1.67022 82.0669 1.67022L82.4756 1.67637Z" fill="black"/>
<path d="M111.133 1.7041H121.489V3.06234C118.803 2.02061 115.957 2.05135 113.106 2.14046V10.7447C115.583 10.7693 118.056 10.5757 120.598 10.4097V11.433L113.103 11.1073V20.2216C116.089 20.3629 119.049 20.32 121.931 19.0907C121.87 19.6562 121.818 20.1418 121.763 20.6549H111.133V1.7041Z" fill="black"/>
<path d="M17.2016 20.6827C16.5686 20.6827 15.954 20.6827 15.3579 20.6827C15.2995 20.6741 15.2438 20.6525 15.1948 20.6196C15.1459 20.5865 15.105 20.543 15.0752 20.4921C14.2763 18.6822 13.4895 16.8691 12.6998 15.0592C12.6114 14.9085 12.5393 14.7488 12.4847 14.5828C12.3495 13.8914 11.9132 13.7993 11.277 13.8085C8.92931 13.8515 6.58466 13.83 4.23694 13.8085C4.1272 13.7896 4.01435 13.8102 3.91823 13.8664C3.82212 13.9226 3.74891 14.0109 3.71147 14.1157C3.12147 15.5354 2.51609 16.9274 1.9138 18.3226C1.60651 19.0632 1.29921 19.8099 0.942752 20.5381C0.893585 20.6427 0.672333 20.6704 0.530979 20.7317L0.481812 20.655C0.696916 20.148 0.90895 19.6378 1.12712 19.1338C1.89536 17.3515 2.6636 15.5702 3.43183 13.79C4.04641 12.4103 4.661 11.0244 5.24793 9.65384C6.05714 7.79779 6.86327 5.94174 7.66633 4.08569C7.71776 3.96465 7.73408 3.83158 7.71342 3.7017C7.69277 3.57182 7.63599 3.45037 7.54956 3.35126L6.40643 1.71645C6.46853 1.69711 6.53232 1.68374 6.59695 1.67651C7.30987 1.67651 8.02279 1.66114 8.74801 1.67651C8.82465 1.68383 8.89851 1.70906 8.96364 1.75016C9.02875 1.79126 9.08331 1.84708 9.1229 1.91312C9.73749 3.27443 10.3275 4.64803 10.9205 6.01856C11.3631 7.04288 11.8036 8.06001 12.2419 9.06999C12.8565 10.504 13.4763 11.938 14.1011 13.3721C14.5958 14.5245 15.0967 15.6706 15.5976 16.8199C16.0984 17.9692 16.6331 19.2322 17.1556 20.4214C17.181 20.5064 17.1965 20.5941 17.2016 20.6827ZM11.9991 13.4582L8.00128 4.25777C6.65226 7.37065 5.34319 10.4036 4.00646 13.4582H11.9991Z" fill="black"/>
</g>
<defs>
<clipPath id="clip0_0_487">
<rect width="121.993" height="20.8281" fill="white" transform="translate(0.0032959 0.976562)"/>
</clipPath>
</defs>
</svg>
