<svg width="109" height="20" viewBox="0 0 109 20" fill="none" xmlns="http://www.w3.org/2000/svg">
<g clip-path="url(#clip0_0_463)">
<path d="M13.9648 19.2307H10.08C10.0377 18.6616 9.99571 18.101 9.95398 17.5401C9.92588 17.5221 9.8975 17.5041 9.86941 17.4859C9.85355 17.5298 9.84771 17.5818 9.82016 17.6169C8.93105 18.7558 7.74481 19.3294 6.31293 19.4422C4.86602 19.5564 3.55543 19.2014 2.4037 18.318C1.36324 17.5199 0.691947 16.4673 0.325283 15.2219C-0.104811 13.7618 -0.116217 12.294 0.337801 10.8392C0.903377 9.02691 2.09267 7.73709 3.81944 6.96419C5.94293 6.01383 8.10118 5.97623 10.2236 6.957C12.2001 7.87033 13.3638 9.44874 13.8056 11.5604C13.9211 12.1118 13.9659 12.6713 13.9653 13.235C13.9636 15.1141 13.9648 16.993 13.9648 18.8722V19.2304V19.2307ZM4.06314 12.969C4.07705 13.0918 4.0854 13.3234 4.13103 13.5473C4.3508 14.6279 4.94475 15.4201 6.00969 15.7875C7.09105 16.1604 8.09645 15.986 8.96526 15.2255C10.4706 13.9081 10.3437 11.4832 8.71822 10.3159C7.52893 9.46201 5.83805 9.62869 4.85072 10.7062C4.29294 11.3149 4.07733 12.053 4.06342 12.9688L4.06314 12.969Z" fill="black"/>
<path d="M61.138 19.1892H57.1506V18.8232C57.1506 16.7224 57.1548 14.6215 57.1462 12.5206C57.1448 12.1823 57.1225 11.8354 57.0463 11.507C56.7244 10.119 55.5151 9.43791 54.1372 9.8462C53.0269 10.1752 52.1706 11.2283 52.0772 12.3827C52.066 12.5204 52.0652 12.6588 52.0649 12.7971C52.0641 14.815 52.0644 16.8329 52.0644 18.8509V19.1677C51.8315 19.2334 48.3688 19.2456 48.0566 19.1867V6.49975H51.9189C51.9653 7.1137 52.0107 7.71548 52.0607 8.38112C52.1584 8.25701 52.2132 8.18707 52.2683 8.11741C53.26 6.85717 54.5573 6.23133 56.1705 6.24737C57.1095 6.25676 57.9894 6.46989 58.7873 6.96968C59.912 7.67402 60.5753 8.70925 60.9216 9.96258C61.0771 10.5248 61.1519 11.0992 61.1519 11.6828C61.1517 14.0877 61.152 16.4926 61.1514 18.8976C61.1514 18.9877 61.1433 19.0775 61.138 19.1895V19.1892Z" fill="black"/>
<path d="M104.249 14.2476H95.1171C95.1382 14.3753 95.1451 14.4734 95.1713 14.5663C95.3544 15.2176 95.7747 15.6765 96.3662 15.9861C97.0441 16.341 97.7719 16.4336 98.5252 16.3554C99.2385 16.2816 99.9009 16.0684 100.467 15.5916C101.485 16.0521 102.494 16.5085 103.528 16.9762C103.474 17.0553 103.439 17.1161 103.394 17.1689C102.862 17.7992 102.221 18.2995 101.471 18.6417C99.3451 19.612 97.1632 19.7253 94.9963 18.8457C92.7501 17.9341 91.471 16.2183 91.1756 13.8208C90.9463 11.9607 91.365 10.2441 92.5259 8.74779C93.6337 7.32004 95.1145 6.51424 96.9148 6.31162C98.434 6.14079 99.8957 6.36636 101.252 7.08424C103.026 8.02244 104.043 9.50936 104.376 11.4687C104.52 12.322 104.517 13.1734 104.319 14.0198C104.303 14.0895 104.277 14.1569 104.249 14.2473V14.2476ZM100.49 11.7017C100.497 11.6052 100.509 11.5414 100.506 11.4783C100.46 10.533 100.01 9.8571 99.1331 9.47645C98.5656 9.22988 97.9677 9.18676 97.3604 9.25781C96.1951 9.39436 95.3254 10.2275 95.144 11.3741C95.1276 11.4775 95.1315 11.5842 95.1254 11.7017H100.49Z" fill="black"/>
<path d="M45.8388 16.9854C45.6975 17.1474 45.594 17.2756 45.4805 17.3942C44.6047 18.3097 43.5272 18.8748 42.3018 19.1672C40.6668 19.5573 39.0377 19.5407 37.4645 18.9218C34.9855 17.9462 33.6415 16.103 33.4306 13.4637C33.3107 11.9607 33.6306 10.5446 34.4499 9.2675C35.5594 7.53816 37.1576 6.54937 39.206 6.31302C40.7842 6.13113 42.2987 6.37992 43.6905 7.16359C45.4195 8.13718 46.3891 9.63985 46.6817 11.5809C46.8005 12.3696 46.7944 13.1596 46.6269 13.9435C46.6155 13.9975 46.6024 14.0514 46.5877 14.1044C46.578 14.1395 46.564 14.1733 46.5385 14.2465H46.1952C43.3868 14.2465 40.5781 14.2465 37.7697 14.2471C37.6531 14.2471 37.5368 14.2556 37.3999 14.2612C37.477 14.8184 37.716 15.2511 38.1029 15.6043C38.5175 15.9825 39.0165 16.1981 39.5621 16.3034C40.3536 16.456 41.1342 16.3957 41.8839 16.1002C42.1819 15.9828 42.4551 15.8028 42.8064 15.6157C43.7556 16.0444 44.7716 16.5033 45.8382 16.9851L45.8388 16.9854ZM42.7694 11.6989C42.7778 11.6287 42.7892 11.5751 42.7897 11.5217C42.7992 10.6107 42.2979 9.85215 41.4405 9.48284C40.8732 9.23847 40.2771 9.18042 39.6711 9.25727C38.5183 9.4035 37.5566 10.1523 37.4036 11.595C37.4002 11.6271 37.4194 11.6613 37.4292 11.6992H42.7697L42.7694 11.6989Z" fill="black"/>
<path d="M84.5834 14.4295C85.5006 11.786 86.4181 9.14283 87.3361 6.49658H91.7021C89.9601 10.7506 88.2297 14.9766 86.4968 19.2084H82.5698C80.8385 14.981 79.1081 10.7553 77.3652 6.49907H81.731C82.6605 9.14422 83.591 11.7929 84.5216 14.442C84.5422 14.4378 84.5625 14.4337 84.5831 14.4295H84.5834Z" fill="black"/>
<path d="M70.5561 18.7888C70.0673 19.0243 69.5674 19.1573 69.058 19.2538C68.318 19.3939 67.5699 19.4456 66.8171 19.4263C64.633 19.3702 63.0197 17.844 62.857 15.6751C62.8364 15.3998 62.8255 15.1231 62.8247 14.8472C62.8147 10.904 62.8072 6.961 62.7988 3.01774C62.7988 2.93591 62.7988 2.85409 62.7988 2.77862C63.0225 2.71532 66.4819 2.70454 66.8082 2.76591C66.8416 3.98634 66.8082 5.2159 66.8622 6.47366H70.457V9.7264C70.1571 9.75819 69.8631 9.73829 69.5707 9.7416C69.2742 9.7452 68.9773 9.74243 68.6808 9.74243H67.7908C67.4954 9.74243 67.1996 9.74243 66.8789 9.74243C66.868 9.8378 66.8516 9.91603 66.8516 9.99426C66.8502 11.4408 66.8463 12.8873 66.8552 14.3336C66.8566 14.5608 66.8897 14.7958 66.9554 15.0131C67.1476 15.6483 67.6503 16.0143 68.3172 16.0411C69.0026 16.069 69.6653 15.9629 70.304 15.7127C70.3714 15.6862 70.4406 15.6649 70.5555 15.6248C70.5569 16.6982 70.5566 17.7414 70.5555 18.7886L70.5561 18.7888Z" fill="black"/>
<path d="M24.9238 2.73905H28.9318C28.9491 3.97801 28.966 5.20618 28.9836 6.46504H32.5464C32.609 6.6931 32.6293 9.22795 32.5773 9.72027C32.293 9.76616 31.9989 9.73603 31.7071 9.74101C31.4014 9.74626 31.0954 9.74211 30.7893 9.74211H29.8994C29.6045 9.74211 29.3093 9.74211 28.9894 9.74211C28.9808 9.85351 28.9677 9.94169 28.9677 10.0296C28.9663 11.43 28.9627 12.8306 28.9708 14.231C28.9722 14.4773 28.9961 14.7311 29.0601 14.968C29.2398 15.6311 29.7533 16.0143 30.4438 16.0411C31.1293 16.0676 31.792 15.9615 32.431 15.7121C32.4827 15.6919 32.5348 15.6723 32.5876 15.656C32.6037 15.651 32.6238 15.6574 32.6613 15.6599V18.7949C32.5734 18.8347 32.4766 18.8847 32.3751 18.9231C31.5077 19.2515 30.6021 19.3795 29.6813 19.4204C29.106 19.4461 28.5301 19.4442 27.969 19.2922C26.314 18.8443 25.36 17.7538 25.0398 16.0991C24.9859 15.8208 24.9692 15.5319 24.9658 15.2474C24.9511 14.0408 24.9439 12.8339 24.9408 11.6271C24.9333 8.78926 24.9294 5.95144 24.9244 3.11361C24.9244 2.99641 24.9244 2.8792 24.9244 2.73877L24.9238 2.73905Z" fill="black"/>
<path d="M19.6608 9.74246C19.6546 9.85856 19.6482 9.92242 19.6482 9.98627C19.6477 11.4325 19.643 12.8788 19.653 14.3251C19.6546 14.5609 19.6936 14.8044 19.7637 15.0297C19.9573 15.6542 20.4503 16.0102 21.1079 16.0403C21.8032 16.0721 22.4742 15.9635 23.1218 15.71C23.1889 15.6837 23.2581 15.6636 23.3508 15.6326V18.7911C23.2584 18.8325 23.1533 18.8867 23.0434 18.9279C22.1757 19.2546 21.2701 19.381 20.3493 19.4208C19.7832 19.4454 19.2173 19.4429 18.6645 19.2961C17.0693 18.8718 16.1135 17.8391 15.7468 16.2504C15.6297 15.7429 15.6361 15.2265 15.635 14.7107C15.6313 12.9512 15.6286 11.1918 15.6255 9.43231C15.623 7.99543 15.6213 6.55827 15.6172 5.12139C15.6152 4.43059 15.6083 3.7398 15.6055 3.049C15.6052 2.95032 15.6155 2.85135 15.6216 2.74023H19.6168C19.6599 3.98029 19.6277 5.20957 19.663 6.46871H23.2481V9.73361C22.9566 9.73638 22.6642 9.73997 22.3715 9.74135C22.0658 9.74274 21.7598 9.74163 21.454 9.74163H20.5641C20.27 9.74163 19.9757 9.74163 19.6602 9.74163L19.6608 9.74246Z" fill="black"/>
<path d="M72.2734 6.50342C73.6235 7.28019 74.9436 7.28295 76.2583 6.52029C76.3207 6.76299 76.3287 18.9118 76.2706 19.2031H72.2734V6.50342Z" fill="black"/>
<path d="M74.24 5.49818C73.9599 5.44289 73.6719 5.41303 73.4012 5.32818C72.38 5.00807 71.7282 4.08479 71.7891 3.07445C71.8539 1.99498 72.5697 1.17869 73.6475 0.957549C74.1454 0.855271 74.6406 0.868263 75.13 1.01007C76.0853 1.28705 76.7201 2.0616 76.7719 3.01086C76.827 4.02121 76.2862 4.88257 75.357 5.2646C75.0012 5.41083 74.6287 5.4686 74.2397 5.49818H74.24Z" fill="black"/>
<path d="M108.998 6.72886C109.034 7.98468 108.081 8.85736 106.675 8.73573C106.358 8.70837 106.054 8.62572 105.778 8.46235C105.227 8.13616 104.942 7.63942 104.875 7.01828C104.851 6.80045 104.849 6.57295 104.886 6.35761C105.024 5.54021 105.504 5.01997 106.315 4.81182C106.735 4.70401 107.158 4.70125 107.579 4.8085C108.419 5.02191 108.94 5.64691 108.998 6.50799C109.003 6.58124 108.998 6.65505 108.998 6.72886ZM106.906 8.38495C107.87 8.40402 108.575 7.74529 108.582 6.78359C108.59 5.60103 107.788 5.10428 107.033 5.0971C106.015 5.0877 105.339 5.71823 105.318 6.71282C105.298 7.70189 105.928 8.36532 106.906 8.38467V8.38495Z" fill="black"/>
<path d="M107.437 7.78101C107.302 7.56899 107.159 7.34453 107.006 7.1057H106.714V7.78018H106.176C106.138 7.10266 106.157 6.4196 106.148 5.70309C106.562 5.6995 106.947 5.63676 107.33 5.70504C107.859 5.7993 108.07 6.39831 107.731 6.81932C107.679 6.88317 107.617 6.93873 107.548 7.0106C107.629 7.13472 107.709 7.25663 107.788 7.37826C107.868 7.50044 107.948 7.62262 108.052 7.78129H107.437V7.78101ZM106.695 6.11995C106.694 6.13515 106.694 6.63273 106.694 6.64434C106.824 6.6377 106.995 6.64627 107.118 6.62084C107.258 6.59181 107.339 6.46024 107.325 6.33392C107.311 6.21671 107.222 6.13432 107.073 6.12188C106.956 6.11221 106.838 6.11995 106.696 6.11995H106.695Z" fill="black"/>
</g>
<defs>
<clipPath id="clip0_0_463">
<rect width="109" height="19" fill="white" transform="translate(0 0.890625)"/>
</clipPath>
</defs>
</svg>
