<svg width="46" height="46" viewBox="0 0 46 46" fill="none" xmlns="http://www.w3.org/2000/svg">
<path d="M14.8851 23.1761C14.8851 25.6388 15.9545 27.7928 17.7154 29.3485C18.6655 30.3464 18.6634 31.8737 17.7093 32.8694C16.6169 33.879 14.9265 33.8752 13.8386 32.8579C11.1733 30.3653 9.52966 26.9438 9.52966 23.1761C9.52966 19.4093 11.1728 15.9855 13.7424 13.4903C14.8346 12.4732 16.5305 12.4746 17.621 13.4944C18.6859 14.4903 18.6865 16.0005 17.6229 16.997C15.9311 18.5547 14.8851 20.7117 14.8851 23.1761Z" stroke="black" stroke-width="1.38757"/>
<path d="M23.4052 14.6599C20.9723 14.6599 18.793 15.7001 17.2327 17.4668C16.2349 18.4173 14.7059 18.4164 13.7097 17.4832C12.7022 16.3899 12.7069 14.6998 13.7236 13.6119C16.2162 10.9449 19.6377 9.30029 23.4052 9.30029C27.1719 9.30029 30.5957 10.9444 33.0909 13.5157C34.1081 14.6087 34.1068 16.3062 33.0867 17.3976C32.0909 18.463 30.5809 18.4636 29.5845 17.3994C28.026 15.7057 25.8451 14.6599 23.4052 14.6599Z" stroke="black" stroke-width="1.38757"/>
<path d="M23.4055 31.6925C25.8384 31.6925 28.0177 30.6524 29.5779 28.8856C30.5758 27.9351 32.1048 27.936 33.101 28.8692C34.1084 29.9626 34.1038 31.6526 33.087 32.7405C30.5944 35.4075 27.173 37.0521 23.4055 37.0521C19.6388 37.0521 16.215 35.408 13.7198 32.8367C12.7025 31.7437 12.7039 30.0462 13.7239 28.9549C14.7197 27.8894 16.2297 27.8888 17.2261 28.953C18.7846 30.6467 20.9655 31.6925 23.4055 31.6925Z" stroke="black" stroke-width="1.38757"/>
</svg>
