<svg width="1239" height="56" viewBox="0 0 1239 56" fill="none" xmlns="http://www.w3.org/2000/svg">
<g clip-path="url(#clip0_0_31)">
<path d="M40.336 23.4238C40.336 28.5027 40.336 33.5435 40.336 38.6244C41.5802 38.6244 42.7878 38.6244 44.0456 38.6244C44.0553 38.4042 44.0727 38.2186 44.0727 38.0349C44.0746 35.3959 44.0553 32.7569 44.0881 30.1198C44.0958 29.5457 44.2057 28.9467 44.3968 28.4032C44.9369 26.8627 46.3683 25.9039 47.8538 26.0092C49.3797 26.1163 50.1977 26.8359 50.5642 28.4396C50.6587 28.8529 50.7089 29.2873 50.7108 29.7122C50.7262 32.4775 50.7204 35.2447 50.7262 38.0101C50.7262 38.2091 50.7551 38.41 50.7706 38.6167C52.0303 38.6167 53.2379 38.6167 54.4976 38.6167C54.4976 38.4119 54.4976 38.2569 54.4976 38.1019C54.4976 35.0974 54.5092 32.0928 54.4861 29.0883C54.4822 28.476 54.405 27.8501 54.2623 27.2531C53.7009 24.9068 52.2676 23.3835 49.806 23.0391C47.6338 22.7348 45.3941 23.4372 44.144 25.6322C44.1054 25.7011 44.0244 25.7451 43.8527 25.902C43.8527 24.9911 43.8527 24.2103 43.8527 23.4257C42.6393 23.4238 41.5069 23.4238 40.336 23.4238ZM71.991 23.418C71.9678 23.5577 71.9428 23.6343 71.9428 23.7108C71.9697 27.1095 71.9543 30.5102 72.045 33.909C72.1106 36.3547 73.758 38.343 76.0074 38.9075C78.596 39.5563 80.9381 38.6492 82.289 36.4791C82.3386 36.3968 82.42 36.3317 82.6261 36.1059C82.6261 37.0628 82.6261 37.8378 82.6261 38.6224C83.8476 38.6224 84.9605 38.6224 86.099 38.6224C86.099 33.5396 86.099 28.497 86.099 23.439C84.866 23.439 83.6755 23.439 82.4316 23.439C82.4316 23.6935 82.4316 23.8984 82.4316 24.1012C82.4316 26.5814 82.4394 29.0596 82.4277 31.5398C82.4215 32.6516 82.2286 33.7271 81.538 34.6476C80.6258 35.8629 79.3757 36.257 77.9194 35.947C76.6768 35.683 76.1193 34.7529 75.8917 33.6027C75.7971 33.1243 75.7277 32.6306 75.7257 32.1426C75.7103 29.4251 75.7181 26.7057 75.7161 23.9883C75.7161 23.8065 75.6891 23.6228 75.6736 23.4199C74.4236 23.418 73.2275 23.418 71.991 23.418ZM105.051 38.6244C105.051 34.6266 105.051 30.6671 105.051 26.6292C106.532 26.6292 107.934 26.6292 109.341 26.6292C109.341 25.5116 109.341 24.4763 109.341 23.4276C105.191 23.4276 101.088 23.4276 96.9671 23.4276C96.9671 24.5088 96.9671 25.5461 96.9671 26.6617C98.4126 26.6617 99.813 26.6617 101.279 26.6617C101.279 30.6901 101.279 34.6381 101.279 38.6224C102.552 38.6244 103.759 38.6244 105.051 38.6244ZM69.0529 23.4218C64.8841 23.4218 60.7828 23.4218 56.6544 23.4218C56.6544 24.5069 56.6544 25.5537 56.6544 26.6483C57.9083 26.6483 59.1121 26.6751 60.3139 26.6368C60.8676 26.6177 61.0277 26.7881 61.0258 27.3334C61.0046 30.8758 61.0143 34.418 61.0181 37.9622C61.0181 38.1765 61.0432 38.3928 61.0586 38.6129C62.3029 38.6129 63.4932 38.6129 64.7529 38.6129C64.7529 34.6151 64.7529 30.6691 64.7529 26.6407C66.2248 26.6407 67.6253 26.6407 69.0548 26.6407C69.0529 25.5288 69.0529 24.5031 69.0529 23.4218ZM36.1285 38.6244C36.1285 33.5453 36.1285 28.5047 36.1285 23.4257C34.8823 23.4257 33.6746 23.4257 32.4284 23.4257C32.4284 28.5047 32.4284 33.5453 32.4284 38.6244C33.6746 38.6244 34.8823 38.6244 36.1285 38.6244ZM94.0081 38.6244C94.0081 33.5453 94.0081 28.5027 94.0081 23.4257C92.7619 23.4257 91.5544 23.4257 90.3097 23.4257C90.3097 28.5066 90.3097 33.5473 90.3097 38.6244C91.5559 38.6244 92.7634 38.6244 94.0081 38.6244ZM103.194 21.2173C104.487 21.2115 105.446 20.2662 105.447 18.9916C105.45 17.7324 104.402 16.7028 103.15 16.7335C101.913 16.7641 100.947 17.7535 100.945 18.9897C100.945 20.268 101.909 21.223 103.194 21.2173ZM65.1175 18.9954C65.1213 17.7477 64.1317 16.7507 62.8797 16.7411C61.6856 16.7315 60.6515 17.7611 60.6477 18.9629C60.6439 20.2528 61.6123 21.2134 62.9202 21.2173C64.1606 21.2191 65.1137 20.2546 65.1175 18.9954Z" fill="black"/>
<path d="M40.3342 23.4238C41.5051 23.4238 42.6375 23.4238 43.8509 23.4238C43.8509 24.2085 43.8509 24.9912 43.8509 25.9002C44.0227 25.7432 44.1036 25.6973 44.1422 25.6303C45.3904 23.4353 47.632 22.731 49.8042 23.0372C52.2639 23.3817 53.6991 24.905 54.2605 27.2513C54.4032 27.8484 54.4785 28.4722 54.4843 29.0865C54.5075 32.091 54.4939 35.0955 54.4958 38.1C54.4958 38.255 54.4958 38.412 54.4958 38.6149C53.2361 38.6149 52.0285 38.6149 50.7688 38.6149C50.7533 38.4062 50.7264 38.2072 50.7244 38.0082C50.7186 35.2429 50.7244 32.4757 50.709 29.7103C50.7071 29.2855 50.6569 28.853 50.5624 28.4378C50.1959 26.8341 49.3779 26.1145 47.852 26.0074C46.3666 25.904 44.9351 26.8628 44.395 28.4014C44.2039 28.9449 44.094 29.5439 44.0863 30.118C44.0535 32.757 44.0728 35.396 44.0709 38.0331C44.0709 38.2187 44.0535 38.4025 44.0438 38.6225C42.788 38.6225 41.5784 38.6225 40.3342 38.6225C40.3342 33.5435 40.3342 28.5028 40.3342 23.4238Z" fill="black"/>
<path d="M71.9912 23.4181C73.2278 23.4181 74.4238 23.4181 75.674 23.4181C75.6894 23.6209 75.7163 23.8027 75.7163 23.9864C75.7183 26.7039 75.7106 29.4233 75.726 32.1407C75.728 32.6288 75.7974 33.1206 75.8919 33.6009C76.1196 34.7511 76.6771 35.6811 77.9196 35.9452C79.3758 36.2552 80.626 35.861 81.5382 34.6458C82.2295 33.7253 82.4217 32.6498 82.4279 31.5379C82.4411 29.0578 82.4318 26.5795 82.4318 24.0993C82.4318 23.8965 82.4318 23.6918 82.4318 23.4372C83.6757 23.4372 84.8661 23.4372 86.0992 23.4372C86.0992 28.4951 86.0992 33.5359 86.0992 38.6205C84.9607 38.6205 83.8477 38.6205 82.6263 38.6205C82.6263 37.8378 82.6263 37.0609 82.6263 36.104C82.4201 36.3299 82.3411 36.3949 82.2892 36.4772C80.9383 38.6493 78.5962 39.5564 76.0077 38.9057C73.7583 38.3411 72.1089 36.3528 72.0452 33.9071C71.9545 30.5084 71.97 27.1077 71.943 23.709C71.943 23.6343 71.9681 23.5577 71.9912 23.4181Z" fill="black"/>
<path d="M105.05 38.6243C103.759 38.6243 102.551 38.6243 101.278 38.6243C101.278 34.64 101.278 30.6919 101.278 26.6636C99.8123 26.6636 98.4095 26.6636 96.9664 26.6636C96.9664 25.546 96.9664 24.5107 96.9664 23.4294C101.087 23.4294 105.19 23.4294 109.34 23.4294C109.34 24.4763 109.34 25.5135 109.34 26.6311C107.935 26.6311 106.533 26.6311 105.05 26.6311C105.05 30.6671 105.05 34.6266 105.05 38.6243Z" fill="black"/>
<path d="M69.0544 23.4219C69.0544 24.5031 69.0544 25.5289 69.0544 26.6369C67.6248 26.6369 66.2224 26.6369 64.7524 26.6369C64.7524 30.6652 64.7524 34.6113 64.7524 38.6091C63.4926 38.6091 62.3043 38.6091 61.0581 38.6091C61.0446 38.389 61.0176 38.1747 61.0176 37.9584C61.0157 34.4161 61.0061 30.8719 61.0254 27.3297C61.0292 26.7862 60.8671 26.6159 60.3135 26.6331C59.1116 26.6733 57.9098 26.6446 56.6539 26.6446C56.6539 25.5499 56.6539 24.5031 56.6539 23.4181C60.7842 23.4219 64.8875 23.4219 69.0544 23.4219Z" fill="black"/>
<path d="M36.1285 38.6244C34.8823 38.6244 33.6746 38.6244 32.4284 38.6244C32.4284 33.5454 32.4284 28.5047 32.4284 23.4257C33.6746 23.4257 34.8823 23.4257 36.1285 23.4257C36.1285 28.5047 36.1285 33.5454 36.1285 38.6244Z" fill="black"/>
<path d="M94.0085 38.6244C92.7638 38.6244 91.5564 38.6244 90.3101 38.6244C90.3101 33.5473 90.3101 28.5066 90.3101 23.4257C91.5548 23.4257 92.7623 23.4257 94.0085 23.4257C94.0085 28.5028 94.0085 33.5435 94.0085 38.6244Z" fill="black"/>
<path d="M103.193 21.2173C101.911 21.223 100.946 20.2681 100.946 18.9917C100.946 17.7554 101.912 16.7641 103.151 16.7354C104.403 16.7048 105.45 17.7325 105.449 18.9917C105.442 20.2662 104.486 21.2115 103.193 21.2173Z" fill="black"/>
<path d="M65.1172 18.9955C65.1134 20.2547 64.1584 21.2192 62.9219 21.2174C61.6159 21.2154 60.6455 20.2529 60.6494 18.963C60.6532 17.7612 61.6873 16.7316 62.8814 16.7412C64.1334 16.7508 65.123 17.7478 65.1172 18.9955Z" fill="black"/>
<path d="M196.61 35.2624C196.963 34.4567 197.365 33.7015 197.718 32.9462C197.97 32.3924 198.221 31.8385 198.523 31.2847C198.675 30.9826 198.775 30.6804 198.725 30.328C198.725 30.1769 198.775 30.1266 198.926 30.1266C199.732 30.1266 200.538 30.1266 201.343 30.1266C201.494 30.1266 201.545 30.1769 201.545 30.328C201.545 30.8315 201.545 30.8315 201.041 30.8315C200.538 30.8315 200.538 30.8315 200.538 31.335C200.538 33.1477 200.538 34.9603 200.538 36.7729C200.538 36.9743 200.588 37.0247 200.739 36.9743C200.94 36.9743 201.192 36.9743 201.394 36.9743C201.494 36.9743 201.545 37.0247 201.545 37.1254C201.545 37.6792 201.595 37.6792 200.991 37.6792C200.034 37.6792 199.128 37.6792 198.171 37.6792C198.02 37.6792 197.919 37.6792 197.919 37.4779C197.919 36.9743 197.919 36.9743 198.423 36.9743C198.977 36.9743 198.977 36.9743 198.977 36.4204C198.977 35.1113 198.977 33.8022 198.977 32.4931C198.977 32.3924 198.977 32.342 198.977 32.2413H198.926C198.775 32.5937 198.624 32.8958 198.423 33.2483C197.768 34.6582 197.114 36.068 196.409 37.4779C196.358 37.5785 196.358 37.6792 196.207 37.6792C196.056 37.6792 196.006 37.5785 195.956 37.4779C195.2 35.8666 194.445 34.2554 193.639 32.6945C193.589 32.6441 193.589 32.5434 193.539 32.4931C193.438 32.5434 193.488 32.5937 193.488 32.6441C193.488 34.0036 193.488 35.4134 193.488 36.7729C193.488 36.9743 193.539 37.0247 193.69 36.9743C193.891 36.9743 194.093 36.9743 194.244 36.9743C194.294 36.9743 194.344 36.9743 194.344 36.9743C194.596 37.075 194.395 37.2764 194.445 37.4779C194.445 37.5282 194.495 37.6792 194.344 37.6792C193.438 37.6792 192.582 37.6792 191.676 37.6792C191.424 37.6792 191.625 37.3771 191.575 37.2261C191.575 37.1758 191.474 36.9743 191.676 36.9743C191.877 36.9743 192.129 36.9743 192.33 36.9743C192.532 36.9743 192.532 36.924 192.532 36.7729C192.532 35.1617 192.532 33.5001 192.532 31.8889C192.532 31.5868 192.532 31.335 192.532 31.0329C192.532 30.8819 192.481 30.8315 192.33 30.8315C192.079 30.8315 191.877 30.8315 191.625 30.8315C191.575 30.8315 191.474 30.8819 191.474 30.7811C191.474 30.5798 191.474 30.3783 191.474 30.1769C191.474 30.0762 191.575 30.1266 191.625 30.1266C192.431 30.1266 193.287 30.1266 194.093 30.1266C194.193 30.1266 194.244 30.1769 194.244 30.2777C194.193 30.7308 194.344 31.1336 194.546 31.4861C195.15 32.6945 195.704 33.9029 196.308 35.1113C196.56 35.1617 196.61 35.212 196.61 35.2624Z" fill="black"/>
<path d="M184.025 23.581C184.025 23.732 184.025 23.8831 184.025 24.0341C184.076 24.5377 184.478 24.8902 184.982 24.9405C185.536 25.0412 186.09 24.7894 186.341 24.2859C186.744 23.4803 186.442 22.5236 185.737 22.0201C185.183 21.6677 184.529 21.5669 183.874 21.6677C182.464 21.869 181.155 22.6747 180.4 23.8831C179.544 25.1419 178.889 26.5517 178.587 28.0622C178.184 29.7742 177.983 31.4861 177.983 33.2484C177.983 33.3491 177.983 33.5001 177.933 33.6009C177.832 33.3491 177.782 33.047 177.731 32.7952C177.48 31.4861 177.379 30.177 177.429 28.8679C177.429 26.9041 177.983 24.9908 178.99 23.3293C179.947 21.718 181.508 20.6102 183.32 20.2075C184.529 19.9557 185.737 20.1068 186.744 20.6606C188.204 21.5166 188.658 23.3796 187.801 24.7894C187.751 24.8398 187.701 24.8902 187.701 24.9908C186.996 25.9475 185.737 26.2999 184.629 25.8971C183.874 25.6454 183.471 24.8902 183.622 24.0845C183.673 23.8831 183.824 23.6817 184.025 23.581Z" fill="black"/>
<path d="M169.724 24.6385C169.724 25.0917 169.472 25.4945 169.07 25.6959C168.063 26.3001 166.753 26.0484 166.099 25.0413C165.142 23.7322 165.495 21.8692 166.804 20.9125C167.056 20.7615 167.358 20.6608 167.609 20.5601C168.868 20.107 170.228 20.1573 171.436 20.7615C172.896 21.4664 174.054 22.5741 174.86 23.9336C175.867 25.5448 176.471 27.4078 176.622 29.3211C176.673 30.731 176.522 32.1408 176.119 33.4499C176.119 33.5003 176.119 33.601 176.018 33.6513C176.018 33.3996 176.068 33.1478 176.068 32.9465C176.27 29.8247 175.313 26.7029 173.349 24.2357C172.594 23.2287 171.537 22.4734 170.328 22.0706C169.724 21.8692 169.07 21.8692 168.465 22.0706C167.609 22.3224 167.156 23.2287 167.408 24.0847C167.458 24.2357 167.509 24.3868 167.609 24.5379C168.063 25.1924 168.919 25.3434 169.523 24.8903C169.573 24.84 169.623 24.7896 169.674 24.7896C169.674 24.6889 169.674 24.6889 169.724 24.6385Z" fill="black"/>
<path d="M198.374 25.1418V24.89C198.374 23.5305 198.374 22.171 198.374 20.8116C198.374 20.6101 198.324 20.5095 198.122 20.5095C197.921 20.5095 197.669 20.5095 197.468 20.5095C197.417 20.5095 197.317 20.5095 197.317 20.4088C197.317 20.2074 197.317 20.0563 197.317 19.8549C197.317 19.7542 197.417 19.7542 197.468 19.7542C198.374 19.7542 199.28 19.7038 200.187 19.7542C200.489 19.7542 200.287 20.1067 200.338 20.2577C200.388 20.3584 200.338 20.4591 200.187 20.4591C199.935 20.4591 199.733 20.4591 199.482 20.4591C199.331 20.4591 199.28 20.5095 199.331 20.6101C199.331 20.6605 199.331 20.7109 199.331 20.7612C199.331 22.8256 199.331 24.9403 199.331 27.0048C199.331 27.2061 199.28 27.2565 199.079 27.2565C198.726 27.3069 198.374 27.1558 198.122 26.8537C196.712 25.2928 195.252 23.7823 193.842 22.2214C193.792 22.171 193.742 22.1207 193.691 22.0704C193.591 22.1207 193.641 22.2214 193.641 22.2718C193.641 23.6313 193.641 24.9907 193.641 26.3502C193.641 26.5012 193.691 26.6019 193.842 26.5516C194.044 26.5516 194.295 26.5516 194.497 26.5516C194.648 26.5516 194.698 26.6019 194.698 26.753C194.698 27.2565 194.698 27.2565 194.195 27.2565C193.439 27.2565 192.735 27.2565 191.979 27.2565C191.828 27.2565 191.778 27.2061 191.778 27.0551C191.778 26.5516 191.778 26.5516 192.281 26.5516C192.785 26.5516 192.785 26.5516 192.785 26.0481C192.785 24.2858 192.785 22.4731 192.785 20.7109C192.785 20.4591 192.735 20.4088 192.483 20.4591C192.382 20.4591 192.281 20.4591 192.181 20.4591C192.03 20.4591 191.828 20.5095 191.778 20.4088C191.728 20.2074 191.728 20.0059 191.728 19.8046C191.728 19.7038 191.778 19.7542 191.828 19.7542C192.533 19.7542 193.238 19.7542 193.993 19.7542C194.094 19.7542 194.144 19.8046 194.144 19.9053C194.094 20.308 194.245 20.7109 194.598 20.9626C195.806 22.2718 197.014 23.5809 198.223 24.89C198.223 24.9907 198.273 25.041 198.374 25.1418Z" fill="black"/>
<path d="M218.766 22.5742C219.018 22.3728 219.32 22.2218 219.622 22.0707C220.025 21.8189 220.528 21.7685 220.981 21.8189C221.737 21.97 222.24 22.6749 222.139 23.4302C222.139 24.4875 222.139 25.4945 222.139 26.5519C222.139 26.7533 222.19 26.8037 222.391 26.8037C222.542 26.8037 222.744 26.8037 222.895 26.8037C223.046 26.8037 223.097 26.854 223.097 27.005C223.097 27.4079 223.097 27.4079 222.694 27.4079C221.838 27.4079 220.981 27.4079 220.126 27.4079C219.924 27.4079 219.874 27.3575 219.924 27.2065C219.924 27.1561 219.924 27.0554 219.924 27.005C219.924 26.9044 219.924 26.854 220.075 26.854C220.226 26.854 220.377 26.854 220.528 26.854C220.68 26.854 220.68 26.8037 220.68 26.7029C220.68 25.696 220.68 24.6889 220.68 23.6819C220.73 23.2288 220.428 22.8763 219.975 22.826C219.824 22.826 219.673 22.826 219.572 22.8763C219.521 22.8763 219.521 22.8763 219.471 22.8763C218.766 23.0777 218.766 23.1281 218.766 23.8833C218.766 24.7896 218.766 25.696 218.766 26.6023C218.766 26.8037 218.817 26.9044 219.018 26.854C219.068 26.854 219.119 26.854 219.119 26.854C219.521 26.854 219.521 26.854 219.521 27.2569C219.521 27.3575 219.471 27.4079 219.37 27.4079C218.414 27.4079 217.407 27.4079 216.45 27.4079C216.349 27.4079 216.299 27.3575 216.299 27.2569C216.299 26.8037 216.249 26.8037 216.702 26.8037C217.256 26.8037 217.256 26.8037 217.256 26.2498C217.256 24.1351 217.256 22.0203 217.256 19.9056C217.256 19.7042 217.205 19.6538 217.004 19.6538C216.903 19.6538 216.802 19.6538 216.702 19.6538C216.299 19.6538 216.299 19.6538 216.299 19.251C216.299 19.1 216.349 19.1 216.45 19.1C217.155 19.1 217.81 19.1 218.514 19.1C218.665 19.1 218.716 19.1504 218.716 19.3014C218.716 20.3084 218.716 21.3154 218.716 22.3224L218.766 22.5742Z" fill="black"/>
<path d="M227.327 23.7322C226.873 24.9406 226.421 26.0986 225.967 27.307C225.917 27.4078 225.917 27.5085 225.766 27.5085C225.615 27.5085 225.615 27.4078 225.564 27.307C224.86 25.7965 224.154 24.286 223.5 22.7755C223.399 22.5741 223.299 22.4734 223.097 22.5238C222.644 22.5238 222.644 22.5238 222.694 22.0705C222.694 21.9698 222.745 21.9698 222.845 21.9698C223.751 21.9698 224.658 21.9698 225.564 21.9698C225.665 21.9698 225.715 22.0202 225.715 22.1209C225.766 22.5741 225.766 22.5741 225.312 22.5741C225.011 22.5741 225.011 22.5741 225.112 22.8762C225.413 23.5811 225.766 24.286 226.068 25.0413C226.118 25.0916 226.118 25.1923 226.169 25.293C226.471 24.4371 226.772 23.5811 227.125 22.7251C227.175 22.5741 227.125 22.5741 227.024 22.5741C226.924 22.5741 226.873 22.5741 226.772 22.5741C226.672 22.5741 226.471 22.6244 226.421 22.5238C226.32 22.3727 226.421 22.2217 226.37 22.0705C226.37 21.9698 226.421 22.0202 226.471 22.0202C227.327 22.0202 228.133 22.0202 228.988 22.0202C229.089 22.0202 229.089 22.0202 229.139 22.1209C229.19 22.5741 229.19 22.5741 228.736 22.5741C228.636 22.5741 228.585 22.5741 228.484 22.5741L229.693 25.2427C229.844 24.7895 229.995 24.4371 230.146 24.0846C230.297 23.6314 230.448 23.2286 230.65 22.7755C230.7 22.5741 230.65 22.5741 230.499 22.5741C230.398 22.5741 230.348 22.5741 230.247 22.5741C229.894 22.5741 229.945 22.5741 229.894 22.272C229.894 22.0705 229.945 22.0202 230.146 22.0202C230.751 22.0202 231.305 22.0202 231.908 22.0202C232.06 22.0202 232.11 22.0705 232.11 22.2217C232.11 22.6244 232.11 22.6244 231.707 22.6244C231.405 22.6244 231.305 22.7251 231.204 22.9769C230.65 24.4371 230.096 25.8973 229.542 27.3574C229.492 27.4581 229.492 27.5588 229.341 27.5588C229.19 27.5588 229.139 27.4581 229.089 27.3574C228.585 26.1994 228.032 25.0916 227.528 23.9335C227.427 23.8328 227.427 23.7322 227.327 23.7322Z" fill="black"/>
<path d="M259.601 22.6245C259.953 22.3728 260.306 22.1713 260.659 22.0203C261.011 21.8692 261.364 21.8189 261.766 21.8692C262.471 21.9195 263.025 22.5741 263.025 23.2791C263.025 24.3364 263.025 25.4441 263.025 26.5015C263.025 26.7533 263.075 26.8539 263.327 26.8036C263.428 26.8036 263.528 26.8036 263.629 26.8036C263.73 26.8036 263.931 26.7533 263.931 26.8539C263.982 27.005 263.982 27.156 263.931 27.3071C263.931 27.4079 263.831 27.3575 263.78 27.3575C262.824 27.3575 261.867 27.3575 260.91 27.3575C260.81 27.3575 260.759 27.3071 260.759 27.2064C260.759 26.7533 260.759 26.7533 261.162 26.7533C261.565 26.7533 261.565 26.7533 261.565 26.3505C261.565 25.4441 261.565 24.5378 261.565 23.6315C261.665 23.1783 261.364 22.7755 260.91 22.6749C260.759 22.6245 260.608 22.6749 260.457 22.7252C260.205 22.7755 259.953 22.9266 259.753 23.0273C259.702 23.0776 259.652 23.128 259.652 23.2287C259.652 24.3364 259.652 25.4441 259.652 26.5518C259.652 26.7029 259.702 26.7029 259.803 26.7029C259.903 26.7029 260.004 26.7029 260.104 26.7029C260.407 26.7029 260.407 26.7029 260.407 27.005C260.407 27.2064 260.356 27.2568 260.155 27.2568C259.249 27.2568 258.343 27.2568 257.436 27.2568C257.285 27.2568 257.184 27.2064 257.234 27.0554C257.234 27.005 257.234 26.9043 257.234 26.8539C257.234 26.7029 257.285 26.6526 257.436 26.6526C257.637 26.6526 257.839 26.6526 258.041 26.6526C258.141 26.6526 258.192 26.6526 258.192 26.5015C258.192 25.1924 258.192 23.8833 258.192 22.5741C258.192 22.4734 258.141 22.4231 258.041 22.4231C257.839 22.4231 257.637 22.4231 257.436 22.4231C257.285 22.4231 257.234 22.4231 257.234 22.272C257.234 21.8692 257.234 21.8692 257.637 21.8692C258.242 21.8692 258.795 21.8692 259.4 21.8692C259.601 21.8692 259.652 21.9195 259.601 22.121C259.601 22.3224 259.601 22.4734 259.601 22.6245Z" fill="black"/>
<path d="M217.106 37.2259C216.653 37.528 216.15 37.7797 215.596 37.8301C215.294 37.8804 214.992 37.8804 214.74 37.7797C214.236 37.6791 213.834 37.2259 213.783 36.672C213.783 36.4203 213.733 36.2189 213.733 35.9671C213.733 35.0104 213.733 34.0538 213.733 33.0468C213.733 32.8957 213.682 32.8453 213.531 32.8453C213.33 32.8453 213.129 32.8453 212.978 32.8453C212.877 32.8453 212.826 32.795 212.826 32.6943C212.826 32.2915 212.826 32.2915 213.229 32.2915C213.783 32.2915 214.337 32.2915 214.891 32.2915C215.243 32.2915 215.243 32.2915 215.243 32.644C215.243 33.802 215.243 34.9098 215.243 36.0678C215.243 36.1686 215.243 36.2692 215.243 36.3699C215.243 36.7728 215.596 37.1252 215.999 37.0749C216.049 37.0749 216.15 37.0749 216.2 37.0245C216.502 36.9238 216.804 36.8231 217.106 36.6217C217.207 36.5713 217.207 36.521 217.207 36.4203C217.207 35.2622 217.207 34.1545 217.207 32.9964C217.207 32.8453 217.157 32.8453 217.056 32.8453C216.855 32.8453 216.653 32.8453 216.452 32.8453C216.301 32.8453 216.301 32.795 216.301 32.6943C216.301 32.2915 216.301 32.2915 216.704 32.2915C217.308 32.2915 217.862 32.2915 218.466 32.2915C218.667 32.2915 218.718 32.3419 218.718 32.5432C218.718 34.0035 218.718 35.4132 218.718 36.8734C218.718 37.0749 218.768 37.1252 218.969 37.1252C219.12 37.1252 219.322 37.1252 219.473 37.1252C219.574 37.1252 219.624 37.1755 219.624 37.2762C219.624 37.6791 219.624 37.6791 219.221 37.6791C218.667 37.6791 218.063 37.6791 217.509 37.6791C217.308 37.6791 217.157 37.6287 217.207 37.377C217.106 37.377 217.106 37.2762 217.106 37.2259Z" fill="black"/>
<path d="M206.027 37.1755C205.674 37.3769 205.322 37.5784 204.969 37.679C204.516 37.8301 204.063 37.8301 203.61 37.7294C203.006 37.5784 202.552 36.9742 202.653 36.3699C202.653 35.2622 202.653 34.1545 202.653 33.0971C202.653 32.8957 202.603 32.8453 202.401 32.8453C202.301 32.8453 202.2 32.8453 202.049 32.8453C201.646 32.8453 201.596 32.795 201.646 32.3418C201.646 32.2411 201.697 32.2411 201.797 32.2411C202.502 32.2411 203.207 32.2411 203.962 32.2411C204.164 32.2411 204.063 32.3921 204.063 32.4425C204.063 33.6006 204.063 34.7587 204.063 35.9671C204.063 36.1181 204.063 36.3196 204.113 36.4706C204.214 36.8734 204.566 37.0748 204.969 37.0245C204.969 37.0245 204.969 37.0245 205.02 37.0245C205.372 36.9238 205.674 36.8231 205.976 36.6217C206.077 36.5713 206.077 36.5209 206.077 36.4202C206.077 35.2622 206.077 34.1041 206.077 32.946C206.077 32.8454 206.027 32.795 205.926 32.795C205.725 32.795 205.523 32.795 205.322 32.795C205.171 32.795 205.171 32.7446 205.171 32.6439C205.171 32.2411 205.171 32.2411 205.573 32.2411C206.178 32.2411 206.782 32.2411 207.386 32.2411C207.537 32.2411 207.588 32.2915 207.588 32.4425C207.588 33.9027 207.588 35.3125 207.588 36.7727C207.588 36.9741 207.638 37.0748 207.839 37.0245C207.94 37.0245 208.091 37.0245 208.192 37.0245C208.494 37.0245 208.494 37.0244 208.494 37.3266C208.494 37.528 208.443 37.6287 208.242 37.5784C207.638 37.5784 206.983 37.5784 206.379 37.5784C206.178 37.5784 206.077 37.528 206.127 37.3266C206.027 37.3769 206.027 37.2763 206.027 37.1755Z" fill="black"/>
<path d="M203.407 21.8185C205.019 21.8185 206.126 22.6744 206.428 24.0843C206.781 25.5948 205.824 27.1054 204.314 27.4578C204.163 27.5082 203.961 27.5082 203.81 27.5082C203.256 27.5585 202.702 27.5082 202.199 27.3067C201.041 26.8536 200.336 25.6955 200.437 24.4367C200.537 23.1276 201.494 22.0702 202.753 21.8689C203.005 21.8689 203.206 21.8185 203.407 21.8185ZM202.048 24.6885C202.048 25.192 202.149 25.6955 202.35 26.199C202.501 26.5515 202.803 26.8032 203.156 26.9039C203.81 27.1054 204.465 26.7025 204.666 26.0983C205.019 25.192 205.019 24.185 204.666 23.2786C204.515 22.7752 204.062 22.4227 203.508 22.4227C202.954 22.4227 202.501 22.7752 202.35 23.2786C202.149 23.7319 202.048 24.185 202.048 24.6885Z" fill="black"/>
<path d="M185.536 18.848C185.032 19.0997 184.529 19.2508 183.975 19.3515C182.515 19.6536 181.055 19.9054 179.594 20.006C177.882 20.1571 176.12 20.2578 174.358 20.2075C172.847 20.2075 171.387 20.006 169.927 19.6536C169.625 19.6033 169.373 19.5026 169.121 19.4018C168.92 19.3012 168.819 19.0494 168.87 18.7976C168.92 18.6466 169.121 18.4955 169.373 18.5459C169.927 18.5963 170.481 18.6969 170.984 18.7976C171.79 18.8984 172.596 18.9991 173.401 18.9991C175.717 19.0997 178.084 19.0997 180.4 19.0494C182.011 18.9991 183.673 18.9487 185.284 18.848C185.385 18.848 185.435 18.848 185.536 18.848Z" fill="black"/>
<path d="M220.174 33.5C220.023 32.9461 220.023 33.0971 220.376 32.795C220.98 32.3419 221.685 32.0901 222.44 32.1405C223.296 32.1908 223.951 32.8454 224.001 33.7013C224.051 34.507 224.001 35.3126 224.001 36.1182C224.001 36.2189 224.001 36.3196 224.001 36.4203C224.001 36.7727 224.303 37.0245 224.656 37.0245C224.706 37.0245 224.757 37.0245 224.807 36.9742C224.857 36.9742 224.908 36.9238 225.009 36.9238V36.9742C225.009 37.528 225.009 37.528 224.505 37.6791C224.202 37.7798 223.9 37.8301 223.598 37.8301C223.196 37.7798 222.843 37.528 222.642 37.1756C222.289 37.4273 221.887 37.6791 221.484 37.7798C220.779 37.9812 220.074 37.5784 219.923 36.8735C219.872 36.7727 219.872 36.6721 219.872 36.5714C219.721 35.9168 220.174 35.2622 220.829 35.1112C221.333 34.9601 221.836 34.8091 222.39 34.7084C222.541 34.658 222.591 34.6076 222.591 34.4566C222.591 34.3055 222.591 34.1545 222.591 34.0034C222.642 33.5 222.289 33.0468 221.786 32.9964C221.635 32.9964 221.484 32.9964 221.383 33.0468C220.93 33.0971 220.527 33.2986 220.174 33.5ZM222.591 35.9672C222.591 35.7658 222.591 35.6147 222.591 35.4133C222.591 35.3126 222.541 35.3126 222.44 35.3126C222.138 35.363 221.836 35.4637 221.534 35.6651C221.232 35.8664 221.081 36.2693 221.232 36.5714C221.333 36.8231 221.584 36.9742 221.887 36.9238C222.339 36.8231 222.541 36.6217 222.541 36.2189C222.591 36.1182 222.591 36.0679 222.591 35.9672Z" fill="black"/>
<path d="M251.495 26.2495C251.495 26.2998 251.495 26.3502 251.495 26.4005C251.546 26.8537 251.243 27.055 250.84 27.2061C250.085 27.5082 249.229 27.5586 248.424 27.3571C247.417 27.1054 246.661 26.1991 246.51 25.1921C246.41 24.6886 246.41 24.1347 246.561 23.6312C246.863 22.3221 248.172 21.5668 249.481 21.8689C250.337 22.0703 250.991 22.7249 251.193 23.5305C251.243 23.7319 251.294 23.8829 251.344 24.0844C251.394 24.2354 251.344 24.2857 251.193 24.2857C250.186 24.2857 249.229 24.2857 248.222 24.2857C248.021 24.2857 247.97 24.3361 248.021 24.5375C248.021 24.8396 248.122 25.1417 248.172 25.4438C248.373 26.4005 249.279 27.0047 250.237 26.8033C250.337 26.8033 250.438 26.7529 250.488 26.7026C250.84 26.6019 251.193 26.4508 251.495 26.2495ZM248.928 23.7319C249.179 23.7319 249.481 23.7319 249.733 23.7319C249.783 23.7319 249.884 23.7319 249.884 23.6312C249.834 23.2284 249.682 22.876 249.431 22.6242C249.129 22.3221 248.676 22.3221 248.424 22.6242C248.373 22.6745 248.373 22.6745 248.323 22.7249C248.172 22.9766 248.071 23.2787 248.021 23.6312C248.021 23.7823 248.071 23.7319 248.172 23.7319C248.424 23.7319 248.676 23.7319 248.928 23.7319Z" fill="black"/>
<path d="M237.244 26.2493C237.194 26.4507 237.194 26.6521 237.144 26.8535C237.144 26.9039 237.093 26.9542 237.043 27.0046C236.035 27.6088 234.777 27.7095 233.72 27.206C232.863 26.8032 232.259 25.9472 232.259 24.9905C232.209 24.4871 232.259 23.9332 232.411 23.48C232.863 22.2212 234.223 21.5667 235.482 21.9695C236.186 22.2212 236.741 22.7751 236.992 23.48C237.043 23.6814 237.093 23.8829 237.144 24.1346C237.194 24.2856 237.144 24.336 236.992 24.336C236.035 24.336 235.079 24.336 234.172 24.336C233.82 24.336 233.82 24.336 233.82 24.6884C233.82 24.9402 233.871 25.192 233.971 25.4437C234.172 26.4004 235.079 26.9542 236.035 26.7529C236.086 26.7529 236.186 26.7025 236.237 26.7025C236.589 26.6521 236.942 26.4507 237.244 26.2493ZM234.676 23.7318C234.928 23.7318 235.23 23.7318 235.482 23.7318C235.583 23.7318 235.633 23.7318 235.633 23.6311C235.583 23.2786 235.432 22.9765 235.23 22.6744C234.978 22.3723 234.525 22.322 234.223 22.5737C234.172 22.6241 234.123 22.6744 234.072 22.7248C233.921 22.9765 233.82 23.2786 233.77 23.5807C233.77 23.6814 233.77 23.7318 233.921 23.7318C234.172 23.7318 234.424 23.7318 234.676 23.7318Z" fill="black"/>
<path d="M227.88 33.2482C227.88 34.4566 227.88 35.665 227.88 36.8734C227.88 37.0245 227.93 37.1252 228.082 37.1252C228.282 37.1252 228.484 37.1252 228.635 37.1252C228.736 37.1252 228.786 37.1755 228.786 37.2762C228.836 37.7294 228.836 37.7294 228.383 37.7294C227.477 37.7294 226.621 37.7294 225.715 37.7294C225.563 37.7294 225.463 37.6791 225.513 37.528C225.513 37.4776 225.513 37.377 225.513 37.3266C225.513 37.1755 225.563 37.1252 225.664 37.1252C225.866 37.1252 226.067 37.1252 226.269 37.1252C226.369 37.1252 226.42 37.0749 226.42 36.9741C226.42 36.9238 226.42 36.8734 226.42 36.8734C226.42 34.6579 226.42 32.4425 226.42 30.2271C226.42 30.0257 226.369 29.9753 226.168 29.9753C226.017 29.9753 225.916 29.9753 225.765 29.9753C225.563 30.0257 225.463 29.925 225.463 29.7236C225.463 29.4215 225.463 29.4215 225.765 29.4215C226.369 29.4215 227.024 29.4215 227.628 29.4215C227.779 29.4215 227.83 29.4718 227.83 29.6229C227.88 30.8313 227.88 32.0398 227.88 33.2482Z" fill="black"/>
<path d="M238.605 27.2063C238.555 27.307 238.605 27.458 238.403 27.458C238.101 27.458 238.101 27.458 238.101 27.1559C238.101 26.7531 238.101 26.3503 238.101 25.9475C238.101 25.8971 238.051 25.7461 238.202 25.7461C238.303 25.7461 238.454 25.6957 238.504 25.8468C238.555 26.0482 238.706 26.2496 238.856 26.451C239.158 26.8034 239.612 26.9545 240.065 26.8538C240.367 26.8034 240.568 26.5013 240.518 26.1992C240.518 26.0986 240.417 25.9475 240.317 25.8971C240.115 25.6957 239.864 25.5447 239.612 25.3936C239.259 25.1923 238.906 24.9404 238.605 24.6887C238.051 24.2859 237.9 23.5307 238.101 22.9265C238.353 22.2719 238.957 21.8187 239.612 21.8187C240.015 21.7684 240.367 21.869 240.719 22.0201C240.82 22.0705 240.87 22.1208 240.921 21.9698C240.971 21.718 241.173 21.8187 241.273 21.8187C241.424 21.8187 241.374 21.9698 241.374 22.0201C241.374 22.3726 241.374 22.725 241.374 23.0272C241.374 23.0775 241.424 23.2286 241.273 23.2286C241.173 23.2286 240.971 23.3293 240.921 23.1278C240.87 23.0272 240.82 22.9265 240.77 22.8257C240.568 22.3726 240.015 22.1711 239.561 22.3726C239.309 22.4733 239.158 22.725 239.209 23.0272C239.209 23.0775 239.259 23.1278 239.309 23.1782C239.461 23.3796 239.612 23.5307 239.813 23.6314C240.166 23.8831 240.568 24.0341 240.921 24.2859C241.727 24.7894 241.978 25.7965 241.475 26.6021C241.173 27.1056 240.618 27.4077 240.015 27.4077C239.612 27.5587 239.108 27.458 238.605 27.2063Z" fill="black"/>
<path d="M256.128 23.8831C256.027 23.6816 255.926 23.5306 255.776 23.3795C255.524 23.0774 255.07 23.0774 254.819 23.3292L254.768 23.3795C254.567 23.5306 254.466 23.7824 254.466 24.0341C254.466 24.89 254.466 25.7461 254.466 26.6524C254.466 26.8034 254.516 26.8537 254.667 26.8537C254.869 26.8537 255.07 26.8537 255.222 26.8537C255.322 26.8537 255.373 26.9041 255.373 27.0048C255.373 27.4076 255.373 27.4076 254.97 27.4076C254.064 27.4076 253.157 27.4076 252.251 27.4076C252.049 27.4076 251.999 27.3573 252.049 27.2062C252.049 27.1558 252.049 27.0552 252.049 27.0048C252.049 26.9041 252.1 26.8537 252.201 26.8537C252.402 26.8537 252.654 26.8537 252.855 26.8537C253.006 26.8537 253.006 26.8034 253.006 26.7027C253.006 25.3936 253.006 24.0845 253.006 22.7753C253.006 22.6243 252.955 22.6243 252.805 22.6243C252.654 22.6243 252.452 22.6243 252.301 22.6243C252.201 22.6243 252.049 22.6746 252.049 22.5739C252.049 22.4228 252.049 22.2215 252.049 22.0704C252.049 22.0201 252.15 22.0201 252.15 22.0201C252.855 22.0201 253.56 22.0201 254.265 22.0201C254.366 22.0201 254.416 22.0704 254.416 22.1711C254.416 22.4228 254.416 22.6243 254.416 22.876C254.516 22.876 254.516 22.7753 254.567 22.7249C254.768 22.4228 254.97 22.2215 255.272 22.0201C255.725 21.7683 256.329 21.9194 256.581 22.3725C256.581 22.4228 256.631 22.4228 256.631 22.4732C256.581 22.9264 256.379 23.4299 256.128 23.8831Z" fill="black"/>
<path d="M211.011 23.8828C210.86 23.6814 210.759 23.5303 210.658 23.3793C210.406 23.0772 209.953 23.0269 209.651 23.2786C209.601 23.2786 209.601 23.329 209.55 23.3793C209.349 23.5303 209.248 23.7821 209.248 24.0339C209.248 24.8899 209.248 25.7458 209.248 26.6018C209.248 26.8032 209.299 26.8536 209.5 26.8536C209.601 26.8536 209.752 26.8536 209.903 26.8536C210.155 26.8032 210.205 26.9039 210.205 27.1557C210.205 27.4074 210.155 27.4578 209.903 27.4578C208.946 27.4578 208.04 27.4578 207.083 27.4578C206.932 27.4578 206.832 27.4074 206.882 27.2563C206.882 27.206 206.882 27.1053 206.882 27.0549C206.882 26.9542 206.932 26.9039 207.033 26.9039C207.234 26.9039 207.486 26.9039 207.687 26.9039C207.788 26.9039 207.839 26.8536 207.839 26.7528C207.839 25.4437 207.839 24.1345 207.839 22.7751C207.839 22.5737 207.788 22.5737 207.687 22.5737C207.486 22.5737 207.285 22.5737 207.083 22.5737C206.983 22.5737 206.932 22.5737 206.932 22.4227C206.932 22.0198 206.932 22.0198 207.335 22.0198C207.939 22.0198 208.543 22.0198 209.148 22.0198C209.299 22.0198 209.349 22.0702 209.349 22.2212C209.349 22.4227 209.349 22.6744 209.349 22.8758C209.5 22.6744 209.702 22.4227 209.903 22.2716C210.205 21.8688 210.809 21.7681 211.262 22.0702C211.313 22.0702 211.363 22.1709 211.413 22.2212C211.464 22.2716 211.514 22.3219 211.514 22.4227C211.413 22.9261 211.262 23.4297 211.011 23.8828Z" fill="black"/>
<path d="M208.546 33.0469L210.811 30.8818C210.811 31.335 210.811 31.7378 210.811 32.1406C210.811 32.3421 210.862 32.3421 211.063 32.3421C211.416 32.3421 211.818 32.3421 212.171 32.3421C212.322 32.3421 212.322 32.3924 212.322 32.4931C212.322 33.0469 212.322 33.0469 211.818 33.0469C211.516 33.0469 211.264 33.0469 210.962 33.0469C210.862 33.0469 210.811 33.0973 210.811 33.198C210.811 34.2051 210.811 35.212 210.811 36.2694C210.811 36.4708 210.862 36.7226 210.962 36.924C211.063 37.2261 211.416 37.3771 211.768 37.2765C211.818 37.2765 211.818 37.2765 211.869 37.2261C212.02 37.1254 212.171 37.075 212.271 36.9744C212.372 36.924 212.473 36.8736 212.574 36.9744C212.674 37.075 212.624 37.1757 212.574 37.2765C212.423 37.5282 212.221 37.6792 211.969 37.7799C211.466 37.9813 210.962 37.9813 210.459 37.8807C209.855 37.7296 209.401 37.1254 209.452 36.5212C209.401 35.4638 209.401 34.4568 209.452 33.3994C209.452 33.198 209.401 33.0973 209.15 33.1477C208.898 33.0469 208.747 33.0469 208.546 33.0469Z" fill="black"/>
<path d="M174.558 34.1547C174.507 33.7519 174.507 33.3491 174.457 32.9462C174.306 31.4861 173.903 30.0763 173.198 28.7672C172.997 28.3643 172.695 28.0622 172.392 27.7601C172.141 27.5084 171.839 27.3573 171.536 27.307C171.033 27.1559 170.479 27.307 170.177 27.7098C170.127 27.7601 170.127 27.7601 170.076 27.8105C170.076 27.8609 170.026 27.8609 169.976 27.9112C169.573 27.2566 169.774 26.451 170.378 26.0482C170.429 25.9979 170.479 25.9979 170.58 25.9475C171.385 25.595 172.292 25.6958 172.946 26.3C173.651 26.9042 174.155 27.6594 174.406 28.5154C175.011 30.2777 175.111 32.2414 174.658 34.054C174.658 34.054 174.658 34.1547 174.558 34.1547Z" fill="black"/>
<path d="M242.23 22.6746L244.496 20.5095C244.496 20.9124 244.496 21.2648 244.496 21.6676C244.496 21.9697 244.496 21.9697 244.798 21.9697C245.15 21.9697 245.503 21.9697 245.856 21.9697C245.956 21.9697 246.007 22.0201 246.007 22.1208C246.007 22.6746 246.007 22.6746 245.453 22.6746C245.15 22.6746 244.898 22.6746 244.597 22.6746C244.446 22.6746 244.446 22.725 244.446 22.8257C244.446 23.8327 244.446 24.8397 244.446 25.8468C244.446 26.0481 244.496 26.2999 244.597 26.5013C244.697 26.8034 245.05 27.0048 245.402 26.9042C245.453 26.9042 245.503 26.8538 245.503 26.8538C245.654 26.7531 245.755 26.7027 245.906 26.602C246.007 26.5517 246.107 26.5013 246.207 26.602C246.308 26.7027 246.258 26.8034 246.207 26.9042C246.107 27.0552 245.956 27.2063 245.805 27.3069C245.201 27.609 244.547 27.6594 243.892 27.458C243.338 27.2566 242.986 26.6523 243.036 26.0481C242.986 25.0412 243.036 23.9838 243.036 22.9767C243.036 22.7754 242.986 22.725 242.784 22.725C242.633 22.725 242.432 22.6746 242.23 22.6746Z" fill="black"/>
<path d="M211.867 22.6746L214.132 20.5095C214.132 20.9627 214.132 21.3655 214.132 21.7683C214.132 21.9194 214.183 21.9697 214.334 21.9697C214.737 21.9697 215.089 21.9697 215.492 21.9697C215.592 21.9697 215.643 22.0201 215.643 22.1208C215.643 22.6746 215.643 22.6746 215.089 22.6746C214.837 22.6746 214.535 22.6746 214.283 22.6746C214.183 22.6746 214.132 22.6746 214.132 22.8257C214.132 23.883 214.082 24.9908 214.132 26.0481C214.132 26.1489 214.132 26.2496 214.183 26.3502C214.233 26.7027 214.535 27.0048 214.938 26.9545C215.089 26.9545 215.24 26.8538 215.341 26.7531C215.441 26.7027 215.542 26.602 215.643 26.5517C215.693 26.5013 215.794 26.5013 215.844 26.5517C215.895 26.602 215.895 26.7027 215.844 26.7531C215.794 26.9042 215.643 27.0552 215.492 27.1559C214.888 27.5587 214.082 27.609 213.427 27.3069C213.025 27.1055 212.723 26.7027 212.723 26.2496C212.672 26.0481 212.672 25.7964 212.672 25.595C212.672 24.6887 212.672 23.8327 212.672 22.9264C212.672 22.6746 212.622 22.6243 212.42 22.6746C212.219 22.725 212.068 22.6746 211.867 22.6746Z" fill="black"/>
<path d="M184.075 27.9112C183.672 27.2566 182.867 27.0049 182.212 27.3573C181.708 27.6091 181.255 27.9615 181.004 28.465C180.45 29.3713 180.047 30.3784 179.845 31.4357C179.644 32.2917 179.543 33.1477 179.493 34.0036C179.493 34.054 179.493 34.1043 179.443 34.1547C179.342 33.8526 179.241 33.5001 179.241 33.1477C178.989 31.3854 179.241 29.5727 179.946 27.9112C180.248 27.1559 180.752 26.5013 181.457 26.0482C182.111 25.6454 182.867 25.595 183.571 25.9475C184.226 26.2496 184.528 27.0552 184.226 27.7601C184.176 27.8104 184.125 27.8608 184.075 27.9112Z" fill="black"/>
<path d="M172.996 34.8594C172.896 34.1545 172.694 33.4496 172.442 32.795C172.14 31.9894 171.687 31.2341 171.133 30.6299C170.781 30.2775 170.378 30.0257 169.874 29.925C169.27 29.774 168.716 30.0761 168.465 30.6299C168.465 30.6803 168.414 30.6803 168.414 30.6803C168.163 30.3782 168.112 30.0257 168.213 29.6732C168.364 29.0187 169.018 28.5656 169.673 28.5656C170.579 28.5656 171.385 29.0187 171.888 29.7236C172.543 30.6299 172.946 31.6873 173.097 32.795C173.198 33.3992 173.198 34.0538 173.047 34.658C173.047 34.7587 173.047 34.8594 172.996 34.8594Z" fill="black"/>
<path d="M180.952 34.9102C180.851 34.6584 180.801 34.3563 180.801 34.1045C180.75 32.6443 181.153 31.2346 181.908 30.0261C182.311 29.3716 182.915 28.868 183.671 28.717C184.174 28.6163 184.678 28.6666 185.131 28.868C185.685 29.1701 185.936 29.7743 185.785 30.3282C185.735 30.4793 185.685 30.6303 185.584 30.731C185.483 30.3785 185.231 30.1268 184.879 30.0261C184.476 29.8751 184.023 29.9254 183.62 30.0764C183.066 30.3282 182.664 30.731 182.311 31.2346C181.657 32.2415 181.203 33.3996 181.002 34.6584C181.052 34.7087 181.002 34.8094 180.952 34.9102Z" fill="black"/>
<path d="M172.694 37.7798C173.047 37.5281 173.449 37.3267 173.852 37.1756C175.262 36.6218 176.823 36.37 178.334 36.4707C178.938 36.4707 179.542 36.5714 180.096 36.7224C180.297 36.7728 180.499 36.8735 180.7 36.9743C180.952 37.1253 181.053 37.3267 180.952 37.5785C180.901 37.7798 180.7 37.8302 180.398 37.7798C179.693 37.6791 178.988 37.5785 178.283 37.5281C177.175 37.4777 176.068 37.4777 174.96 37.5785C174.255 37.6288 173.55 37.6791 172.845 37.7798C172.795 37.7798 172.795 37.7798 172.694 37.7798Z" fill="black"/>
<path d="M172.745 36.0176C173.248 35.6651 173.802 35.4133 174.356 35.212C176.169 34.6078 178.132 34.507 180.046 34.9602C180.247 35.0106 180.398 35.0609 180.6 35.1616C180.7 35.212 180.801 35.2623 180.902 35.363C181.053 35.5141 181.053 35.7154 180.952 35.8665C180.851 36.0176 180.7 36.0679 180.549 36.0176C179.995 35.9169 179.492 35.8665 178.938 35.7658C177.981 35.6651 177.025 35.6651 176.068 35.7154C174.91 35.8162 173.853 35.9169 172.745 36.0176Z" fill="black"/>
<path d="M172.745 20.8115C173.752 20.7107 174.759 21.0128 175.514 21.6674C176.471 22.5737 177.075 23.7821 177.226 25.1416C177.276 25.3934 177.276 25.5948 177.226 25.8466C177.176 26.0479 177.125 26.1487 176.924 26.199C176.723 26.199 176.622 26.0479 176.572 25.8969C176.42 25.2424 176.169 24.6382 175.867 24.0339C175.313 22.7752 174.356 21.7681 173.198 21.0632C173.047 20.9625 172.896 20.9122 172.745 20.8115Z" fill="black"/>
<path d="M177.729 24.3864C177.276 22.7248 178.233 20.9625 179.895 20.459C180.398 20.308 180.902 20.308 181.405 20.4087C179.542 21.1135 178.434 22.5234 177.729 24.3864Z" fill="black"/>
<path d="M229.944 31.1336C229.39 31.1336 228.938 30.6804 228.938 30.1769C228.938 29.6734 229.39 29.1699 229.894 29.1699C230.448 29.1699 230.901 29.6231 230.901 30.1265C230.901 30.6804 230.448 31.1336 229.944 31.1336ZM229.894 30.9322C230.347 30.9322 230.7 30.5797 230.7 30.1265C230.7 29.6734 230.347 29.321 229.894 29.321C229.441 29.321 229.089 29.6734 229.089 30.1265C229.089 30.5797 229.441 30.9322 229.894 30.9322Z" fill="black"/>
<path d="M230.346 30.6302C230.195 30.6805 230.094 30.6302 230.044 30.4792C230.044 30.4288 229.993 30.3784 229.993 30.3281C229.943 30.2274 229.892 30.2274 229.792 30.2274C229.691 30.2274 229.691 30.3281 229.691 30.3784C229.691 30.4288 229.691 30.4792 229.691 30.5295C229.691 30.5799 229.691 30.6302 229.591 30.6302C229.49 30.6302 229.44 30.6302 229.44 30.5295C229.44 30.2778 229.44 29.9756 229.44 29.7239C229.44 29.6232 229.49 29.6232 229.541 29.6232C229.691 29.6232 229.892 29.6232 230.044 29.6232C230.195 29.6232 230.346 29.7742 230.296 29.9253C230.296 29.9756 230.245 30.0763 230.245 30.1267C230.094 30.2274 230.144 30.3281 230.195 30.4288C230.296 30.4792 230.346 30.5799 230.346 30.6302ZM229.943 29.7742C229.842 29.7742 229.741 29.7239 229.741 29.9253C229.741 30.0763 229.792 30.0763 229.892 30.0763C229.993 30.0763 230.144 30.0763 230.144 29.9253C230.144 29.7742 229.993 29.7742 229.943 29.7742Z" fill="black"/>
<path d="M328.521 22.0961C328.569 22.0663 328.562 22.0103 328.573 21.9656C328.764 21.3466 329.355 20.9737 330.017 21.0594C330.623 21.1378 331.109 21.6822 331.113 22.3123C331.121 23.2222 331.121 24.132 331.113 25.0456C331.109 25.7317 330.619 26.2612 329.924 26.3358C329.303 26.4029 328.7 25.9629 328.551 25.329C328.547 25.2991 328.554 25.2656 328.521 25.247C328.521 24.1954 328.521 23.1476 328.521 22.0961Z" fill="black"/>
<path d="M388.154 25.2472C388.101 25.2882 388.113 25.3516 388.098 25.4037C387.929 25.9892 387.342 26.3956 386.755 26.3322C386.093 26.2614 385.58 25.7543 385.569 25.1167C385.554 24.1621 385.554 23.2075 385.569 22.2529C385.58 21.6526 386.089 21.1231 386.677 21.0559C387.338 20.9814 387.922 21.3543 388.098 21.9695C388.113 22.0217 388.105 22.0851 388.154 22.1261C388.154 23.1665 388.154 24.2068 388.154 25.2472Z" fill="black"/>
<path d="M388.152 43.7645C387.957 43.772 387.957 43.772 387.957 43.5855C387.957 43.3059 387.957 43.0224 387.957 42.7354C387.901 42.7502 387.901 42.795 387.89 42.8249C387.785 43.1082 387.677 43.3879 387.576 43.6713C387.55 43.7421 387.515 43.7682 387.437 43.772C387.355 43.772 387.339 43.7272 387.318 43.6713C387.22 43.3991 387.119 43.1232 387.018 42.8509C387.003 42.8099 386.985 42.7726 386.94 42.7391C386.94 43.0485 386.936 43.3581 386.94 43.6638C386.94 43.7496 386.913 43.7757 386.827 43.772C386.764 43.7682 386.741 43.7496 386.745 43.6862C386.749 43.291 386.745 42.8957 386.745 42.5005C386.745 42.4557 386.741 42.3998 386.809 42.4109C386.899 42.4296 387.022 42.3438 387.074 42.4929C387.179 42.7913 387.291 43.0858 387.4 43.3841C387.415 43.4215 387.426 43.4588 387.445 43.5035C387.508 43.4438 387.515 43.3618 387.542 43.291C387.628 43.056 387.718 42.8174 387.793 42.5787C387.83 42.4519 387.886 42.3811 388.028 42.4072C388.066 42.4147 388.107 42.4035 388.144 42.3998C388.152 42.8509 388.152 43.3059 388.152 43.7645Z" fill="black"/>
<path d="M377.331 33.2494C379.1 33.2867 380.607 33.9244 381.714 35.3711C382.545 36.4599 382.877 37.7054 382.762 39.0664C382.639 40.5542 382.006 41.7922 380.847 42.7393C379.836 43.5671 378.662 43.9437 377.36 43.9474C375.86 43.9549 374.54 43.4926 373.451 42.4484C372.508 41.5461 371.988 40.4274 371.869 39.1335C371.738 37.6979 372.089 36.3928 372.995 35.2593C373.855 34.1816 374.988 33.5627 376.342 33.3352C376.481 33.3128 376.616 33.2905 376.754 33.2792C376.938 33.2643 377.12 33.2606 377.331 33.2494ZM377.319 35.8857C375.789 35.882 374.611 37.0641 374.611 38.6003C374.611 40.1291 375.785 41.3186 377.3 41.3223C378.815 41.3261 380.008 40.1403 380.012 38.619C380.016 37.0789 378.842 35.8894 377.319 35.8857Z" fill="black"/>
<path d="M351.539 42.4854C351.539 42.1274 351.543 41.7732 351.535 41.4152C351.535 41.3108 351.558 41.2959 351.659 41.322C352.471 41.542 353.294 41.6912 354.139 41.6763C354.513 41.6688 354.883 41.6315 355.239 41.5047C355.396 41.4488 355.538 41.3742 355.661 41.2586C355.983 40.964 355.987 40.4942 355.673 40.1735C355.463 39.961 355.194 39.8416 354.917 39.7447C354.442 39.5769 353.952 39.4501 353.488 39.2413C352.923 38.9877 352.414 38.6596 352.04 38.1599C351.588 37.5559 351.461 36.8697 351.528 36.1352C351.666 34.666 352.676 33.7189 354.094 33.387C354.868 33.2081 355.65 33.2229 356.436 33.3125C356.888 33.3647 357.337 33.443 357.786 33.5399C357.887 33.5623 357.928 33.5996 357.925 33.7152C357.917 34.3528 357.917 34.9942 357.925 35.6318C357.925 35.7735 357.887 35.7772 357.767 35.7436C357.098 35.5796 356.421 35.4491 355.721 35.4677C355.418 35.4752 355.119 35.5162 354.835 35.6318C354.756 35.6616 354.681 35.6989 354.61 35.7436C354.18 36.0159 354.139 36.5193 354.52 36.8586C354.749 37.0599 355.033 37.1569 355.314 37.2501C355.807 37.4142 356.316 37.5373 356.787 37.7609C357.577 38.1376 358.194 38.6857 358.489 39.5322C359.043 41.1057 358.276 42.7911 356.701 43.4884C355.871 43.8539 354.999 43.962 354.098 43.9434C353.286 43.9248 352.486 43.8315 351.685 43.6973C351.573 43.6786 351.532 43.6413 351.535 43.5183C351.543 43.179 351.539 42.8322 351.539 42.4854Z" fill="black"/>
<path d="M341.79 40.8148C341.79 41.7246 341.79 42.6084 341.79 43.4958C341.79 43.5704 341.756 43.5965 341.692 43.6151C340.436 43.9694 339.167 44.085 337.884 43.7643C335.864 43.2534 334.316 41.7283 333.975 39.5992C333.736 38.1002 333.983 36.6981 334.877 35.449C335.704 34.2931 336.856 33.6256 338.244 33.3646C339.411 33.1446 340.555 33.2602 341.689 33.5958C341.752 33.6144 341.793 33.6293 341.793 33.7076C341.79 34.5877 341.79 35.4713 341.79 36.3514C341.79 36.3588 341.782 36.3663 341.775 36.3849C341.371 36.1723 340.944 36.0158 340.492 35.9337C339.766 35.8032 339.051 35.7958 338.356 36.0866C337.275 36.5378 336.665 37.5819 336.736 38.7602C336.792 39.7148 337.211 40.468 338.045 40.9602C338.651 41.3219 339.321 41.4002 340.013 41.3369C340.634 41.2846 341.217 41.1131 341.79 40.8148Z" fill="black"/>
<path d="M369.071 36.3854C368.693 36.1915 368.323 36.0461 367.926 35.9641C367.107 35.7925 366.295 35.7664 365.524 36.143C364.59 36.6017 364.099 37.3773 364.032 38.4065C363.972 39.3312 364.268 40.1217 364.993 40.7258C365.491 41.1397 366.082 41.3298 366.726 41.3522C367.507 41.3821 368.255 41.2254 368.955 40.8749C369.063 40.8227 369.086 40.8413 369.082 40.957C369.079 41.7922 369.079 42.6312 369.082 43.4664C369.082 43.5559 369.056 43.5932 368.966 43.6193C367.982 43.9028 366.984 44.0258 365.962 43.9065C363.8 43.6566 361.922 42.2844 361.376 40.0844C360.912 38.2125 361.219 36.4823 362.524 35.0057C363.362 34.0549 364.447 33.5291 365.693 33.3315C366.796 33.1562 367.877 33.2718 368.948 33.5813C369.018 33.6037 369.082 33.6112 369.082 33.7193C369.079 34.5806 369.079 35.442 369.079 36.3034C369.082 36.3258 369.079 36.3444 369.071 36.3854Z" fill="black"/>
<path d="M345.375 20.7575C345.375 23.0209 345.375 25.2843 345.375 27.5477C345.375 28.1704 345.05 28.6514 344.515 28.8379C343.677 29.1287 342.824 28.5396 342.779 27.6447C342.779 27.6037 342.779 27.5664 342.779 27.5253C342.779 23.0134 342.779 18.5016 342.779 13.9896C342.779 13.3594 343.097 12.8859 343.643 12.6846C344.455 12.39 345.334 12.9717 345.368 13.8331C345.379 14.1314 345.371 14.426 345.371 14.7243C345.375 16.7378 345.375 18.7476 345.375 20.7575Z" fill="black"/>
<path d="M371.3 20.7466C371.3 18.4832 371.3 16.2199 371.3 13.9564C371.3 13.2964 371.703 12.7744 372.31 12.6476C373.11 12.4761 373.851 13.0466 373.892 13.8594C373.892 13.893 373.895 13.9303 373.895 13.9638C373.895 18.4944 373.895 23.0287 373.895 27.5592C373.895 28.2342 373.499 28.745 372.867 28.8904C372.104 29.0657 371.326 28.4802 371.307 27.701C371.292 27.0334 371.3 26.3623 371.3 25.6948C371.3 24.0429 371.3 22.3948 371.3 20.7466Z" fill="black"/>
<path d="M347.998 38.6037C347.998 40.2667 347.998 41.9335 348.002 43.5966C348.002 43.7233 347.983 43.7719 347.837 43.7719C347.067 43.7644 346.296 43.7644 345.526 43.7719C345.413 43.7719 345.387 43.7457 345.387 43.6339C345.391 40.2816 345.391 36.9294 345.387 33.5735C345.387 33.4579 345.421 33.4355 345.529 33.4355C346.304 33.4393 347.078 33.4393 347.856 33.4355C347.976 33.4355 348.002 33.4654 348.002 33.5847C347.998 35.2552 347.998 36.9294 347.998 38.6037Z" fill="black"/>
<path d="M352.509 21.9174C352.509 22.9391 352.509 23.9571 352.509 24.9787C352.509 25.65 352.128 26.1496 351.514 26.3025C350.762 26.489 349.999 25.9557 349.925 25.1876C349.917 25.1093 349.913 25.031 349.913 24.949C349.913 22.9204 349.913 20.8883 349.913 18.8598C349.913 18.1587 350.317 17.6404 350.968 17.5062C351.698 17.3533 352.434 17.894 352.502 18.636C352.536 19.0015 352.513 19.3669 352.513 19.736C352.509 20.4594 352.509 21.1866 352.509 21.9174Z" fill="black"/>
<path d="M364.169 21.9023C364.169 20.8768 364.166 19.8514 364.169 18.826C364.169 18.1735 364.558 17.6626 365.15 17.5209C365.995 17.3158 366.766 17.931 366.766 18.826C366.77 20.5301 366.766 22.2341 366.766 23.9345C366.766 24.2962 366.77 24.6579 366.766 25.0196C366.754 25.6497 366.373 26.1419 365.781 26.2948C365 26.4962 364.211 25.9294 364.177 25.124C364.162 24.7548 364.169 24.3819 364.169 24.0091C364.169 23.3081 364.169 22.607 364.169 21.9023Z" fill="black"/>
<path d="M338.247 21.9023C338.247 22.9464 338.25 23.9904 338.247 25.0346C338.243 25.702 337.775 26.2352 337.136 26.321C336.346 26.4254 335.665 25.8474 335.654 25.0494C335.647 24.6132 335.654 24.1769 335.654 23.7407C335.654 22.0962 335.654 20.4518 335.654 18.8111C335.654 18.1511 336.077 17.6328 336.709 17.5023C337.469 17.3457 338.232 17.9311 338.243 18.7067C338.254 19.7732 338.243 20.8396 338.247 21.9023C338.243 21.9023 338.243 21.9023 338.247 21.9023Z" fill="black"/>
<path d="M378.43 21.9058C378.43 20.8581 378.423 19.8065 378.434 18.7587C378.438 18.2366 378.692 17.8489 379.159 17.6177C379.62 17.3902 380.08 17.435 380.495 17.7333C380.862 17.998 381.026 18.3709 381.026 18.8221C381.026 20.6194 381.026 22.4167 381.023 24.214C381.023 24.5645 381.057 24.9187 381 25.2656C380.892 25.9069 380.297 26.3805 379.665 26.3357C378.969 26.2873 378.438 25.7503 378.434 25.0679C378.426 24.0164 378.43 22.9611 378.43 21.9058Z" fill="black"/>
<path d="M357.027 23.6734C357.027 23.252 357.027 22.8306 357.027 22.413C357.031 21.6598 357.498 21.1153 358.246 21.0482C358.92 20.9848 359.507 21.477 359.612 22.1259C359.653 22.3682 359.634 22.6106 359.634 22.853C359.638 23.5652 359.638 24.2774 359.634 24.9896C359.63 25.6161 359.264 26.1269 358.707 26.291C357.857 26.5408 357.038 25.9256 357.023 25.0269C357.023 24.572 357.027 24.1208 357.027 23.6734Z" fill="black"/>
<path d="M386.003 43.168C386.003 43.0002 385.999 42.8324 386.003 42.6646C386.003 42.5937 385.984 42.5677 385.913 42.5714C385.816 42.5751 385.715 42.5714 385.614 42.5751C385.558 42.5751 385.532 42.5602 385.532 42.5006C385.532 42.4409 385.546 42.4073 385.614 42.411C385.932 42.4148 386.25 42.4148 386.568 42.411C386.631 42.411 386.654 42.4296 386.654 42.4968C386.654 42.564 386.624 42.5826 386.564 42.5788C386.486 42.5751 386.404 42.5863 386.325 42.5751C386.201 42.5602 386.179 42.6124 386.183 42.7242C386.191 43.0375 386.183 43.347 386.187 43.6602C386.187 43.7348 386.179 43.7758 386.085 43.7758C385.992 43.7758 385.996 43.7273 385.996 43.6639C386.003 43.4962 386.003 43.3321 386.003 43.168Z" fill="black"/>
<path d="M466.363 33.7291H462.952C462.915 33.2244 462.878 32.7273 462.841 32.23C462.817 32.2141 462.792 32.1982 462.767 32.182C462.753 32.2209 462.748 32.2671 462.724 32.2982C461.943 33.308 460.901 33.8166 459.644 33.9166C458.373 34.0178 457.223 33.7031 456.211 32.9198C455.298 32.2122 454.708 31.2788 454.386 30.1747C454.009 28.8801 453.999 27.5786 454.397 26.2886C454.894 24.6817 455.938 23.5381 457.454 22.8528C459.319 22.0101 461.214 21.9768 463.078 22.8464C464.814 23.6562 465.835 25.0557 466.223 26.928C466.325 27.417 466.364 27.9131 466.364 28.4129C466.362 30.079 466.363 31.745 466.363 33.4112V33.7288V33.7291ZM457.668 28.1771C457.681 28.2859 457.688 28.4913 457.728 28.6898C457.921 29.6479 458.443 30.3504 459.378 30.6761C460.327 31.0067 461.21 30.8521 461.973 30.1778C463.295 29.0097 463.183 26.8597 461.756 25.8246C460.712 25.0675 459.227 25.2153 458.36 26.1707C457.87 26.7104 457.681 27.3648 457.669 28.1768L457.668 28.1771Z" fill="black"/>
<path d="M507.785 33.6923H504.284V33.3677C504.284 31.5051 504.288 29.6423 504.28 27.7795C504.279 27.4795 504.259 27.1719 504.192 26.8807C503.91 25.6501 502.848 25.0462 501.638 25.4082C500.663 25.6998 499.911 26.6336 499.829 27.6572C499.819 27.7792 499.818 27.9021 499.818 28.0246C499.817 29.8138 499.818 31.6031 499.818 33.3923V33.6732C499.613 33.7315 496.572 33.7423 496.298 33.6901V22.4409H499.69C499.731 22.9853 499.77 23.5189 499.814 24.1091C499.9 23.999 499.948 23.937 499.997 23.8753C500.867 22.7579 502.007 22.203 503.423 22.2172C504.248 22.2256 505.02 22.4145 505.721 22.8577C506.709 23.4822 507.291 24.4 507.595 25.5113C507.732 26.0098 507.797 26.5192 507.797 27.0366C507.797 29.169 507.797 31.3014 507.797 33.4337C507.797 33.5136 507.79 33.5933 507.785 33.6926V33.6923Z" fill="black"/>
<path d="M545.64 29.3108H537.622C537.64 29.424 537.646 29.511 537.669 29.5934C537.83 30.1708 538.2 30.5777 538.719 30.8522C539.314 31.167 539.953 31.249 540.614 31.1797C541.241 31.1143 541.823 30.9252 542.32 30.5025C543.213 30.9108 544.1 31.3155 545.007 31.7302C544.959 31.8002 544.929 31.8542 544.89 31.901C544.422 32.4599 543.86 32.9035 543.202 33.2069C541.334 34.0672 539.419 34.1677 537.516 33.3878C535.544 32.5794 534.42 31.0581 534.161 28.9323C533.959 27.2831 534.327 25.761 535.347 24.4343C536.319 23.1683 537.62 22.4539 539.2 22.2742C540.535 22.1228 541.818 22.3227 543.009 22.9592C544.566 23.7912 545.46 25.1095 545.752 26.8468C545.879 27.6034 545.876 28.3584 545.702 29.1088C545.688 29.1706 545.665 29.2304 545.64 29.3106V29.3108ZM542.34 27.0534C542.346 26.9679 542.356 26.9112 542.354 26.8554C542.313 26.0171 541.918 25.4178 541.148 25.0803C540.65 24.8617 540.125 24.8235 539.591 24.8865C538.568 25.0076 537.805 25.7463 537.645 26.763C537.631 26.8547 537.635 26.9492 537.629 27.0534H542.34Z" fill="black"/>
<path d="M494.352 31.7379C494.228 31.8815 494.137 31.9953 494.038 32.1004C493.269 32.9122 492.323 33.4132 491.247 33.6725C489.811 34.0184 488.38 34.0036 486.999 33.4548C484.822 32.5899 483.642 30.9555 483.457 28.6154C483.351 27.2827 483.632 26.0271 484.352 24.8947C485.326 23.3614 486.729 22.4846 488.528 22.2751C489.914 22.1139 491.244 22.3344 492.466 23.0292C493.984 23.8925 494.836 25.2249 495.093 26.946C495.197 27.6453 495.192 28.3457 495.045 29.0409C495.035 29.0887 495.023 29.1364 495.01 29.1835C495.001 29.2146 494.989 29.2445 494.967 29.3095H494.665C492.199 29.3095 489.733 29.3095 487.267 29.3099C487.165 29.3099 487.062 29.3175 486.942 29.3225C487.01 29.8166 487.22 30.2002 487.559 30.5134C487.924 30.8487 488.362 31.0399 488.841 31.1333C489.536 31.2686 490.221 31.2151 490.88 30.9531C491.141 30.849 491.381 30.6894 491.69 30.5235C492.523 30.9036 493.415 31.3105 494.352 31.7377L494.352 31.7379ZM491.657 27.0506C491.665 26.9884 491.675 26.9409 491.675 26.8935C491.683 26.0857 491.243 25.4131 490.49 25.0857C489.992 24.869 489.469 24.8175 488.937 24.8857C487.924 25.0153 487.08 25.6793 486.945 26.9584C486.942 26.9869 486.959 27.0173 486.968 27.0509H491.657L491.657 27.0506Z" fill="black"/>
<path d="M528.373 29.4716C529.179 27.1277 529.984 24.784 530.79 22.4376H534.624C533.094 26.2095 531.575 29.9566 530.053 33.7088H526.605C525.085 29.9605 523.565 26.2137 522.035 22.4399H525.869C526.685 24.7852 527.502 27.1338 528.319 29.4826C528.337 29.4789 528.355 29.4752 528.373 29.4716H528.373Z" fill="black"/>
<path d="M516.058 33.3369C515.629 33.5457 515.19 33.6636 514.743 33.7492C514.093 33.8734 513.436 33.9192 512.775 33.9021C510.857 33.8523 509.44 32.4992 509.298 30.5761C509.279 30.332 509.27 30.0866 509.269 29.842C509.26 26.3456 509.253 22.8496 509.246 19.3532C509.246 19.2807 509.246 19.2081 509.246 19.1412C509.443 19.0851 512.481 19.0755 512.767 19.1299C512.796 20.212 512.767 21.3023 512.815 22.4174H515.971V25.3015C515.708 25.3297 515.45 25.3121 515.192 25.315C514.932 25.3182 514.672 25.3158 514.411 25.3158H513.63C513.37 25.3158 513.111 25.3158 512.829 25.3158C512.819 25.4003 512.805 25.4697 512.805 25.5391C512.804 26.8216 512.801 28.1042 512.808 29.3866C512.809 29.5881 512.839 29.7964 512.896 29.9891C513.065 30.5523 513.507 30.8768 514.092 30.9006C514.694 30.9254 515.276 30.8312 515.836 30.6094C515.896 30.5859 515.957 30.567 516.057 30.5314C516.059 31.4832 516.059 32.4082 516.057 33.3366L516.058 33.3369Z" fill="black"/>
<path d="M475.987 19.1064H479.507C479.522 20.2049 479.537 21.2939 479.552 22.4101H482.681C482.736 22.6123 482.753 24.8599 482.708 25.2965C482.458 25.3371 482.2 25.3104 481.944 25.3148C481.675 25.3195 481.406 25.3158 481.138 25.3158H480.356C480.097 25.3158 479.838 25.3158 479.557 25.3158C479.55 25.4146 479.538 25.4928 479.538 25.5707C479.537 26.8124 479.534 28.0543 479.541 29.296C479.542 29.5144 479.563 29.7394 479.619 29.9495C479.777 30.5374 480.228 30.8772 480.834 30.9009C481.436 30.9244 482.018 30.8303 482.579 30.6092C482.625 30.5913 482.67 30.574 482.717 30.5595C482.731 30.5551 482.749 30.5607 482.781 30.5629V33.3426C482.704 33.3778 482.619 33.4223 482.53 33.4563C481.768 33.7475 480.973 33.861 480.165 33.8973C479.66 33.9201 479.154 33.9183 478.661 33.7835C477.208 33.3865 476.37 32.4195 476.089 30.9523C476.042 30.7056 476.027 30.4494 476.024 30.1972C476.011 29.1274 476.005 28.0572 476.002 26.9872C475.995 24.471 475.992 21.9547 475.988 19.4385C475.988 19.3346 475.988 19.2307 475.988 19.1062L475.987 19.1064Z" fill="black"/>
<path d="M471.365 25.316C471.36 25.419 471.354 25.4755 471.354 25.5322C471.353 26.8146 471.349 28.0969 471.358 29.3793C471.36 29.5884 471.394 29.8043 471.455 30.0041C471.625 30.5578 472.058 30.8734 472.636 30.9002C473.246 30.9283 473.835 30.832 474.404 30.6073C474.463 30.584 474.524 30.566 474.605 30.5386V33.3392C474.524 33.3759 474.432 33.4239 474.335 33.4604C473.573 33.7502 472.778 33.8621 471.97 33.8975C471.472 33.9193 470.976 33.9171 470.49 33.787C469.089 33.4107 468.25 32.495 467.928 31.0864C467.825 30.6364 467.831 30.1785 467.83 29.7212C467.827 28.1612 467.824 26.6011 467.822 25.041C467.819 23.767 467.818 22.4927 467.814 21.2187C467.812 20.6062 467.806 19.9937 467.804 19.3812C467.804 19.2937 467.813 19.2059 467.818 19.1074H471.326C471.364 20.2069 471.336 21.2969 471.367 22.4133H474.515V25.3081C474.259 25.3106 474.002 25.3138 473.745 25.315C473.477 25.3163 473.208 25.3153 472.94 25.3153H472.158C471.9 25.3153 471.641 25.3153 471.364 25.3153L471.365 25.316Z" fill="black"/>
<path d="M517.563 22.4443C518.749 23.1331 519.908 23.1355 521.062 22.4593C521.117 22.6745 521.124 33.4464 521.073 33.7047H517.563V22.4443Z" fill="black"/>
<path d="M519.292 21.5526C519.046 21.5036 518.793 21.4771 518.555 21.4019C517.659 21.1181 517.086 20.2994 517.139 19.4036C517.197 18.4465 517.825 17.7227 518.772 17.5266C519.209 17.4359 519.644 17.4475 520.074 17.5732C520.912 17.8188 521.469 18.5055 521.515 19.3472C521.563 20.2431 521.089 21.0068 520.273 21.3455C519.961 21.4752 519.633 21.5264 519.292 21.5526Z" fill="black"/>
<path d="M549.813 22.6436C549.845 23.7571 549.008 24.5309 547.773 24.4231C547.495 24.3988 547.228 24.3255 546.986 24.1806C546.502 23.8914 546.252 23.451 546.192 22.9002C546.171 22.7071 546.17 22.5054 546.202 22.3145C546.323 21.5897 546.745 21.1284 547.457 20.9438C547.826 20.8483 548.197 20.8458 548.568 20.9409C549.305 21.1301 549.763 21.6843 549.813 22.4478C549.817 22.5127 549.813 22.5782 549.813 22.6436ZM547.976 24.112C548.823 24.1289 549.442 23.5449 549.448 22.6921C549.455 21.6436 548.75 21.2032 548.087 21.1968C547.193 21.1884 546.601 21.7475 546.582 22.6294C546.564 23.5064 547.117 24.0946 547.976 24.1117V24.112Z" fill="black"/>
<path d="M548.443 23.5772C548.324 23.3891 548.198 23.1901 548.064 22.9784H547.808V23.5765H547.335C547.302 22.9757 547.318 22.3701 547.311 21.7348C547.674 21.7315 548.012 21.676 548.349 21.7365C548.813 21.82 548.998 22.3512 548.701 22.7245C548.655 22.7811 548.601 22.8304 548.54 22.8941C548.612 23.0041 548.681 23.1122 548.751 23.22C548.821 23.3284 548.891 23.4367 548.983 23.5774H548.443V23.5772ZM547.792 22.1044C547.791 22.1179 547.791 22.559 547.791 22.5693C547.904 22.5634 548.054 22.571 548.162 22.5485C548.285 22.5227 548.357 22.4061 548.344 22.294C548.333 22.1901 548.253 22.1171 548.123 22.1061C548.02 22.0975 547.916 22.1044 547.792 22.1044Z" fill="black"/>
<path d="M638.652 35.4133C637.024 35.4637 635.397 35.1112 633.871 34.4567L634.278 31.4356C635.6 32.0902 637.075 32.4427 638.55 32.4427C639.517 32.4427 640.127 32.1406 640.127 31.5364C640.127 29.8747 634.125 30.2776 634.125 25.9977C634.125 23.2284 636.668 21.8186 639.873 21.8186C641.347 21.869 642.822 22.1207 644.196 22.6242L643.789 25.5949C642.517 25.0914 641.195 24.8396 639.873 24.7893C639.11 24.7893 638.448 25.041 638.448 25.5446C638.448 27.1558 644.603 26.8537 644.603 31.0328C644.603 33.8524 642.11 35.4637 638.652 35.4133ZM655.284 35.1616V27.7097C655.284 25.9977 654.52 25.1921 653.097 25.1921C652.436 25.1921 651.723 25.3432 651.164 25.6956V35.1616H646.688V22.2717L651.062 21.9193L650.96 24.0341H651.113C652.181 22.6242 653.808 21.8186 655.588 21.8186C657.878 21.8186 659.861 23.2284 659.861 26.5013V35.1616H655.284ZM670.593 22.1207H675.017L669.83 35.0609C668.304 38.9379 666.066 41.6065 662.76 41.6065C661.743 41.6065 660.776 41.4051 659.861 40.9519L661.59 38.233C661.844 38.2834 662.15 38.2833 662.404 38.2833C663.93 38.2833 665.049 36.8232 665.812 35.1112L660.421 22.1207H665.405L667.338 27.911C667.643 28.9684 667.846 30.0258 667.999 31.1335C668.203 30.0761 668.406 29.0188 668.711 28.0118L670.593 22.1207ZM684.783 35.1616L681.223 29.0188H680.867V35.1616H676.391V19.9053L680.867 13.0072V27.2565C681.731 26.1991 684.732 22.1207 684.732 22.1207H690.225L684.987 27.5586L690.378 35.1616H684.783Z" fill="black"/>
<path fill-rule="evenodd" clip-rule="evenodd" d="M604.219 30.328C603.863 29.4216 604.168 25.6957 604.524 22.7249L603.1 18.8982V18.6969C603.151 18.0423 603.252 17.3877 603.507 16.7835C602.54 16.985 601.574 17.2367 600.608 17.5388V38.082L604.88 41.103L605.795 32.6944C605.185 31.9895 604.676 31.1839 604.219 30.328ZM622.987 18.7472C622.936 18.0926 622.834 17.4381 622.58 16.8339C623.546 17.0353 624.512 17.2871 625.479 17.6395V38.1827L621.257 41.2037L620.342 32.7951C620.952 32.0902 621.461 31.2846 621.868 30.4286C622.224 29.5223 621.918 25.7963 621.562 22.8257L622.987 18.999V18.7472ZM613.069 18.294C612.153 18.294 611.288 18.4451 610.424 18.6969L609.966 17.9919L609.661 15.9779C610.78 15.8772 611.899 15.8772 613.069 15.8772C614.391 15.8772 616.425 15.9779 616.425 15.9779L616.12 17.9919L615.663 18.6969C614.798 18.4955 613.933 18.3444 613.069 18.294ZM617.697 33.5001L617.799 33.3993C618.104 33.0469 618.46 32.5434 618.816 32.0902L616.883 31.5364L615.001 29.3713L614.696 34.8091C614.9 35.1112 615.052 35.4134 615.154 35.7658C615.154 36.1183 614.594 36.6218 614.035 37.0246C613.832 36.6721 613.577 36.6218 613.475 36.8736C613.425 37.0749 613.425 37.2764 613.425 37.4778V37.9813C613.73 38.6358 614.34 39.0387 615.052 39.089C615.968 39.089 616.781 38.5351 617.036 37.6792C617.443 36.37 617.646 35.061 617.595 33.7014L617.697 33.5001ZM610.831 39.8946C610.932 41.0024 612.204 41.4051 613.018 41.4051C613.882 41.4051 615.052 41.0024 615.205 39.8946H615.154C615.001 39.8946 614.9 39.8946 614.747 39.8946C614.391 40.5492 613.73 40.9016 612.967 40.8513C612.255 40.9016 611.543 40.5492 611.238 39.8946C611.136 39.8946 611.034 39.8946 610.932 39.8946H610.831ZM608.389 33.6511C608.389 35.0106 608.593 36.3197 609 37.6288C609.254 38.4848 610.068 39.089 610.983 39.0387C611.695 39.0387 612.306 38.5855 612.611 37.9813V37.4778C612.611 37.2764 612.611 37.0749 612.56 36.8736C612.458 36.6218 612.204 36.6721 612 37.0246C611.441 36.6218 610.882 36.1686 610.882 35.7658C610.983 35.4134 611.136 35.1112 611.339 34.8091L611.085 29.3713L609.203 31.486L608.033 31.8385C607.423 31.1335 606.914 30.3783 606.457 29.5726C606.355 29.1195 606.507 26.1488 606.914 22.7249L606.965 22.4732L606.711 21.869C607.321 21.164 607.881 20.3081 608.237 19.4522L609.508 21.5165L610.424 21.1137C611.238 20.7612 612.153 20.5598 613.069 20.5598V19.9053C612.051 19.9556 611.034 20.157 610.119 20.5598L609.763 20.7109L608.491 18.5961L608.237 17.2871L607.881 18.294C607.474 19.5528 606.813 20.6606 605.948 21.6676L605.846 21.7682L606.151 22.5739V22.6745C605.897 25.0915 605.541 29.1195 605.694 29.8244C605.897 30.3783 607.372 32.2916 608.288 33.3993L608.389 33.5001V33.6511ZM607.321 12.6547C606.202 14.8701 605.032 17.5388 604.982 18.5961L605.592 20.3081C606.965 18.4451 607.474 15.4241 607.626 14.6688L607.321 12.6547ZM609.101 24.9907C607.779 24.9907 608.745 26.0984 608.898 26.2495H611.441C610.882 25.4942 610.017 25.0411 609.101 24.9907ZM609.203 27.5587C609.305 27.5587 609.407 27.5083 609.457 27.4076C609.508 27.3069 609.508 27.1558 609.407 27.1055H608.593V27.1558C608.644 27.76 609.152 28.1629 609.712 28.1125C610.22 28.0621 610.678 27.6593 610.678 27.1558V27.1055H609.864C609.966 27.1558 610.017 27.2566 610.068 27.3572C610.119 27.5587 610.068 27.8104 609.864 27.9111C609.763 27.9614 609.661 28.0118 609.559 27.9614C609.407 27.9111 609.203 27.76 609.203 27.5587ZM614.137 39.7436C613.933 39.6932 613.781 39.5925 613.628 39.4918C613.272 39.7436 612.763 39.7436 612.356 39.4918C612.204 39.5925 612.051 39.6932 611.848 39.7436C612.509 40.3478 613.475 40.3478 614.137 39.7436ZM615.968 27.5083C616.069 27.5083 616.171 27.4579 616.222 27.3572C616.273 27.2566 616.222 27.1558 616.171 27.0551H615.357V27.1055C615.357 27.6593 615.815 28.1629 616.425 28.1629C616.985 28.1629 617.493 27.7097 617.493 27.1055V27.0551H616.68C616.731 27.1055 616.781 27.1558 616.832 27.2062C616.883 27.3069 616.883 27.3572 616.883 27.4579C616.883 27.5587 616.883 27.609 616.832 27.6593C616.781 27.7097 616.731 27.8104 616.68 27.8104C616.629 27.8608 616.527 27.8608 616.476 27.9111C616.425 27.9111 616.324 27.9111 616.273 27.8608C616.222 27.8104 616.12 27.8104 616.069 27.7097C616.019 27.7097 615.968 27.609 615.968 27.5083ZM617.188 26.2495C617.29 26.0984 618.307 24.9907 616.985 24.9907C616.069 25.0411 615.205 25.4942 614.645 26.2495H617.188ZM621.105 18.6465C621.003 17.5388 619.833 14.9205 618.765 12.7051L618.511 14.568C618.562 14.8701 619.019 18.2437 620.494 20.3081L621.105 18.6465ZM620.85 22.7249C621.308 26.753 621.461 29.5223 621.206 30.1265C620.749 31.0329 620.138 31.8385 619.528 32.644L620.494 41.7072L619.884 42.1101L613.069 46.9437L607.372 42.9156L607.982 37.226C607.728 36.1686 607.576 35.061 607.525 33.9532L606.609 42.3618L605.643 41.6569L606.66 32.5937C605.999 31.7881 605.439 30.9825 604.931 30.0762C604.676 29.472 604.829 26.753 605.287 22.6745V22.6242L603.863 18.7976V18.6969C603.863 17.0353 606.05 12.5541 607.372 10.1372L607.982 8.97913L609.254 18.2437L610.068 19.5528L610.271 19.5025C611.136 19.2004 612.102 18.999 613.018 18.999C613.984 19.0493 614.9 19.2004 615.764 19.5025L615.968 19.5528L616.781 18.2437L618.104 8.97913L618.714 10.1372C620.037 12.5037 622.224 17.0353 622.224 18.6969V18.7976L620.85 22.7249Z" fill="black"/>
<path d="M739.116 17.9186C739.116 15.1998 741.32 12.9957 744.039 12.9957H748.962V22.8415H744.039C741.32 22.8415 739.116 20.6374 739.116 17.9186Z" stroke="black" stroke-width="1.69156"/>
<path d="M739.116 27.8078C739.116 25.0889 741.32 22.8849 744.039 22.8849H748.962V32.7306H744.039C741.32 32.7306 739.116 30.5266 739.116 27.8078Z" stroke="black" stroke-width="1.69156"/>
<path d="M739.116 38.521C739.116 35.8022 741.32 33.5981 744.039 33.5981H748.962V38.7803C748.962 41.356 746.874 43.444 744.298 43.444H744.039C741.32 43.444 739.116 41.2399 739.116 38.521Z" stroke="black" stroke-width="1.69156"/>
<path d="M749.005 12.9957H753.927C756.646 12.9957 758.85 15.1998 758.85 17.9186C758.85 20.6374 756.646 22.8415 753.927 22.8415H749.005V12.9957Z" stroke="black" stroke-width="1.69156"/>
<path d="M749.005 27.8078C749.005 25.0889 751.209 22.8849 753.927 22.8849C756.646 22.8849 758.85 25.0889 758.85 27.8078C758.85 30.5266 756.646 32.7306 753.927 32.7306C751.209 32.7306 749.005 30.5266 749.005 27.8078Z" stroke="black" stroke-width="1.69156"/>
<path d="M753.105 23.2749L750.22 24.9232C750.083 25.3352 749.314 27.8899 748.984 28.2195C748.655 28.5492 749.122 24.7857 749.396 22.8629L753.105 23.2749Z" fill="black"/>
<path d="M772.011 17.6648V35.1583L774.265 35.1755V26.8411H779.701V24.6415H774.265V19.8644H781.335V17.6648H772.011ZM785.395 21.2219C786.204 21.2219 786.875 20.569 786.875 19.7441C786.875 18.9192 786.221 18.2663 785.395 18.2663C784.587 18.2663 783.916 18.9192 783.916 19.7441C783.916 20.569 784.57 21.2219 785.395 21.2219ZM784.243 23.4215V35.1755H786.497V23.4215H784.243ZM794.857 23.0779C791.864 23.0779 789.782 25.6039 789.782 28.6111C789.782 31.6184 791.864 34.1444 794.857 34.1444C796.234 34.1444 797.352 33.6289 798.178 32.7525V34.3162C798.195 36.258 796.647 37.8733 794.685 37.8906C794.668 37.8906 794.668 37.8906 794.651 37.8906C793.929 37.8906 793.223 37.6157 792.655 37.2204L791.52 39.1794C794.204 40.915 797.782 40.1417 799.503 37.461C800.105 36.5158 800.431 35.4333 800.431 34.3162V23.4387H798.178V24.4869C797.352 23.6105 796.234 23.0779 794.857 23.0779ZM792.036 28.6111C792.036 26.7381 793.464 25.2774 795.115 25.2774C796.767 25.2774 798.178 26.7553 798.178 28.6111C798.178 30.4842 796.75 31.9277 795.115 31.9277C793.464 31.9277 792.036 30.467 792.036 28.6111ZM808.552 25.2774C807.21 25.2946 806.126 26.3943 806.143 27.7347V35.1583H803.889V23.4043H806.143V24.4869C806.831 23.5762 807.898 23.0607 809.05 23.0779C810.634 23.0779 811.855 23.8511 812.543 25.054C813.335 23.8339 814.676 23.095 816.122 23.0779C818.685 23.0779 820.284 25.1399 820.284 27.7003V35.1583H818.048V27.7347C818.048 26.3943 816.982 25.2946 815.64 25.2774C814.298 25.2946 813.214 26.3943 813.231 27.7347V35.1583H810.96V27.7347C810.96 26.3943 809.894 25.2946 808.552 25.2774ZM832.292 24.7447C831.261 23.6621 829.815 23.0607 828.319 23.0779C824.964 23.0779 822.59 25.9132 822.59 29.2813C822.59 32.6666 824.964 35.4848 828.319 35.4848C829.815 35.4848 831.243 34.8833 832.292 33.8179V35.1583H834.546V23.4043H832.292V24.7447ZM824.844 29.2813C824.844 27.0474 826.564 25.2602 828.577 25.2602C830.573 25.2774 832.292 27.0474 832.292 29.2813C832.292 31.5152 830.573 33.2852 828.56 33.2852C826.581 33.3024 824.844 31.5324 824.844 29.2813Z" fill="black"/>
<path d="M895.091 12.5038C886.294 12.5038 879.163 19.5886 879.163 28.328C879.163 37.0677 886.294 44.1519 895.091 44.1519C903.888 44.1519 911.018 37.0677 911.018 28.328C911.018 19.5892 903.888 12.5046 895.09 12.5046L895.091 12.5038ZM902.395 35.3268C902.109 35.7917 901.497 35.939 901.029 35.6537C897.29 33.3842 892.582 32.8703 887.038 34.1288C886.504 34.2497 885.971 33.9171 885.849 33.3861C885.727 32.8551 886.06 32.3261 886.596 32.2051C892.663 30.8279 897.867 31.4209 902.066 33.97C902.534 34.2553 902.682 34.8619 902.395 35.3268ZM904.344 31.0181C903.985 31.5986 903.22 31.7818 902.636 31.4247C898.355 28.8102 891.829 28.053 886.765 29.5802C886.108 29.7773 885.415 29.4096 885.215 28.7583C885.018 28.1058 885.388 27.4179 886.044 27.2195C891.828 25.4757 899.019 26.3204 903.935 29.3221C904.519 29.6792 904.704 30.4389 904.344 31.0182V31.0181ZM904.512 26.5313C899.378 23.5021 890.909 23.2235 886.008 24.7014C885.221 24.9386 884.389 24.4971 884.15 23.7152C883.912 22.9329 884.356 22.1065 885.143 21.8688C890.769 20.1719 900.122 20.4998 906.032 23.9856C906.741 24.403 906.973 25.3113 906.553 26.0137C906.135 26.7171 905.218 26.9489 904.512 26.5313H904.512ZM922.496 27.1118C919.746 26.4602 919.257 26.003 919.257 25.0421C919.257 24.1343 920.117 23.5234 921.397 23.5234C922.637 23.5234 923.865 23.9873 925.155 24.9423C925.193 24.9713 925.242 24.9827 925.29 24.9752C925.339 24.968 925.381 24.9417 925.41 24.9023L926.752 23.0217C926.808 22.9442 926.792 22.8375 926.718 22.7783C925.183 21.5551 923.456 20.9605 921.437 20.9605C918.468 20.9605 916.393 22.7309 916.393 25.2639C916.393 27.9803 918.182 28.9421 921.275 29.6846C923.905 30.2868 924.35 30.7913 924.35 31.693C924.35 32.6927 923.453 33.3143 922.007 33.3143C920.402 33.3143 919.092 32.7757 917.627 31.5173C917.591 31.4852 917.542 31.4719 917.496 31.4739C917.446 31.4776 917.403 31.5003 917.372 31.5362L915.866 33.3162C915.803 33.3918 915.811 33.5014 915.883 33.5656C917.587 35.0773 919.683 35.8747 921.946 35.8747C925.145 35.8747 927.213 34.1382 927.213 31.4493C927.219 29.1804 925.851 27.9238 922.502 27.1143L922.496 27.1118ZM934.451 24.4172C933.065 24.4172 931.928 24.9599 930.988 26.0719V24.8202C930.988 24.7214 930.908 24.6409 930.809 24.6409H928.346C928.247 24.6409 928.168 24.7214 928.168 24.8202V38.7281C928.168 38.8263 928.247 38.9076 928.346 38.9076H930.809C930.908 38.9076 930.988 38.8263 930.988 38.7281V34.3385C931.928 35.3835 933.065 35.8955 934.451 35.8955C937.029 35.8955 939.638 33.9246 939.638 30.1569C939.642 26.3885 937.032 24.417 934.453 24.417L934.451 24.4172ZM936.774 30.1569C936.774 32.0747 935.585 33.4144 933.881 33.4144C932.198 33.4144 930.927 32.0143 930.927 30.1569C930.927 28.2994 932.198 26.8996 933.881 26.8996C935.557 26.8994 936.774 28.269 936.774 30.1568V30.1569ZM946.323 24.4172C943.004 24.4172 940.404 26.9561 940.404 30.1979C940.404 33.4051 942.987 35.9164 946.284 35.9164C949.614 35.9164 952.221 33.3861 952.221 30.1569C952.221 26.9387 949.631 24.4176 946.323 24.4176V24.4172ZM946.323 33.4333C944.558 33.4333 943.227 32.0237 943.227 30.156C943.227 28.2798 944.513 26.9183 946.284 26.9183C948.06 26.9183 949.398 28.3274 949.398 30.197C949.398 32.0728 948.106 33.4333 946.323 33.4333ZM959.308 24.6409H956.598V21.8885C956.598 21.7899 956.518 21.7093 956.418 21.7093H953.955C953.857 21.7093 953.775 21.7899 953.775 21.8885V24.6409H952.592C952.493 24.6409 952.413 24.7214 952.413 24.8202V26.9228C952.413 27.0215 952.493 27.1022 952.592 27.1022H953.775V32.5434C953.775 34.741 954.876 35.8558 957.05 35.8558C957.933 35.8558 958.664 35.6745 959.355 35.2852C959.412 35.255 959.446 35.1945 959.446 35.1303V33.1272C959.446 33.0668 959.414 33.0082 959.361 32.9761C959.308 32.9421 959.241 32.9402 959.186 32.9685C958.713 33.2047 958.254 33.3143 957.741 33.3143C956.951 33.3143 956.598 32.9572 956.598 32.1597V27.1031H959.308C959.406 27.1031 959.487 27.0226 959.487 26.9238V24.8214C959.49 24.7226 959.41 24.642 959.309 24.642L959.308 24.6409ZM968.749 24.6517V24.3137C968.749 23.3191 969.133 22.8756 969.993 22.8756C970.506 22.8756 970.919 22.9769 971.381 23.13C971.438 23.1477 971.497 23.1389 971.543 23.105C971.59 23.0712 971.617 23.017 971.617 22.9595V20.8979C971.617 20.8192 971.567 20.7494 971.49 20.7262C971.003 20.582 970.379 20.434 969.443 20.434C967.17 20.434 965.966 21.7065 965.966 24.1125V24.6303H964.783C964.684 24.6303 964.603 24.7109 964.603 24.8094V26.9228C964.603 27.0215 964.684 27.1022 964.783 27.1022H965.966V35.493C965.966 35.5932 966.048 35.6725 966.147 35.6725H968.608C968.709 35.6725 968.789 35.5932 968.789 35.493V27.1027H971.088L974.611 35.493C974.211 36.3736 973.818 36.5494 973.281 36.5494C972.847 36.5494 972.389 36.4209 971.923 36.1658C971.879 36.1431 971.826 36.1393 971.78 36.1525C971.733 36.1696 971.693 36.2036 971.674 36.2489L970.839 38.0686C970.799 38.1556 970.833 38.2557 970.917 38.301C971.788 38.7697 972.574 38.9699 973.546 38.9699C975.364 38.9699 976.37 38.1272 977.254 35.8634L981.526 24.8965C981.549 24.8414 981.541 24.7791 981.507 24.7301C981.474 24.6816 981.419 24.6523 981.36 24.6523H978.796C978.719 24.6523 978.65 24.7009 978.625 24.7725L975.999 32.224L973.123 24.7675C973.096 24.6981 973.03 24.6523 972.956 24.6523H968.749V24.6517ZM963.275 24.6409H960.812C960.713 24.6409 960.632 24.7214 960.632 24.8202V35.493C960.632 35.5932 960.713 35.6725 960.812 35.6725H963.275C963.374 35.6725 963.456 35.5932 963.456 35.493V24.821C963.456 24.7222 963.376 24.6416 963.275 24.6416V24.6409ZM962.058 19.781C961.082 19.781 960.291 20.5656 960.291 21.5347C960.291 22.5045 961.082 23.29 962.058 23.29C963.033 23.29 963.823 22.5045 963.823 21.5347C963.823 20.5657 963.032 19.781 962.058 19.781ZM983.63 28.0727C982.655 28.0727 981.897 27.2951 981.897 26.3509C981.897 25.4066 982.665 24.6201 983.639 24.6201C984.613 24.6201 985.372 25.3975 985.372 26.341C985.372 27.2852 984.603 28.0727 983.63 28.0727ZM983.639 24.7913C982.751 24.7913 982.079 25.4924 982.079 26.3509C982.079 27.2089 982.747 27.9005 983.63 27.9005C984.518 27.9005 985.189 27.2001 985.189 26.341C985.189 25.4829 984.522 24.7913 983.639 24.7913ZM984.023 26.518L984.514 27.1998H984.099L983.658 26.5744H983.279V27.1998H982.934V25.3926H983.743C984.167 25.3926 984.446 25.6075 984.446 25.9691C984.447 26.2654 984.274 26.4464 984.025 26.518H984.023ZM983.73 25.7027H983.279V26.2743H983.73C983.954 26.2743 984.09 26.1649 984.09 25.9882C984.09 25.8023 983.954 25.7027 983.73 25.7027Z" fill="black"/>
<path d="M1040.26 41.1621C1040.26 32.6066 1040.26 24.0893 1040.26 15.5562C1049.02 15.5562 1057.75 15.5562 1066.52 15.5562C1066.53 15.6276 1066.55 15.7001 1066.55 15.7726C1066.55 24.1362 1066.55 32.4992 1066.55 40.8628C1066.55 41.0885 1066.48 41.167 1066.24 41.167C1057.68 41.161 1049.12 41.1621 1040.56 41.1621C1040.47 41.1621 1040.38 41.1621 1040.26 41.1621ZM1053.39 38.4613C1056.75 38.4613 1060.12 38.4629 1063.48 38.452C1063.58 38.4515 1063.76 38.3179 1063.76 38.2459C1063.77 31.6684 1063.77 25.0902 1063.78 18.5127C1063.78 18.281 1063.7 18.2052 1063.46 18.2052C1056.76 18.2095 1050.06 18.2101 1043.35 18.2046C1043.08 18.2046 1043 18.2995 1043 18.5546C1043.01 25.0826 1043.01 31.61 1043 38.138C1043 38.3909 1043.09 38.4651 1043.34 38.4646C1046.69 38.4591 1050.04 38.4613 1053.39 38.4613Z" fill="black"/>
<path d="M1088.41 26.1964C1088.41 25.8437 1088.43 25.5841 1088.41 25.3268C1088.39 25.0422 1088.5 24.9392 1088.79 24.9452C1089.49 24.9599 1090.18 24.9545 1090.88 24.9479C1091.1 24.9457 1091.19 25.0368 1091.19 25.257C1091.19 28.5461 1091.19 31.8351 1091.18 35.1242C1091.18 35.2196 1091 35.3941 1090.9 35.3968C1090.17 35.4202 1089.43 35.4202 1088.7 35.3968C1088.6 35.3935 1088.45 35.2289 1088.43 35.1198C1088.38 34.8827 1088.41 34.633 1088.41 34.3501C1088.09 34.5747 1087.84 34.7856 1087.56 34.9378C1086.33 35.5963 1085.03 35.6699 1083.7 35.3625C1082.3 35.0381 1081.31 34.1783 1080.66 32.9408C1080.18 32.0211 1080 31.0293 1080.03 30.0001C1080.08 28.5265 1080.52 27.1962 1081.61 26.1446C1082.76 25.0411 1084.17 24.6922 1085.74 24.8836C1086.75 25.0068 1087.63 25.3879 1088.41 26.1964ZM1088.42 30.1789C1088.45 30.1663 1088.49 30.1543 1088.52 30.1418C1088.35 29.5999 1088.25 29.0242 1088 28.5215C1087.21 26.9569 1084.7 26.6799 1083.56 28.0227C1082.76 28.962 1082.7 30.0639 1082.96 31.206C1083.45 33.2722 1085.83 33.5557 1087.12 32.7538C1088.08 32.1606 1088.41 31.2404 1088.42 30.1789Z" fill="black"/>
<path d="M1102.92 25.8966C1103.22 25.6894 1103.49 25.4746 1103.79 25.3165C1104.72 24.8193 1105.74 24.7179 1106.77 24.8553C1108 25.0183 1109.02 25.5619 1109.76 26.5672C1110.3 27.3211 1110.59 28.1694 1110.59 29.0913C1110.6 31.1041 1110.59 33.1164 1110.6 35.1292C1110.6 35.3298 1110.52 35.4149 1110.3 35.4126C1109.59 35.4056 1108.88 35.4029 1108.18 35.4132C1107.93 35.4171 1107.86 35.32 1107.86 35.097C1107.86 33.2526 1107.88 31.4078 1107.86 29.5635C1107.85 28.7539 1107.65 27.9901 1106.93 27.4836C1105.73 26.6364 1103.43 26.94 1103.02 28.9059C1102.93 29.3339 1102.89 29.7782 1102.89 30.216C1102.88 31.8423 1102.88 33.4691 1102.89 35.0953C1102.89 35.3216 1102.81 35.416 1102.57 35.4132C1101.86 35.405 1101.15 35.4067 1100.44 35.4115C1100.22 35.4132 1100.13 35.3195 1100.13 35.1003C1100.13 30.6614 1100.13 26.2231 1100.13 21.7843C1100.13 21.5706 1100.21 21.4795 1100.43 21.4806C1101.16 21.4856 1101.89 21.4735 1102.62 21.4942C1102.71 21.497 1102.87 21.6584 1102.87 21.7478C1102.89 23.0513 1102.88 24.3554 1102.89 25.6594C1102.89 25.7352 1102.9 25.811 1102.92 25.8966Z" fill="black"/>
<path d="M1069.2 28.7598C1069.2 26.6608 1069.21 24.5625 1069.2 22.4636C1069.2 22.1904 1069.29 22.1015 1069.57 22.1032C1071.1 22.1136 1072.63 22.1075 1074.16 22.1087C1075.12 22.1092 1076.05 22.2166 1076.93 22.6222C1078.01 23.1226 1078.74 23.9306 1079.09 25.0488C1079.42 26.1037 1079.41 27.1668 1079.07 28.2141C1078.74 29.2494 1078.08 30.0361 1077.08 30.5425C1076.24 30.9749 1075.33 31.1292 1074.38 31.1117C1073.7 31.0992 1073.01 31.1204 1072.32 31.104C1072.05 31.0975 1071.97 31.1962 1071.98 31.4513C1071.99 32.6594 1071.98 33.8682 1071.98 35.0763C1071.99 35.3237 1071.89 35.4159 1071.64 35.4126C1070.95 35.4028 1070.26 35.4022 1069.57 35.4126C1069.3 35.4164 1069.2 35.3254 1069.2 35.0555C1069.21 32.9577 1069.2 30.8588 1069.2 28.7598ZM1071.98 26.6298C1071.98 27.3293 1071.97 28.0293 1071.99 28.7282C1072 28.8215 1072.16 28.9839 1072.25 28.9877C1072.83 29.0117 1073.42 29.0378 1074 28.9877C1074.48 28.9457 1074.99 28.8738 1075.43 28.6835C1076.19 28.3482 1076.42 27.6411 1076.51 26.8746C1076.7 25.3852 1075.77 24.3166 1074.24 24.2915C1073.57 24.2806 1072.9 24.279 1072.24 24.2992C1072.15 24.3019 1071.99 24.4573 1071.99 24.545C1071.97 25.2396 1071.98 25.9353 1071.98 26.6298Z" fill="black"/>
<path d="M1093.71 29.8197C1093.71 29.0292 1093.72 28.2387 1093.7 27.4487C1093.7 27.3844 1093.59 27.2737 1093.52 27.2677C1093.26 27.2454 1092.99 27.2819 1092.73 27.2437C1092.63 27.2285 1092.47 27.0797 1092.46 26.9864C1092.44 26.3971 1092.44 25.8056 1092.46 25.2156C1092.47 25.1241 1092.62 24.9774 1092.72 24.9627C1092.97 24.9256 1093.24 24.966 1093.5 24.9382C1093.58 24.9294 1093.7 24.8024 1093.7 24.7272C1093.72 23.9285 1093.71 23.1287 1093.72 22.3301C1093.72 22.2554 1093.86 22.1212 1093.94 22.1196C1094.72 22.1038 1095.49 22.1032 1096.27 22.1218C1096.35 22.1235 1096.47 22.2913 1096.47 22.384C1096.49 23.1467 1096.49 23.91 1096.48 24.6732C1096.47 24.8787 1096.54 24.9556 1096.75 24.9518C1097.37 24.9414 1097.98 24.9371 1098.59 24.961C1098.69 24.9649 1098.85 25.1252 1098.85 25.2184C1098.88 25.799 1098.86 26.3807 1098.87 26.9619C1098.87 27.1691 1098.8 27.265 1098.57 27.2606C1097.95 27.2498 1097.33 27.2487 1096.72 27.2677C1096.63 27.2705 1096.49 27.4122 1096.49 27.4907C1096.48 28.9578 1096.48 30.4254 1096.48 31.8925C1096.49 32.7179 1096.88 33.0919 1097.73 33.0984C1098.03 33.1006 1098.34 33.0831 1098.63 33.1104C1098.72 33.118 1098.86 33.2489 1098.86 33.3269C1098.88 33.9396 1098.88 34.5535 1098.86 35.1658C1098.86 35.2492 1098.7 35.3991 1098.62 35.3974C1097.85 35.3827 1097.09 35.374 1096.33 35.2998C1095.02 35.1717 1093.98 34.1834 1093.84 32.9032C1093.73 31.8811 1093.71 30.849 1093.65 29.8219C1093.67 29.8219 1093.69 29.8208 1093.71 29.8197Z" fill="black"/>
<path d="M1045.34 26.5143C1045.34 25.1557 1045.34 23.7977 1045.34 22.439C1045.33 22.1948 1045.42 22.0994 1045.68 22.1043C1046.38 22.1174 1047.08 22.1152 1047.78 22.1049C1048.01 22.1016 1048.09 22.19 1048.09 22.4096C1048.09 24.9311 1048.07 27.4525 1048.11 29.9734C1048.11 30.5399 1048.25 31.1287 1048.45 31.663C1048.75 32.4823 1049.46 32.8705 1050.32 32.9632C1051.28 33.0668 1052.19 32.9452 1052.84 32.1411C1053.32 31.537 1053.46 30.8108 1053.46 30.0639C1053.47 27.5337 1053.47 25.0031 1053.46 22.4728C1053.46 22.1839 1053.55 22.0956 1053.84 22.1032C1054.54 22.1218 1055.25 22.0989 1055.94 22.1212C1056.04 22.1245 1056.21 22.2897 1056.22 22.3802C1056.23 24.9648 1056.25 27.5501 1056.22 30.1348C1056.19 31.7147 1055.76 33.1709 1054.5 34.2765C1053.65 35.0239 1052.63 35.3773 1051.51 35.4803C1050.16 35.604 1048.85 35.4732 1047.67 34.7677C1046.79 34.2454 1046.19 33.4893 1045.81 32.5608C1045.42 31.6253 1045.33 30.6451 1045.34 29.6491C1045.34 28.604 1045.34 27.5594 1045.34 26.5143Z" fill="black"/>
<path d="M1058.34 30.1791C1058.34 28.5392 1058.34 26.8988 1058.33 25.2589C1058.33 25.025 1058.42 24.9448 1058.65 24.9471C1059.36 24.9541 1060.06 24.9541 1060.77 24.9476C1061.01 24.9454 1061.1 25.0244 1061.1 25.2736C1061.1 28.5491 1061.1 31.825 1061.1 35.1004C1061.1 35.3359 1061.01 35.4139 1060.78 35.4117C1060.07 35.4063 1059.35 35.4052 1058.64 35.4134C1058.41 35.4161 1058.34 35.3267 1058.34 35.113C1058.34 33.4682 1058.34 31.8234 1058.34 30.1791Z" fill="black"/>
<path d="M1058.03 22.1343C1058.04 21.1639 1058.72 20.4982 1059.72 20.4988C1060.68 20.4993 1061.4 21.2021 1061.4 22.1414C1061.4 23.0726 1060.68 23.7464 1059.7 23.7382C1058.71 23.7306 1058.03 23.0808 1058.03 22.1343Z" fill="black"/>
<path d="M1193.91 37.7581V20.8959C1193.91 20.6535 1194.07 20.4097 1194.4 20.4097H1195.94C1196.18 20.4097 1196.42 20.5718 1196.42 20.8972V37.8385C1196.42 38.0836 1196.26 38.3259 1195.94 38.3259H1194.4C1194.15 38.2456 1193.91 38.0836 1193.91 37.7595V37.7581ZM1199.75 22.4372V20.8155C1199.75 20.5718 1199.91 20.3281 1200.23 20.3281H1201.93C1202.18 20.3281 1202.42 20.4914 1202.42 20.8155V22.4359C1202.42 22.6796 1202.26 22.9233 1201.93 22.9233H1200.23C1199.91 22.9233 1199.75 22.7612 1199.75 22.4359V22.4372ZM1199.83 37.7581V25.7609C1199.83 25.5172 1200.07 25.2735 1200.31 25.2735H1201.77C1202.02 25.2735 1202.26 25.4368 1202.26 25.7609V37.8398C1202.26 38.0836 1202.1 38.3272 1201.77 38.3272H1200.31C1200.07 38.2456 1199.83 38.0836 1199.83 37.7581ZM1205.58 37.7581V25.7609C1205.58 25.5172 1205.75 25.2735 1206.07 25.2735H1207.53C1207.77 25.2735 1208.02 25.4368 1208.02 25.7609V26.5711H1208.1C1208.58 25.9229 1209.39 25.3552 1210.61 25.0298H1210.69C1212.56 24.7874 1214.01 25.1931 1214.99 26.247C1215.8 27.1389 1216.28 28.2731 1216.28 29.8132V37.8385C1216.28 38.0809 1216.12 38.3259 1215.8 38.3259H1214.34C1214.1 38.3259 1213.85 38.1639 1213.85 37.8385V30.4613C1213.85 28.2718 1212.96 27.1349 1211.1 27.1349C1210.2 27.1349 1209.39 27.3787 1208.83 27.9464C1208.26 28.5129 1208.02 29.2441 1208.02 30.1346V37.8359C1208.02 38.0796 1207.85 38.3233 1207.53 38.3233H1206.07C1205.75 38.2443 1205.58 38.0836 1205.58 37.7581ZM1219.12 37.7581V20.8959C1219.12 20.6535 1219.28 20.4097 1219.61 20.4097H1221.07C1221.31 20.4097 1221.55 20.5718 1221.55 20.8972V31.1107H1221.63L1226.74 25.5172C1226.74 25.3552 1226.9 25.2735 1226.99 25.2735H1228.85C1229.26 25.2735 1229.42 25.7609 1229.17 26.0033L1225.45 30.2189C1225.37 30.2927 1225.32 30.3954 1225.32 30.5028C1225.32 30.6101 1225.37 30.7128 1225.45 30.7867L1229.99 37.5975C1230.15 37.9202 1229.99 38.3259 1229.58 38.3259H1227.96C1227.81 38.3219 1227.67 38.2644 1227.55 38.1639L1223.42 32.0026H1223.34L1221.63 33.868C1221.55 33.9497 1221.55 34.0301 1221.55 34.192V37.9202C1221.55 38.1639 1221.39 38.4076 1221.07 38.4076H1219.61C1219.36 38.2456 1219.12 38.0836 1219.12 37.7581H1219.12ZM1232.99 34.192V27.3813H1231.53C1231.28 27.3813 1231.04 27.2192 1231.04 26.8952V25.7609C1231.12 25.5172 1231.28 25.2735 1231.53 25.2735H1233.07V22.5993C1233.07 22.3555 1233.23 22.1118 1233.55 22.1118H1234.93C1235.17 22.1118 1235.42 22.2751 1235.42 22.5993V25.2735H1238.17C1238.42 25.2735 1238.66 25.4368 1238.66 25.7609V26.8952C1238.66 27.1389 1238.5 27.3826 1238.17 27.3826H1235.42V33.9484C1235.42 34.6769 1235.5 35.1643 1235.74 35.4883C1235.98 35.8124 1236.39 35.9757 1237.04 35.9757H1237.61C1237.85 35.9757 1238.09 36.1378 1238.09 36.4619V37.8398C1238.09 38.0836 1237.93 38.3272 1237.61 38.3272H1236.88C1235.5 38.3272 1234.53 38.0032 1233.88 37.3537C1233.31 36.5422 1232.99 35.57 1232.99 34.192ZM1241.25 37.7581V25.7609C1241.25 25.5172 1241.42 25.2735 1241.66 25.2735H1243.04C1243.28 25.2735 1243.52 25.4368 1243.52 25.7609V26.7331H1243.6C1243.85 26.2457 1244.25 25.8412 1244.74 25.5172C1245.23 25.1931 1245.71 25.1115 1246.28 25.1115C1246.52 25.1115 1246.84 25.1115 1247.09 25.1931C1247.33 25.2735 1247.42 25.5172 1247.42 25.6806L1247.17 27.1389C1247.09 27.3813 1246.85 27.5446 1246.61 27.463C1246.44 27.463 1246.28 27.3813 1246.04 27.3813C1244.5 27.3813 1243.69 28.4352 1243.69 30.5429V37.6778C1243.69 37.9202 1243.53 38.1653 1243.2 38.1653H1241.66C1241.42 38.2443 1241.25 38.0836 1241.25 37.7581ZM1258.36 34.0301L1259.41 34.8402C1259.57 35.0022 1259.66 35.246 1259.5 35.4067C1259.01 36.1378 1258.36 36.786 1257.63 37.3537C1256.74 37.9202 1255.6 38.2456 1254.39 38.2456C1252.6 38.2456 1251.15 37.5962 1250.01 36.3802C1248.87 35.1643 1248.31 33.461 1248.31 31.4348C1248.31 29.327 1248.87 27.704 1250.01 26.4881C1251.15 25.2721 1252.52 24.624 1254.31 24.624C1256.01 24.624 1257.47 25.2721 1258.52 26.4881C1259.58 27.704 1260.14 29.4074 1260.14 31.5152V31.7602C1260.14 32.0026 1259.98 32.2463 1259.66 32.2463H1251.23C1250.98 32.2463 1250.74 32.49 1250.74 32.7338C1250.82 33.6256 1251.15 34.4371 1251.63 35.0839C1252.28 35.8125 1253.09 36.2182 1254.23 36.2182C1254.79 36.2182 1255.28 36.1378 1255.69 35.9757C1256.09 35.8125 1256.5 35.57 1256.74 35.3263C1257.06 35.0022 1257.23 34.7598 1257.39 34.5965C1257.47 34.5161 1257.55 34.3541 1257.63 34.2724C1257.79 33.9484 1258.12 33.868 1258.36 34.0301ZM1250.74 30.2189H1257.71C1257.63 29.2467 1257.39 28.3548 1256.82 27.7066C1256.25 26.9768 1255.36 26.6528 1254.22 26.6528C1253.17 26.6528 1252.28 27.0572 1251.71 27.787C1251.06 28.5169 1250.74 29.3283 1250.74 30.2189ZM1272.46 34.0301L1273.52 34.8402C1273.68 35.0022 1273.76 35.246 1273.6 35.4067C1273.11 36.1378 1272.47 36.786 1271.74 37.3537C1270.84 37.9202 1269.71 38.2456 1268.49 38.2456C1266.71 38.2456 1265.25 37.5962 1264.12 36.3802C1262.98 35.1643 1262.41 33.461 1262.41 31.4348C1262.41 29.327 1262.98 27.704 1264.12 26.4881C1265.25 25.2721 1266.63 24.624 1268.41 24.624C1270.12 24.624 1271.57 25.2721 1272.63 26.4881C1273.68 27.704 1274.25 29.4074 1274.25 31.5152V31.7602C1274.25 32.0026 1274.09 32.2463 1273.76 32.2463H1265.33C1265.07 32.2635 1264.86 32.472 1264.84 32.7338C1264.93 33.6256 1265.25 34.4371 1265.74 35.0839C1266.39 35.8125 1267.2 36.2182 1268.33 36.2182C1268.9 36.2182 1269.38 36.1378 1269.79 35.9757C1270.2 35.8125 1270.6 35.57 1270.85 35.3263C1271.17 35.0022 1271.33 34.7598 1271.49 34.5965C1271.57 34.5161 1271.65 34.3541 1271.74 34.2724C1271.9 33.9484 1272.22 33.868 1272.46 34.0301ZM1264.84 30.2189H1271.82C1271.74 29.2467 1271.49 28.3548 1270.92 27.7066C1270.36 26.9768 1269.47 26.6528 1268.33 26.6528C1267.28 26.6528 1266.39 27.0572 1265.82 27.787C1265.17 28.5169 1264.84 29.3283 1264.84 30.2189Z" fill="black"/>
<path d="M1172.78 18.5494C1172.59 18.2108 1172.24 18.0007 1171.85 18.0007C1171.46 18.0007 1171.11 18.2108 1170.92 18.5494L1163.95 31.1962C1163.62 31.8457 1164.11 32.5754 1164.84 32.5754H1169.54V37.3575C1169.54 37.8449 1169.94 38.2507 1170.43 38.2507H1173.19C1173.67 38.2507 1174.08 37.8449 1174.08 37.3588V32.5754H1172.78C1172.26 32.5816 1171.81 32.2016 1171.73 31.6836C1171.73 31.5215 1171.73 31.3595 1171.81 31.1962L1175.7 24.143L1172.78 18.5494Z" fill="black"/>
<path d="M1178.93 18.5494C1179.12 18.2114 1179.48 18.002 1179.87 18.002C1180.25 18.002 1180.61 18.2114 1180.8 18.5494L1187.77 31.1962C1188.09 31.8456 1187.61 32.5755 1186.88 32.5755H1182.26V37.3575C1182.26 37.8449 1181.85 38.2507 1181.37 38.2507H1178.45C1177.96 38.2463 1177.56 37.8496 1177.56 37.3588V32.5755H1178.85C1179.38 32.5817 1179.83 32.2017 1179.91 31.6836C1179.91 31.5216 1179.91 31.3595 1179.83 31.1962L1175.93 24.1443L1178.93 18.5494Z" fill="black"/>
</g>
<defs>
<clipPath id="clip0_0_31">
<rect width="1239" height="55.8016" fill="white" transform="translate(0 0.188965)"/>
</clipPath>
</defs>
</svg>
