<svg width="1239" height="146" viewBox="0 0 1239 146" fill="none" xmlns="http://www.w3.org/2000/svg">
<g clip-path="url(#clip0_0_147)">
<path d="M0.572353 44.7037C9.68856 44.7037 17.0789 37.3136 17.0789 28.1974C17.0789 19.0811 9.68856 11.691 0.572353 11.691C-8.54386 11.691 -15.934 19.0811 -15.934 28.1974C-15.934 37.3136 -8.54386 44.7037 0.572353 44.7037Z" fill="white"/>
<path d="M0.572353 11.691C-8.54347 11.691 -15.934 19.0815 -15.934 28.1974C-15.934 35.1939 -11.5866 41.1714 -5.44597 43.5761C-5.59543 42.2719 -5.71768 40.2612 -5.39163 38.8348C-5.0928 37.5442 -3.4625 30.6291 -3.4625 30.6291C-3.4625 30.6291 -3.95157 29.6374 -3.95157 28.1838C-3.95157 25.8878 -2.62026 24.1761 -0.962828 24.1761C0.450108 24.1761 1.12933 25.2357 1.12933 26.4991C1.12933 27.9121 0.232742 30.0314 -0.242759 32.0013C-0.636786 33.6451 0.585918 34.9901 2.20265 34.9901C5.13705 34.9901 7.392 31.8926 7.392 27.4366C7.392 23.4832 4.55287 20.7253 0.490883 20.7253C-4.2097 20.7253 -6.96759 24.244 -6.96759 27.8849C-6.96759 29.2978 -6.42418 30.8193 -5.74489 31.648C-5.609 31.8111 -5.59543 31.9605 -5.63621 32.1235C-5.75845 32.6398 -6.0438 33.7674 -6.09814 33.9983C-6.16604 34.2972 -6.34263 34.3651 -6.65511 34.2157C-8.72014 33.2511 -10.0107 30.2487 -10.0107 27.817C-10.0107 22.6138 -6.23395 17.8316 0.898401 17.8316C6.61813 17.8316 11.0741 21.9072 11.0741 27.3687C11.0741 33.061 7.48757 37.6392 2.51505 37.6392C0.844059 37.6392 -0.731824 36.7698 -1.26167 35.7373C-1.26167 35.7373 -2.09042 38.8891 -2.29414 39.6635C-2.66096 41.1035 -3.6663 42.8969 -4.3456 43.9972C-2.79685 44.4727 -1.16655 44.7309 0.545221 44.7309C9.6612 44.7309 17.0515 37.3404 17.0515 28.2246C17.0785 19.0815 9.68818 11.691 0.572353 11.691Z" fill="black"/>
<path d="M107.883 19.4837L110.236 15.4204C110.919 14.2542 110.502 12.7117 109.325 12.0344C108.149 11.3572 106.593 11.7711 105.91 12.9373L103.557 17.0006C98.5481 15.4204 92.8938 17.4521 90.1616 22.1925C88.416 25.2023 88.1883 28.626 89.2508 31.6734L93.6148 24.1865C94.6015 22.4559 96.2332 21.2519 98.1685 20.7253C100.104 20.1986 102.115 20.4619 103.861 21.4777C107.428 23.5093 108.68 28.0992 106.593 31.6358C104.544 35.1723 99.9521 36.4138 96.3471 34.3446L98.8516 30.0181C100.028 30.6952 101.584 30.2814 102.267 29.1151C102.95 27.9112 102.533 26.4063 101.356 25.7291C100.18 25.0519 98.6239 25.4657 97.9408 26.632L89.9718 40.3266C89.2887 41.5305 89.7062 43.0354 90.8826 43.7126C92.0589 44.3898 93.6148 43.976 94.2979 42.8097L96.6506 38.7465C101.66 40.3266 107.314 38.295 110.046 33.5545C112.816 28.8517 111.754 23.0202 107.883 19.4837Z" fill="#181A1D"/>
<path d="M118.471 22.4185H122.342C124.581 22.4185 126.44 23.5095 126.44 26.0678C126.44 28.6262 124.581 29.7549 122.342 29.7549H120.748V33.329H118.471V22.4185ZM122.266 27.7609C123.366 27.7609 124.087 27.2718 124.087 26.0678C124.087 24.8639 123.328 24.3749 122.266 24.3749H120.71V27.7609H122.266Z" fill="#181A1D"/>
<path d="M129.742 22.4185H137.028V24.4125H132.019V26.9332H136.421V28.8519H132.019V31.3726H137.256V33.329H129.742V22.4185Z" fill="#181A1D"/>
<path d="M141.052 22.4185H143.329V31.3726H148.3V33.329H141.052V22.4185Z" fill="#181A1D"/>
<path d="M150.841 27.8741C150.841 24.6386 153.384 22.2683 156.533 22.2683C159.721 22.2683 162.226 24.6386 162.226 27.8741C162.226 31.1097 159.721 33.4798 156.533 33.4798C153.384 33.4798 150.841 31.1097 150.841 27.8741ZM159.911 27.8741C159.911 25.8425 158.544 24.2623 156.533 24.2623C154.522 24.2623 153.156 25.8049 153.156 27.8741C153.156 29.9057 154.522 31.4859 156.533 31.4859C158.544 31.4859 159.911 29.9057 159.911 27.8741Z" fill="#181A1D"/>
<path d="M167.805 24.3749H164.656V22.3809H173.232V24.3749H170.082V33.329H167.805V24.3749Z" fill="#181A1D"/>
<path d="M175.66 27.8741C175.66 24.6386 178.203 22.2683 181.352 22.2683C184.54 22.2683 187.045 24.6386 187.045 27.8741C187.045 31.1097 184.502 33.4798 181.352 33.4798C178.164 33.4798 175.66 31.1097 175.66 27.8741ZM184.691 27.8741C184.691 25.8425 183.326 24.2623 181.315 24.2623C179.303 24.2623 177.937 25.8049 177.937 27.8741C177.937 29.9057 179.303 31.4859 181.315 31.4859C183.363 31.4859 184.691 29.9057 184.691 27.8741Z" fill="#181A1D"/>
<path d="M193.951 28.2502C193.42 27.7234 192.623 26.7453 192.623 26.7453C192.623 26.7453 192.775 27.9492 192.775 28.7393V33.3292H190.688V22.3058H190.915L196.456 27.4977C196.987 27.9868 197.746 29.0026 197.746 29.0026C197.746 29.0026 197.594 27.7611 197.594 27.0086V22.4187H199.719V33.4421H199.492L193.951 28.2502Z" fill="#181A1D"/>
<path d="M253.951 25.6902C254.157 24.0204 255.346 23.1007 256.644 22.2791C257.134 21.98 257.702 21.8319 258.277 21.8534C259.08 21.8629 259.886 21.847 260.687 21.8597C260.954 21.854 261.22 21.8881 261.477 21.9609C263.087 22.493 265.212 24.0895 264.987 26.3533C264.922 27.0004 264.987 27.6592 264.975 28.3116C264.961 29.1971 264.512 29.6356 263.606 29.6378C261.428 29.643 259.25 29.6378 257.072 29.6378H256.42C256.248 30.1007 256.287 30.5041 256.628 30.8265C256.956 31.153 257.315 31.4467 257.701 31.7036C257.948 31.8384 258.226 31.9057 258.508 31.8984C260.168 31.9154 261.828 31.9037 263.489 31.9122C263.737 31.9089 263.985 31.9426 264.223 32.0122C264.445 32.0846 264.637 32.2255 264.772 32.4144C264.907 32.6032 264.978 32.83 264.974 33.0616C264.973 33.2931 264.898 33.5184 264.76 33.705C264.622 33.8918 264.428 34.0301 264.206 34.1004C264.002 34.163 263.791 34.1946 263.578 34.194C261.774 34.2019 259.971 34.2019 258.169 34.194C257.973 34.2083 257.776 34.1874 257.587 34.1323C255.83 33.4426 254.357 32.472 254.004 30.4445C253.992 30.4113 253.976 30.3799 253.956 30.3508L253.951 25.6902ZM259.431 27.2867C260.342 27.2867 261.255 27.2803 262.163 27.2867C262.471 27.2867 262.592 27.1803 262.622 26.861C262.729 25.9031 262.507 25.1187 261.616 24.6089C261.508 24.5472 261.431 24.429 261.321 24.3832C261.08 24.2821 260.83 24.1502 260.579 24.1384C259.85 24.1065 259.116 24.1183 258.384 24.1332C258.189 24.128 257.996 24.1743 257.825 24.2673C256.931 24.8494 256.081 25.4518 256.308 26.7375C256.4 27.2505 256.339 27.2781 256.861 27.2814C257.717 27.2899 258.574 27.2856 259.431 27.2803V27.2867Z" fill="black"/>
<path d="M317.245 17.3234C317.845 17.6533 318.02 18.1748 318.018 18.8283C318.002 22.9386 318.009 27.0501 318.009 31.1615V31.9066C318.539 31.9066 318.997 31.9066 319.457 31.9066C319.707 31.8979 319.957 31.9043 320.207 31.9257C320.818 32.0013 321.223 32.4461 321.236 33.023C321.25 33.6264 320.841 34.0873 320.212 34.1809C320.105 34.1934 319.997 34.1984 319.89 34.1959C317.838 34.1959 315.785 34.1959 313.733 34.1959C313.278 34.1959 312.882 34.0766 312.614 33.6945C312.098 32.957 312.591 31.9917 313.532 31.9182C314.011 31.882 314.498 31.9065 314.977 31.9033H315.586V19.5755C314.892 19.5755 314.236 19.5946 313.581 19.5701C312.815 19.5425 312.318 18.9773 312.417 18.293C312.484 17.8268 312.812 17.5639 313.177 17.3266L317.245 17.3234Z" fill="black"/>
<path d="M282.374 27.9504C282.374 30.4735 282.374 32.9963 282.374 35.5187C282.374 36.3702 282.248 36.4883 281.373 36.4883H268.955C268.795 36.494 268.634 36.489 268.475 36.4734C268.086 36.4191 267.912 36.2329 267.877 35.8486C267.867 35.7422 267.872 35.6358 267.872 35.5293C267.872 30.4845 267.872 25.439 267.872 20.3928C267.867 20.2697 267.87 20.1463 267.878 20.0234C267.92 19.6275 268.093 19.4584 268.49 19.4275C268.614 19.4168 268.74 19.4275 268.864 19.4275H281.444C282.278 19.4275 282.373 19.5189 282.374 20.3331C282.379 22.8712 282.379 25.4102 282.374 27.9504ZM275.144 26.2156C275.035 26.129 274.932 26.0355 274.834 25.9357C274.263 25.2588 273.696 24.5776 273.126 23.8986C272.697 23.3824 272.277 22.8523 271.82 22.3585C271.396 21.8998 270.759 21.8541 270.325 22.2C269.866 22.5682 269.813 23.1206 270.196 23.6666C270.318 23.8401 270.457 24.0029 270.593 24.1658C271.529 25.278 272.459 26.3944 273.404 27.4981C273.635 27.7663 273.694 27.9643 273.429 28.2634C272.757 29.0179 272.122 29.8034 271.473 30.5771C270.96 31.1881 270.435 31.7894 269.944 32.4163C269.799 32.5868 269.715 32.801 269.706 33.0244C269.698 33.2479 269.765 33.4676 269.897 33.6487C270.028 33.8314 270.217 33.9647 270.433 34.027C270.65 34.0893 270.882 34.0767 271.09 33.9914C271.332 33.8829 271.546 33.723 271.719 33.5231C272.448 32.6781 273.153 31.8117 273.871 30.9571C274.254 30.5005 274.647 30.0514 275.084 29.5405C275.462 29.9832 275.796 30.3664 276.122 30.756C276.882 31.667 277.631 32.5886 278.406 33.4891C278.588 33.7046 278.815 33.8783 279.071 33.9979C279.482 34.1798 279.95 34.0127 280.218 33.6626C280.514 33.2762 280.494 32.7473 280.126 32.2939C279.423 31.4265 278.701 30.575 277.99 29.714C277.485 29.1052 276.986 28.4911 276.475 27.8674C277.226 26.9617 277.942 26.106 278.653 25.2471C279.104 24.7011 279.568 24.1636 279.991 23.5964C280.124 23.4273 280.198 23.2198 280.201 23.0053C280.204 22.7909 280.137 22.5813 280.009 22.4086C279.737 22.0371 279.348 21.8924 278.926 22.0201C278.644 22.1174 278.392 22.2862 278.196 22.5097C277.688 23.077 277.224 23.6805 276.741 24.2722L275.144 26.2156Z" fill="black"/>
<path d="M287.536 33.1433C287.525 33.402 287.511 33.5691 287.511 33.7383C287.511 34.991 287.511 36.2437 287.511 37.4964C287.511 38.1605 287.164 38.6235 286.634 38.7309C285.913 38.8768 285.31 38.451 285.216 37.7241C285.203 37.5826 285.199 37.4404 285.204 37.2984C285.204 32.4814 285.204 27.6643 285.204 22.8473C285.204 22.7237 285.204 22.6003 285.209 22.4768C285.258 21.8383 285.681 21.4125 286.295 21.3763C286.574 21.3645 286.848 21.4532 287.067 21.6258C287.286 21.7984 287.434 22.0436 287.485 22.3161C287.518 22.4694 287.518 22.6301 287.543 22.8845C287.723 22.7217 287.865 22.6035 287.992 22.479C289.494 21.0336 291.609 20.9474 293.226 22.2661C293.762 22.7036 294.298 23.1431 294.835 23.5795C295.733 24.3074 296.185 25.2398 296.178 26.3925C296.171 27.4865 296.178 28.5807 296.178 29.6748C296.178 30.7689 295.755 31.697 294.882 32.3994C294.346 32.8347 293.78 33.2509 293.282 33.7234C291.987 34.9601 289.363 34.9942 288.025 33.585C287.888 33.4531 287.745 33.3318 287.536 33.1433ZM293.785 27.9804C293.785 27.3982 293.816 26.815 293.772 26.2371C293.752 25.9763 293.657 25.6538 293.476 25.4836C292.892 24.9404 292.28 24.4271 291.643 23.9456C291.125 23.5486 290.212 23.5955 289.756 24.019C289.12 24.6097 288.481 25.2004 287.893 25.8368C287.675 26.0844 287.543 26.3942 287.516 26.7213C287.468 27.5835 287.468 28.4476 287.516 29.3097C287.542 29.619 287.667 29.9118 287.873 30.1452C288.448 30.7699 289.071 31.3521 289.689 31.9364C290.273 32.4888 291.083 32.5133 291.721 32.0013C292.287 31.5469 292.838 31.0711 293.398 30.6081C293.524 30.5094 293.625 30.3827 293.693 30.2384C293.759 30.094 293.792 29.9359 293.787 29.7769C293.782 29.1777 293.785 28.5796 293.785 27.9804Z" fill="black"/>
<path d="M301.067 29.6354C300.921 30.1835 301.028 30.5933 301.419 30.9296C301.703 31.1713 301.969 31.4479 302.287 31.631C302.56 31.7891 302.866 31.879 303.181 31.8928C304.841 31.9173 306.501 31.9035 308.162 31.9077C308.375 31.9002 308.588 31.919 308.797 31.9641C309.041 32.0233 309.258 32.1617 309.413 32.3576C309.569 32.5533 309.654 32.7951 309.655 33.0444C309.657 33.2942 309.574 33.5372 309.42 33.7347C309.265 33.9321 309.048 34.0724 308.805 34.1332C308.596 34.1801 308.383 34.2005 308.169 34.1939C306.453 34.1939 304.736 34.2024 303.028 34.1939C302.706 34.1939 302.362 34.1939 302.08 34.0757C300.585 33.4372 299.292 32.5783 298.784 30.9243C298.715 30.6697 298.683 30.4067 298.689 30.1431C298.679 28.7307 298.682 27.3184 298.689 25.9071C298.689 24.8726 299.107 24.0255 299.894 23.3528C300.215 23.0761 300.555 22.8132 300.895 22.5578C301.503 22.0825 302.258 21.8312 303.032 21.8468C303.782 21.8618 304.533 21.8618 305.286 21.8468C305.891 21.8352 306.48 21.9394 306.969 22.2778C307.645 22.7317 308.282 23.2416 308.872 23.8019C309.433 24.3522 309.647 25.1014 309.66 25.8859C309.671 26.6969 309.666 27.5089 309.66 28.321C309.653 29.1809 309.208 29.6301 308.338 29.6322C306.125 29.6397 303.912 29.6322 301.698 29.6322L301.067 29.6354ZM304.122 27.2854C305.03 27.2854 305.937 27.2801 306.846 27.2854C307.157 27.2854 307.276 27.1705 307.305 26.8544C307.394 25.9359 307.246 25.1398 306.349 24.6449C306.243 24.5853 306.164 24.4671 306.053 24.4214C305.783 24.3149 305.505 24.1574 305.222 24.1404C304.53 24.0999 303.834 24.1234 303.139 24.1287C302.496 24.134 301.233 25.0663 301.051 25.6624C301.019 25.7808 301.002 25.9027 301.002 26.0253C300.994 26.2541 301.002 26.484 301.002 26.7128C301.002 27.2748 301.008 27.2801 301.561 27.2822C302.412 27.2886 303.267 27.2854 304.122 27.2854Z" fill="black"/>
<path d="M384.953 35.4795C383.946 35.4644 382.97 35.2856 382.058 34.846C379.709 33.7112 378.299 31.85 377.97 29.2423C377.675 26.9116 378.416 24.9008 380.086 23.2641C381.289 22.0861 382.752 21.4469 384.43 21.3195C384.541 21.3195 384.652 21.3255 384.762 21.3195C384.902 21.3093 384.956 21.3603 384.961 21.5085C384.965 21.7662 384.987 22.0232 385.025 22.2779C385.498 25.1127 387.089 27.0207 389.759 28.0196C390.477 28.2874 391.231 28.3631 391.99 28.4021L391.987 28.3997C391.978 28.6277 391.983 28.8573 391.957 29.0832C391.69 31.4467 390.537 33.2491 388.53 34.4887C387.437 35.161 386.23 35.4626 384.953 35.4795Z" fill="black"/>
<path d="M391.991 28.4003C391.232 28.3612 390.477 28.2855 389.76 28.0177C387.089 27.0188 385.499 25.1108 385.026 22.2761C384.988 22.0213 384.966 21.7643 384.962 21.5067C384.957 21.3585 384.903 21.3074 384.762 21.3177C384.653 21.3254 384.542 21.3177 384.431 21.3177C384.541 21.3064 384.651 21.2824 384.76 21.2877C384.912 21.2976 384.96 21.2455 384.962 21.0903C384.97 20.3934 385.077 19.7085 385.315 19.0552C386.315 16.3193 388.244 14.6711 391.113 14.2684C394.93 13.7331 398.462 16.4914 398.974 20.3293C399.017 20.6482 399.022 20.972 399.044 21.2934C398.725 21.3152 398.403 21.3173 398.088 21.3637C396.326 21.6126 394.856 22.4169 393.696 23.7712C392.559 25.0978 392.014 26.6542 391.991 28.4003Z" fill="#ADADAD"/>
<path d="M391.989 28.4004C392.013 26.6542 392.557 25.0978 393.694 23.7713C394.855 22.4169 396.324 21.6126 398.086 21.3638C398.401 21.3191 398.724 21.317 399.043 21.2935C399.103 21.3079 399.164 21.3174 399.226 21.3216C400.555 21.3089 401.764 21.7105 402.863 22.4359C404.612 23.59 405.679 25.2182 405.994 27.298C406.325 29.4848 405.749 31.4368 404.29 33.0984C403.113 34.4419 401.618 35.2032 399.854 35.4274C399.589 35.4609 399.32 35.4598 399.053 35.4749C398.998 34.9864 398.981 34.4894 398.881 34.0114C398.543 32.3878 397.73 31.0412 396.452 29.9916C395.155 28.9266 393.668 28.3835 391.987 28.3993L391.989 28.4004Z" fill="black"/>
<path d="M391.988 28.3976C393.669 28.3818 395.156 28.9255 396.453 29.9898C397.731 31.0394 398.545 32.3861 398.882 34.0097C398.982 34.4883 398.999 34.9846 399.054 35.4732C399.019 36.094 398.981 36.7167 398.797 37.3147C397.913 40.2008 396.005 41.9761 393.042 42.4696C389.458 43.0648 386.038 40.7327 385.161 37.1869C385.023 36.6287 384.954 36.0557 384.954 35.4806C386.232 35.4651 387.437 35.162 388.529 34.488C390.537 33.2484 391.691 31.4459 391.956 29.0825C391.983 28.8551 391.978 28.6256 391.988 28.3976Z" fill="#ADADAD"/>
<path d="M437.765 33.5367H434.977V33.3027C434.977 31.6132 434.981 29.9238 434.972 28.2344C434.974 27.9945 434.935 27.7562 434.854 27.5304C434.679 27.0729 434.308 26.8617 433.832 26.8353C433.34 26.8078 432.959 27.0074 432.699 27.4266C432.454 27.823 432.386 28.2678 432.384 28.725C432.382 30.2561 432.382 31.7871 432.384 33.3178V33.5354C432.308 33.5396 432.252 33.5459 432.195 33.5459C431.391 33.5459 430.586 33.5417 429.782 33.5502C429.621 33.5502 429.591 33.4956 429.591 33.3477C429.596 31.6348 429.596 29.922 429.591 28.209C429.595 28.0801 429.587 27.9511 429.567 27.8237C429.462 27.2693 429.077 26.8969 428.566 26.8448C427.93 26.7804 427.454 27.056 427.206 27.6315C427.044 28.0049 427.001 28.3994 427 28.8003C426.998 30.302 426.998 31.8038 427 33.3055V33.5301H424.237V24.8681C424.289 24.864 424.344 24.8555 424.399 24.8555C425.005 24.8555 425.612 24.8597 426.218 24.8513C426.36 24.8492 426.408 24.9002 426.433 25.0315C426.544 25.6126 426.665 26.193 426.782 26.7712C426.79 26.81 426.804 26.8473 426.822 26.9075C426.923 26.6611 427.006 26.4348 427.109 26.2172C427.826 24.7077 429.625 24.1649 431.013 25.042C431.628 25.4292 431.951 26.0173 432.099 26.7163C432.116 26.7941 432.13 26.8719 432.153 26.9873C432.236 26.7874 432.298 26.6188 432.374 26.4573C432.808 25.5379 433.468 24.8773 434.495 24.6975C435.917 24.4483 437.375 25.0596 437.691 26.9483C437.738 27.2493 437.761 27.5536 437.761 27.8585C437.767 29.6767 437.764 31.495 437.764 33.314L437.765 33.5367Z" fill="black"/>
<path d="M450.607 31.8527V36.1312H447.847V24.8682H450.004C450.142 25.5887 450.281 26.3155 450.42 27.0419C450.546 26.6292 450.737 26.2395 450.986 25.8878C452.303 24.0721 455.061 24.3139 456.167 26.1318C456.564 26.7857 456.773 27.4988 456.853 28.2524C456.954 29.2234 456.901 30.1864 456.612 31.1237C456.297 32.149 455.739 32.9973 454.729 33.445C453.785 33.8645 452.818 33.8852 451.872 33.4299C451.291 33.1483 450.928 32.6646 450.708 32.0646C450.688 32.0096 450.669 31.9547 450.648 31.8998C450.636 31.883 450.622 31.8672 450.607 31.8527ZM450.614 29.2414C450.628 29.8429 450.679 30.4381 450.977 30.9777C451.291 31.5534 451.782 31.8333 452.437 31.8241C453.053 31.8157 453.487 31.5201 453.757 30.9752C453.937 30.6137 454.016 30.2231 454.046 29.8236C454.1 29.0883 454.095 28.3566 453.818 27.6583C453.59 27.0842 453.185 26.7221 452.553 26.6759C451.862 26.6256 451.327 26.8889 450.981 27.5066C450.68 28.0461 450.632 28.6406 450.615 29.2414H450.614Z" fill="black"/>
<path d="M446.173 25.0122C445.676 24.8401 445.202 24.6444 444.711 24.5135C443.906 24.2988 443.085 24.208 442.254 24.3523C442.1 24.3804 441.949 24.4251 441.804 24.4853C441.444 24.6321 441.225 24.8965 441.205 25.2949C441.184 25.7028 441.38 26.0034 441.732 26.1724C442.023 26.3064 442.325 26.4141 442.635 26.494C443.286 26.67 443.951 26.8002 444.593 27.0016C445.406 27.2553 446.089 27.7112 446.507 28.4894C446.825 29.0806 446.889 29.7272 446.857 30.3846C446.812 31.2886 446.532 32.0977 445.859 32.7305C445.323 33.2328 444.675 33.5197 443.965 33.6527C442.308 33.9631 440.707 33.8107 439.194 33.0143C438.714 32.7615 438.717 32.7562 438.717 32.2142C438.717 31.7214 438.717 31.2287 438.717 30.736C438.717 30.68 438.721 30.6241 438.724 30.5551C438.949 30.674 439.154 30.7937 439.368 30.8944C440.432 31.3945 441.548 31.6373 442.725 31.53C443.058 31.4994 443.378 31.41 443.662 31.221C443.983 31.007 444.151 30.7124 444.128 30.3178C444.104 29.918 443.872 29.6586 443.52 29.5354C443.071 29.3781 442.608 29.2538 442.147 29.1404C441.478 28.975 440.812 28.8174 440.203 28.4742C439.309 27.9698 438.813 27.2001 438.683 26.1864C438.599 25.5385 438.635 24.8972 438.858 24.2781C439.203 23.3224 439.882 22.6822 440.816 22.3521C442.593 21.7238 444.331 21.8783 446.014 22.7209C446.134 22.7811 446.178 22.8571 446.176 22.9941C446.169 23.6216 446.172 24.2492 446.172 24.8767L446.173 25.0122Z" fill="black"/>
<path d="M418.4 25.0216C417.95 24.8587 417.522 24.6738 417.077 24.5489C416.224 24.3096 415.352 24.197 414.469 24.3571C414.251 24.3954 414.042 24.4725 413.851 24.5848C413.323 24.9069 413.267 25.6538 413.76 26.0279C413.999 26.2092 414.299 26.332 414.59 26.4151C415.211 26.5942 415.845 26.7245 416.47 26.8863C416.941 27.0022 417.388 27.198 417.793 27.4653C418.483 27.9314 418.905 28.568 419.032 29.3987C419.153 30.1962 419.111 30.9794 418.787 31.727C418.332 32.7755 417.48 33.346 416.417 33.5974C414.774 33.9866 413.167 33.8462 411.626 33.1239C410.942 32.8033 410.945 32.7963 410.945 32.0441V30.556C411.197 30.6869 411.422 30.8182 411.658 30.9259C412.711 31.406 413.811 31.6429 414.97 31.5288C415.394 31.4872 415.794 31.3662 416.103 31.0427C416.199 30.9448 416.272 30.8258 416.316 30.6951C416.36 30.5644 416.373 30.4253 416.356 30.2885C416.338 30.1517 416.29 30.0207 416.214 29.9056C416.139 29.7905 416.038 29.6943 415.92 29.6243C415.493 29.3673 415.003 29.2974 414.532 29.1696C413.943 29.0102 413.343 28.8714 412.781 28.6395C411.562 28.1345 410.947 27.1732 410.881 25.8537C410.836 24.9488 411.006 24.1009 411.59 23.3794C412.12 22.7261 412.823 22.346 413.625 22.1633C415.214 21.8025 416.748 21.9602 418.213 22.7015C418.356 22.7739 418.407 22.8644 418.404 23.0281C418.394 23.6972 418.4 24.3655 418.4 25.0216Z" fill="black"/>
<path d="M465.043 33.5474C464.306 33.5474 463.589 33.5499 462.873 33.5411C462.83 33.5411 462.762 33.4524 462.749 33.3953C462.659 32.9836 462.578 32.5693 462.494 32.156C462.485 32.111 462.473 32.0667 462.456 32.0016C462.367 32.1776 462.298 32.343 462.205 32.4943C461.685 33.3362 460.904 33.7238 459.945 33.7804C459.293 33.8188 458.676 33.6871 458.15 33.2753C457.514 32.7777 457.285 32.0938 457.303 31.3043C457.326 30.3361 457.833 29.7011 458.698 29.3741C459.339 29.1323 460.013 28.9817 460.67 28.7828C461.059 28.6653 461.45 28.5487 461.829 28.402C462.106 28.2943 462.294 28.0877 462.275 27.7568C462.255 27.4049 462.062 27.1824 461.744 27.0652C461.254 26.8854 460.747 26.8973 460.24 26.9389C459.438 27.0067 458.653 27.2159 457.922 27.5569C457.902 27.5661 457.88 27.5706 457.842 27.5829C457.838 27.515 457.833 27.4587 457.833 27.4027C457.833 26.922 457.838 26.4408 457.829 25.9597C457.827 25.8189 457.876 25.7337 457.984 25.6531C458.674 25.1382 459.453 24.8513 460.296 24.7229C461.163 24.5905 462.027 24.5993 462.877 24.8429C464.026 25.172 464.701 25.9498 464.935 27.1142C465.007 27.476 465.045 27.8442 465.047 28.2133C465.059 29.926 465.053 31.639 465.053 33.3521C465.053 33.4094 465.048 33.4668 465.043 33.5474ZM462.31 29.3534C462.081 29.4941 461.915 29.6092 461.736 29.7022C461.405 29.8729 461.061 30.019 460.734 30.1949C460.179 30.4976 460.002 30.9693 460.187 31.6468C460.258 31.9012 460.44 32.0628 460.686 32.1473C461.146 32.305 461.656 32.156 461.921 31.7457C462.054 31.5401 462.175 31.2965 462.205 31.0583C462.27 30.5096 462.276 29.9527 462.31 29.3534Z" fill="black"/>
<path d="M481.705 29.6466H476.481C476.437 30.58 476.906 31.3476 477.821 31.6011C478.914 31.9037 479.968 31.7334 480.985 31.2723C481.137 31.2037 481.282 31.1192 481.452 31.0302C481.452 31.556 481.458 32.0583 481.445 32.5598C481.445 32.6267 481.355 32.7031 481.29 32.7545C480.731 33.1987 480.095 33.4771 479.402 33.6214C478.336 33.8434 477.278 33.7973 476.246 33.4503C475.075 33.0565 474.272 32.2592 473.916 31.0671C473.491 29.6473 473.491 28.2257 474.153 26.8699C474.766 25.6145 475.818 24.9313 477.174 24.7063C477.865 24.5883 478.574 24.6214 479.252 24.8035C480.338 25.0957 481.075 25.7738 481.464 26.8379C481.792 27.7425 481.774 28.6758 481.705 29.6466ZM479.245 28.3764C479.233 27.8203 479.199 27.2782 478.843 26.8358C478.706 26.6709 478.528 26.5451 478.327 26.4708C477.712 26.2494 477.061 26.5145 476.743 27.0909C476.522 27.4887 476.463 27.9223 476.472 28.3764H479.245Z" fill="black"/>
<path d="M472.975 27.3553C472.535 27.2227 472.123 27.0769 471.702 26.978C471.235 26.8656 470.752 26.8443 470.278 26.9154C469.369 27.0562 468.789 27.632 468.646 28.545C468.552 29.1433 468.582 29.7378 468.782 30.3147C469.112 31.265 469.91 31.7736 470.977 31.7243C471.654 31.6908 472.316 31.5152 472.921 31.2087C472.963 31.1882 473.004 31.1686 473.07 31.1383C473.074 31.2087 473.08 31.265 473.08 31.3203C473.08 31.6782 473.066 32.0365 473.085 32.3934C473.098 32.613 473.01 32.7563 472.856 32.8914C472.453 33.2506 471.965 33.5008 471.44 33.6186C470.135 33.9118 468.878 33.8122 467.721 33.0787C466.907 32.5613 466.398 31.7996 466.137 30.8785C465.806 29.7058 465.801 28.5285 466.2 27.3663C466.719 25.85 468.127 24.7786 469.719 24.6674C470.596 24.6058 471.453 24.6797 472.265 25.0507C472.335 25.082 472.4 25.119 472.467 25.1534C472.817 25.3325 473.038 25.5624 472.986 26.0161C472.936 26.4596 472.975 26.9143 472.975 27.3553Z" fill="black"/>
<path d="M422.897 33.539H420.151V24.8707H422.897V33.539Z" fill="black"/>
<path d="M423.022 22.7144C423.011 23.5613 422.352 24.1927 421.493 24.179C420.66 24.166 420.021 23.5134 420.03 22.6849C420.038 21.8275 420.7 21.1745 421.549 21.1837C422.382 21.1929 423.032 21.869 423.022 22.7144Z" fill="black"/>
<path d="M537.264 24.9331H528.05V22.5863H539.59V34.1226C539.321 34.1949 537.748 34.2066 537.276 34.1386C537.257 33.3821 537.27 32.6162 537.267 31.8504C537.265 31.0845 537.267 30.3317 537.267 29.5731V24.9331H537.264Z" fill="black"/>
<path d="M533.027 29.2026H528.049C528.043 28.9322 528.036 28.6856 528.034 28.4382C528.034 28.1735 528.034 27.9089 528.034 27.6427V26.8906C528.302 26.8045 534.52 26.7684 535.325 26.8436C535.397 27.0851 535.428 33.5816 535.351 34.1565C534.594 34.2014 533.833 34.1731 533.027 34.1724V29.2026Z" fill="black"/>
<path d="M553.801 30.8023V33.4058L554.902 33.669V34.155H551.636C551.625 34.0769 551.609 33.9981 551.605 33.9193C551.6 33.8405 551.611 33.7746 551.616 33.6756L552.59 33.4058V26.3121L551.626 26.0495V25.5614C551.736 25.5542 551.843 25.5418 551.946 25.5418C553.115 25.5418 554.283 25.5353 555.452 25.5418C555.74 25.547 556.028 25.5765 556.312 25.6301C557.721 25.8832 558.567 27.527 558.138 28.8844C557.755 30.0922 556.882 30.751 555.544 30.7813C555.087 30.7922 554.629 30.7813 554.17 30.7813C554.055 30.7857 553.938 30.7958 553.801 30.8023ZM553.816 26.2499C553.744 26.756 553.766 29.8051 553.838 30.077C554.409 30.077 554.986 30.1037 555.56 30.0683C556.028 30.0394 556.398 29.7963 556.629 29.3683C557.081 28.5337 557.067 27.7164 556.557 26.9094C556.313 26.5261 555.96 26.2925 555.525 26.2585C554.963 26.2195 554.397 26.2506 553.816 26.2506V26.2499Z" fill="black"/>
<path d="M571.275 26.2565V29.4508C571.534 29.5231 572.638 29.5455 573.256 29.4848C573.325 29.1117 573.396 28.7262 573.473 28.3154H574.052V31.42H573.473C573.401 31.0346 573.333 30.6484 573.26 30.2449H571.275V33.3741L572.624 33.6157V34.1588H568.978V33.6663L570.037 33.377V26.3078L568.968 26.0496V25.5623H575.646V28.0818H575.035C574.909 27.4852 574.781 26.8792 574.649 26.2565H571.275Z" fill="black"/>
<path d="M580.875 28.4226L579.978 28.1774V27.7247H581.668C581.756 28.0949 581.844 28.466 581.945 28.8941C582.035 28.7972 582.098 28.7371 582.152 28.6692C582.752 27.9005 583.53 27.5323 584.513 27.6112C585.303 27.6741 585.849 28.1116 586.008 28.8905C586.1 29.3502 586.151 29.8169 586.161 30.2855C586.186 31.2004 586.171 32.1159 586.172 33.0336V33.4502L587.084 33.7033V34.1618H584.254C584.241 34.1119 584.233 34.0611 584.227 34.01C584.227 33.9152 584.235 33.8197 584.24 33.7026L585.004 33.4646C585.011 33.3605 585.024 33.2665 585.024 33.1754C585.024 32.1875 585.024 31.2004 585.017 30.2103C585.014 29.9457 584.991 29.6817 584.95 29.4205C584.84 28.7422 584.363 28.377 583.672 28.4262C582.741 28.4927 582.082 29.1211 582.056 30.0541C582.023 31.1606 582.048 32.2692 582.048 33.3771C582.055 33.4084 582.066 33.4387 582.082 33.4668L582.822 33.7033V34.1603H579.985C579.976 34.0844 579.964 34.0157 579.963 33.9485C579.96 33.8812 579.967 33.8039 579.972 33.709L580.875 33.4574V28.4226Z" fill="black"/>
<path d="M600.269 33.4499L601.177 33.6994V34.155H598.341V33.6951L599.103 33.4564C599.11 33.3407 599.12 33.2344 599.12 33.1281C599.12 32.201 599.12 31.2738 599.114 30.346C599.111 30.0452 599.088 29.745 599.047 29.447C598.953 28.7455 598.431 28.3485 597.723 28.423C596.782 28.5221 596.171 29.1419 596.149 30.0863C596.122 31.1935 596.142 32.3015 596.142 33.4449L596.918 33.6936V34.1044C596.662 34.1898 594.794 34.2179 594.074 34.1456C594.068 34.0154 594.063 33.8787 594.054 33.7052L594.966 33.4492V28.4273L594.076 28.1764V27.7273H595.762C595.849 28.1034 595.938 28.4859 596.042 28.927C596.135 28.8106 596.198 28.7325 596.259 28.6522C596.925 27.7801 597.955 27.4047 599.014 27.6912C599.543 27.8358 599.885 28.1821 600.049 28.7036C600.215 29.2381 600.254 29.7884 600.262 30.3445C600.274 31.2355 600.267 32.1272 600.269 33.0203L600.269 33.4499Z" fill="black"/>
<path d="M559.765 26.3072L558.695 26.0497V25.563H562.193C562.203 25.6455 562.219 25.725 562.221 25.8046C562.219 25.8858 562.213 25.967 562.203 26.0476L561.005 26.3072V33.4516H564.238C564.374 32.7812 564.511 32.1035 564.651 31.41C564.758 31.402 564.852 31.3934 564.945 31.3898C565.038 31.3862 565.135 31.3898 565.221 31.3898C565.299 31.6827 565.311 33.7763 565.239 34.1581H558.697V33.6736L559.765 33.4126V26.3072Z" fill="black"/>
<path d="M544.026 34.1397V33.674L545.124 33.4122V26.3119L544.039 26.048V25.5656H547.536C547.544 25.6632 547.557 25.7449 547.556 25.8267C547.551 25.9021 547.542 25.9772 547.529 26.0516L546.345 26.3083V33.4679C547.414 33.4751 548.479 33.4679 549.581 33.4679C549.722 32.77 549.859 32.0938 549.998 31.4017H550.589C550.661 31.6462 550.682 33.6986 550.613 34.1202C550.35 34.1918 544.499 34.2099 544.026 34.1397Z" fill="black"/>
<path d="M614.751 30.4444C614.723 29.8694 614.687 29.3285 614.466 28.8252C614.11 28.0051 612.919 27.8337 612.359 28.5193C612.44 28.6726 612.547 28.8209 612.601 28.9872C612.763 29.4833 612.432 29.8955 611.916 29.855C611.77 29.8472 611.632 29.7874 611.527 29.6864C611.422 29.5854 611.355 29.45 611.342 29.3047C611.311 29.1069 611.332 28.9046 611.401 28.7169C611.47 28.5293 611.587 28.3626 611.739 28.2329C611.873 28.1113 612.021 28.007 612.181 27.9227C612.825 27.5827 613.518 27.5235 614.22 27.6544C614.944 27.7882 615.415 28.2423 615.672 28.925C615.875 29.4623 615.938 30.0257 615.951 30.592C615.969 31.3506 615.959 32.1107 615.964 32.8693C615.964 33.0863 615.976 33.3032 616.147 33.5426L616.88 33.638C616.887 33.7212 616.897 33.821 616.907 33.9317C616.474 34.116 616.06 34.2665 615.606 34.2744C615.244 34.2809 615.099 34.1696 615.028 33.813C614.979 33.5548 614.96 33.2901 614.923 32.9893C614.803 33.134 614.706 33.267 614.594 33.3856C613.876 34.1522 613.003 34.4495 611.976 34.1927C611.47 34.0654 611.156 33.7118 611.042 33.1926C610.879 32.4513 611.114 31.8322 611.739 31.3954C612.149 31.1061 612.613 30.9348 613.092 30.8133C613.558 30.6953 614.032 30.61 614.503 30.5095C614.578 30.4965 614.645 30.4741 614.751 30.4444ZM614.742 30.8429C614.123 30.924 613.519 31.0961 612.95 31.3535C612.24 31.7006 612.101 32.3775 612.287 32.9965C612.408 33.4001 612.737 33.6257 613.154 33.6134C613.774 33.5954 614.448 33.1246 614.654 32.5373C614.849 31.9927 614.855 31.4323 614.738 30.8429H614.742Z" fill="black"/>
<path d="M591.4 30.4569C591.381 29.8537 591.345 29.2766 591.083 28.7494C590.702 27.9835 589.534 27.8656 589.006 28.5324C589.086 28.6479 589.159 28.7687 589.223 28.894C589.44 29.4003 589.15 29.8602 588.629 29.8588C588.47 29.8631 588.316 29.8072 588.197 29.7023C588.079 29.5972 588.004 29.4511 587.989 29.2932C587.951 28.9823 588.002 28.6793 588.214 28.4449C588.385 28.2443 588.589 28.0733 588.816 27.9387C589.501 27.5669 590.239 27.5106 590.99 27.687C591.58 27.8251 591.99 28.1933 592.245 28.74C592.505 29.2968 592.584 29.8971 592.598 30.4988C592.616 31.2697 592.605 32.0414 592.609 32.813C592.609 33.0553 592.629 33.2939 592.796 33.5492L593.529 33.6411C593.537 33.7307 593.545 33.8218 593.555 33.9303C593.137 34.1169 592.723 34.2688 592.269 34.2753C591.897 34.2818 591.741 34.1566 591.677 33.7871C591.634 33.5391 591.617 33.2874 591.58 32.9837C591.477 33.1138 591.402 33.2144 591.32 33.3091C590.642 34.0959 589.787 34.4213 588.767 34.2297C587.981 34.0851 587.621 33.4574 587.655 32.6857C587.683 32.0956 587.977 31.666 588.463 31.3507C589.041 30.9768 589.692 30.8148 590.353 30.6637C590.69 30.5856 591.032 30.5292 591.4 30.4569ZM591.416 30.8184C590.757 30.9435 590.156 31.081 589.589 31.3587C588.881 31.7058 588.745 32.4261 588.957 33.0444C589.096 33.4487 589.464 33.6663 589.898 33.6034C590.295 33.5562 590.665 33.3755 590.946 33.0907C591.575 32.4406 591.472 31.6487 591.416 30.8199V30.8184Z" fill="black"/>
<path d="M606.607 32.5929L606.925 32.8583C606.364 33.7572 605.593 34.2569 604.538 34.2765C604.309 34.2882 604.08 34.28 603.853 34.2519C602.9 34.0993 602.202 33.5967 601.852 32.6847C601.431 31.5862 601.406 30.4682 601.852 29.3747C602.298 28.2812 603.162 27.6832 604.357 27.6108C604.803 27.5833 605.246 27.6036 605.673 27.7677C606.502 28.0867 606.938 28.7845 606.848 29.6669C606.806 30.0755 606.589 30.3213 606.237 30.3611C605.868 30.4023 605.587 30.2584 605.462 29.9655C605.401 29.8076 605.388 29.6347 605.427 29.4697C605.466 29.3047 605.553 29.1554 605.679 29.0413C605.767 28.9639 605.87 28.9025 605.973 28.8279C605.755 28.4085 605.385 28.2595 604.968 28.2068C604.751 28.1798 604.533 28.1798 604.316 28.2068C603.691 28.2863 603.244 28.619 603.024 29.2192C602.935 29.4555 602.873 29.7009 602.839 29.9511C602.75 30.6468 602.734 31.3476 602.897 32.0339C603.072 32.7795 603.488 33.3356 604.29 33.4658C604.625 33.5246 604.967 33.5098 605.295 33.4223C605.623 33.3349 605.927 33.177 606.187 32.9595C606.327 32.8561 606.445 32.7382 606.607 32.5929Z" fill="black"/>
<path d="M619.37 33.4529L620.277 33.6944V34.1211C620.035 34.1934 617.878 34.2144 617.339 34.1421C617.333 34.0134 617.327 33.8767 617.32 33.7082L618.203 33.4566V25.5463L617.342 25.3061V24.8795C617.61 24.8071 618.888 24.7949 619.354 24.8599C619.386 25.8001 619.364 26.7468 619.368 27.6927C619.373 28.656 619.368 29.6193 619.368 30.5854L619.37 33.4529Z" fill="black"/>
<path d="M528.056 31.1049H531.101V34.1546H528.056V31.1049Z" fill="black"/>
<path d="M577.117 28.4157L576.245 28.1785V27.7222H578.283C578.303 28.6768 578.29 29.6227 578.293 30.5679C578.295 31.5131 578.293 32.4678 578.293 33.4462L579.207 33.7008V34.1571H576.242C576.234 34.0125 576.228 33.8765 576.22 33.7094L577.088 33.4693C577.159 33.2003 577.182 29.0731 577.117 28.4157Z" fill="black"/>
<path d="M607.505 28.1808V27.7693C607.758 27.6891 608.871 27.6666 609.499 27.7295C609.584 28.0275 609.526 28.3399 609.536 28.6465C609.547 28.972 609.536 29.2974 609.536 29.6228V33.4442L610.448 33.7016V34.1565H607.505V33.6951L608.365 33.4651V28.4202L607.505 28.1808Z" fill="black"/>
<path d="M578.449 25.7887C578.443 26.2443 578.144 26.5278 577.689 26.5119C577.249 26.4952 576.988 26.2161 576.989 25.7641C576.991 25.3121 577.279 25.0163 577.733 25.025C578.187 25.0337 578.457 25.3223 578.449 25.7887Z" fill="black"/>
<path d="M609.712 25.7848C609.705 26.2187 609.417 26.508 608.98 26.508C608.526 26.5116 608.235 26.2187 608.238 25.7638C608.241 25.309 608.527 25.0175 608.982 25.0225C609.438 25.0276 609.72 25.3335 609.712 25.7848Z" fill="black"/>
<path d="M756.623 23.3308C755.796 23.3008 754.978 23.3308 754.199 23.6545C752.938 24.1755 752.119 25.0974 751.655 26.3411C751.362 27.1278 751.268 27.9465 751.267 28.7781C751.265 30.4716 751.265 32.165 751.267 33.8582V34.0758H749.016V21.1822H751.259V23.1168L751.315 23.1515C751.343 23.108 751.374 23.0663 751.407 23.0264C752.294 22.0596 753.366 21.3932 754.67 21.1068C755.176 20.9935 755.696 20.9531 756.214 20.9871C756.35 20.9967 756.488 20.9955 756.625 20.9991L756.623 23.3308Z" fill="black"/>
<path d="M747.739 28.6337H737.841C737.854 28.7103 737.861 28.7677 737.872 28.824C738.238 30.4141 739.147 31.5569 740.769 32.0292C742.254 32.4618 743.638 32.1584 744.866 31.2403C745.243 30.9585 745.564 30.6041 745.908 30.2813C745.952 30.234 745.993 30.184 746.031 30.1316L747.658 31.5381C747.654 31.5561 747.648 31.5734 747.64 31.5896C746.867 32.4526 746.023 33.2294 744.947 33.7258C743.793 34.2581 742.575 34.444 741.311 34.3348C739.502 34.1801 738.024 33.3996 736.894 32.007C736.065 30.9863 735.613 29.8076 735.471 28.5173C735.327 27.2129 735.466 25.9382 736.008 24.7289C736.873 22.8018 738.3 21.4738 740.43 21.0349C742.59 20.5902 744.503 21.1156 746.041 22.7225C746.865 23.5829 747.338 24.6287 747.594 25.7727C747.773 26.5767 747.829 27.4023 747.761 28.2225C747.754 28.3512 747.748 28.4793 747.739 28.6337ZM737.861 26.5199H745.347C745.347 26.4739 745.343 26.4278 745.337 26.3822C745.223 25.7963 745.031 25.2391 744.728 24.7188C743.605 22.7919 741.221 22.6695 739.835 23.5218C738.82 24.1472 738.238 25.0686 737.935 26.1811C737.908 26.2862 737.888 26.3945 737.861 26.5199Z" fill="black"/>
<path d="M717.878 34.0782H715.632V32.9636C715.568 33.0079 715.532 33.0313 715.498 33.0578C714.179 34.0887 712.664 34.4679 711.004 34.335C709.898 34.2452 708.886 33.8952 707.982 33.2518C705.659 31.6006 705.825 28.0175 708.39 26.5626C709.246 26.077 710.17 25.8145 711.146 25.7229C712.578 25.588 713.996 25.6978 715.403 25.9815C715.466 25.9943 715.531 26.0039 715.628 26.0207C715.601 25.8043 715.588 25.6018 715.548 25.4054C715.308 24.216 714.551 23.4777 713.304 23.2435C712.01 23.0004 710.754 23.1737 709.54 23.6495C709.126 23.812 708.73 24.0176 708.325 24.2037C708.271 24.2288 708.217 24.2557 708.14 24.2934L707.271 22.2586C707.841 22.0241 708.386 21.7799 708.945 21.574C710.204 21.1071 711.551 20.9131 712.893 21.0054C713.932 21.0748 714.919 21.3229 715.796 21.8974C716.903 22.6225 717.523 23.66 717.754 24.9258C717.831 25.3511 717.871 25.7822 717.872 26.2142C717.883 28.7743 717.877 31.3342 717.877 33.8945L717.878 34.0782ZM715.685 28.2215L715.634 28.2054C715.616 28.1955 715.598 28.1875 715.578 28.1814C714.176 27.8649 712.759 27.6937 711.319 27.8224C710.718 27.8757 710.145 28.0366 709.622 28.3509C708.428 29.0675 708.369 30.7941 709.505 31.5736C709.756 31.7454 710.035 31.9007 710.324 31.9925C711.643 32.4046 712.916 32.2496 714.111 31.5826C714.861 31.1637 715.405 30.5526 715.572 29.7067C715.668 29.2207 715.652 28.7165 715.685 28.2215Z" fill="black"/>
<path d="M693.949 34.0753V16.2622H696.206V22.305C696.239 22.288 696.27 22.2687 696.3 22.2473C697.241 21.4025 698.357 20.9747 699.624 20.9034C700.652 20.8456 701.642 20.9902 702.571 21.4421C703.978 22.1246 704.816 23.253 705.201 24.725C705.332 25.2477 705.396 25.7845 705.39 26.3229C705.39 28.8531 705.39 31.3832 705.39 33.9131V34.0756H703.126V33.8539C703.126 31.4434 703.126 29.033 703.126 26.6225C703.126 26.0515 703.069 25.4886 702.863 24.9491C702.466 23.9152 701.714 23.2893 700.608 23.0939C699.561 22.9095 698.57 23.0607 697.692 23.6831C696.831 24.2932 696.381 25.1446 696.248 26.164C696.222 26.3866 696.211 26.6106 696.214 26.8346C696.212 29.1753 696.212 31.516 696.214 33.8569V34.0762L693.949 34.0753Z" fill="black"/>
<path d="M693.042 18.7059C692.485 19.2523 691.937 19.79 691.375 20.3415C691.32 20.3008 691.246 20.2518 691.177 20.1946C690.506 19.656 689.786 19.2092 688.945 18.9719C686.562 18.2989 684.144 19.1679 682.765 21.1898C682.067 22.2138 681.688 23.3462 681.564 24.5668C681.423 25.9567 681.603 27.3007 682.18 28.5823C682.739 29.8241 683.571 30.8499 684.807 31.493C686.663 32.4592 688.509 32.3491 690.304 31.3164C690.657 31.1138 690.969 30.8436 691.299 30.603C691.38 30.5432 691.456 30.4789 691.521 30.4274L693.092 31.9682C692.428 32.5965 691.71 33.1792 690.861 33.5855C687.476 35.2062 682.78 34.494 680.411 30.3032C679.742 29.1188 679.374 27.8435 679.246 26.4977C679.094 24.8819 679.273 23.3043 679.868 21.7851C680.612 19.8816 681.846 18.3762 683.694 17.3967C685.035 16.6857 686.477 16.4332 687.993 16.5349C689.112 16.6104 690.177 16.8692 691.174 17.3811C691.862 17.7355 692.464 18.2059 693.042 18.7059Z" fill="black"/>
<path d="M729.073 23.3243H727.559V20.9923H729.07V17.4015H731.337V20.9857H735.56V23.3218H731.353C731.347 23.4036 731.341 23.4619 731.341 23.5206C731.341 25.7719 731.342 28.0231 731.343 30.2744C731.342 30.4834 731.357 30.6922 731.39 30.8989C731.498 31.5764 731.903 31.9705 732.591 32.0905C733.203 32.2027 733.837 32.1391 734.414 31.9074C734.729 31.782 735.038 31.6419 735.35 31.5087C735.4 31.4872 735.451 31.4675 735.52 31.4393V33.6837C735.067 33.9107 734.595 34.099 734.087 34.1953C733.24 34.3563 732.396 34.3509 731.57 34.0966C730.157 33.6621 729.372 32.6926 729.136 31.2789C729.093 30.9934 729.072 30.7049 729.075 30.4162C729.07 28.13 729.07 25.8439 729.073 23.5577L729.073 23.3243Z" fill="black"/>
<path d="M721.48 23.1353C722.892 21.5765 724.668 20.8931 726.788 20.9967V23.3262C726.693 23.3262 726.605 23.3262 726.516 23.3262C725.939 23.3133 725.368 23.3394 724.812 23.5078C723.329 23.9567 722.367 24.9331 721.838 26.3422C721.544 27.1235 721.45 27.9372 721.449 28.764C721.448 30.4624 721.448 32.1609 721.449 33.8594V34.0775H719.199V21.1833H721.441V23.1173L721.48 23.1353Z" fill="black"/>
<path d="M691.948 36.7628H692.569L693.605 38.3392C693.65 38.2778 693.683 38.2365 693.712 38.1928C694.001 37.7538 694.291 37.316 694.576 36.8737C694.635 36.7819 694.701 36.7451 694.81 36.7514C694.961 36.7597 695.112 36.7535 695.275 36.7535V40.081H694.714V37.747L694.663 37.7293L693.602 39.2832L692.556 37.7494L692.514 37.7646V40.0828H691.948V36.7628Z" fill="black"/>
<path d="M701.279 40.0862H700.718V37.7471L700.672 37.7309L699.61 39.284L698.564 37.7486L698.52 37.7632V40.0821H697.953V36.7578C698.149 36.7578 698.345 36.7515 698.539 36.7629C698.579 36.7653 698.623 36.829 698.651 36.8727C698.942 37.3111 699.231 37.7513 699.518 38.1909C699.549 38.2354 699.579 38.2782 699.622 38.3363C699.662 38.2807 699.692 38.242 699.718 38.2013C700.01 37.7578 700.303 37.3152 700.591 36.8691C700.646 36.7829 700.709 36.7461 700.813 36.7515C700.964 36.7593 701.115 36.7536 701.281 36.7536L701.279 40.0862Z" fill="black"/>
<path d="M710.018 37.7714V40.0821H709.455V36.7563C709.622 36.7563 709.788 36.7465 709.952 36.7623C710.003 36.7671 710.055 36.835 710.094 36.8838C710.631 37.5597 711.166 38.2365 711.7 38.9145C711.736 38.9632 711.784 39.0012 711.84 39.024V36.7671H712.411V40.0935C712.258 40.0935 712.106 40.1012 711.958 40.0884C711.914 40.0847 711.869 40.0286 711.836 39.9876C711.28 39.2879 710.726 38.5875 710.172 37.8863C710.137 37.8408 710.097 37.7965 710.06 37.7537L710.018 37.7714Z" fill="black"/>
<path d="M743.762 40.0873H743.192V36.7558C743.359 36.7558 743.516 36.7475 743.671 36.7609C743.719 36.7652 743.771 36.8208 743.806 36.8645C744.35 37.5474 744.892 38.2315 745.432 38.917C745.462 38.9553 745.494 38.9921 745.558 39.0666V36.769H746.129V40.0645C745.858 40.1607 745.658 40.1073 745.492 39.8985L743.897 37.8801C743.861 37.8316 743.815 37.7921 743.762 37.7649V40.0873Z" fill="black"/>
<path d="M689.419 38.4219C689.419 39.4094 688.657 40.1545 687.641 40.1575C686.625 40.1604 685.852 39.4181 685.851 38.4345C685.851 37.4595 686.632 36.6989 687.636 36.6962C688.656 36.6929 689.418 37.4311 689.419 38.4219ZM688.807 38.4372C688.807 37.7489 688.3 37.2252 687.632 37.2249C686.971 37.2249 686.477 37.7318 686.473 38.4144C686.471 39.1065 686.972 39.6245 687.645 39.6239C688.308 39.6233 688.806 39.1146 688.807 38.4372Z" fill="black"/>
<path d="M740.642 38.4291C740.639 39.4237 739.871 40.1605 738.842 40.1563C737.835 40.1521 737.073 39.4082 737.077 38.4261C737.08 37.444 737.862 36.6905 738.882 36.695C739.886 36.6983 740.645 37.4455 740.642 38.4291ZM738.867 39.624C739.528 39.624 740.03 39.1152 740.032 38.439C740.032 37.7534 739.522 37.2253 738.856 37.225C738.191 37.2247 737.687 37.748 737.692 38.4279C737.697 39.1078 738.201 39.6237 738.866 39.624H738.867Z" fill="black"/>
<path d="M723.493 40.0894L724.986 36.7379H725.543C726.035 37.8451 726.532 38.957 727.037 40.0894H726.418L726.076 39.2994H724.442C724.326 39.5618 724.209 39.8245 724.091 40.0905L723.493 40.0894ZM724.659 38.7727H725.855L725.275 37.4561L725.234 37.4597C725.044 37.8915 724.856 38.322 724.659 38.7736V38.7727Z" fill="black"/>
<path d="M703.941 36.7631H704.49C704.494 36.828 704.502 36.8858 704.502 36.9426C704.502 37.4854 704.502 38.0282 704.504 38.5707C704.504 38.6702 704.511 38.7696 704.525 38.8682C704.613 39.5082 705.257 39.8282 705.838 39.5172C706.127 39.3629 706.238 39.0983 706.243 38.7934C706.252 38.1812 706.248 37.5683 706.249 36.9561V36.7664H706.833C706.837 36.8226 706.842 36.8756 706.843 36.9285C706.843 37.4914 706.856 38.0546 706.837 38.6165C706.832 38.8696 706.788 39.1204 706.707 39.3605C706.52 39.8727 706.095 40.0977 705.566 40.1444C705.136 40.1824 704.722 40.1241 704.377 39.8362C704.084 39.592 703.945 39.2629 703.935 38.9005C703.914 38.2123 703.926 37.5264 703.925 36.8394C703.928 36.8135 703.934 36.788 703.941 36.7631Z" fill="black"/>
<path d="M751.116 37.128C751.026 37.2516 750.948 37.3611 750.867 37.4697C750.85 37.4937 750.829 37.5143 750.802 37.5451C750.73 37.5032 750.662 37.4625 750.594 37.4228C750.343 37.2773 750.075 37.1944 749.78 37.2252C749.694 37.2339 749.611 37.2563 749.533 37.2917C749.467 37.3191 749.411 37.365 749.371 37.4235C749.331 37.482 749.31 37.5506 749.31 37.6209C749.305 37.778 749.375 37.8967 749.515 37.9596C749.668 38.0237 749.825 38.0796 749.986 38.1268C750.217 38.202 750.456 38.257 750.679 38.3483C751.03 38.491 751.228 38.7546 751.226 39.1362C751.226 39.5282 751.059 39.8364 750.689 40.004C750.137 40.2535 749.588 40.1767 749.058 39.928C748.895 39.852 748.75 39.7398 748.577 39.6309L748.934 39.2119C748.988 39.2499 749.035 39.2837 749.083 39.3178C749.415 39.5557 749.779 39.6847 750.196 39.6215C750.266 39.6111 750.335 39.5902 750.399 39.5596C750.545 39.4881 750.631 39.3746 750.634 39.2053C750.637 39.036 750.561 38.9183 750.412 38.8633C750.171 38.7735 749.921 38.7077 749.675 38.6298C749.545 38.5886 749.413 38.5506 749.287 38.5C748.926 38.3567 748.725 38.0978 748.721 37.71C748.717 37.3279 748.883 37.0349 749.23 36.8557C749.616 36.6564 750.023 36.6761 750.433 36.7761C750.686 36.8383 750.92 36.9589 751.116 37.128Z" fill="black"/>
<path d="M720.987 39.2116L721.324 39.5707C721.07 40.0052 720.265 40.261 719.579 40.1186C718.852 39.9674 718.308 39.3483 718.243 38.5978C718.175 37.825 718.59 37.1235 719.285 36.8353C719.981 36.5472 720.877 36.7156 721.323 37.2244C721.206 37.3557 721.087 37.4892 720.957 37.6361C720.604 37.3321 720.217 37.1501 719.741 37.2552C719.491 37.3084 719.269 37.4484 719.116 37.6496C718.745 38.1256 718.774 38.8466 719.181 39.2763C719.425 39.5333 719.73 39.641 720.085 39.6227C720.331 39.6102 720.419 39.5725 720.987 39.2116Z" fill="black"/>
<path d="M683.654 39.5723C683.229 40.0984 682.391 40.3046 681.691 40.0591C680.973 39.8078 680.542 39.1576 680.562 38.3556C680.568 38.0021 680.687 37.6593 680.903 37.376C681.119 37.0928 681.42 36.8836 681.764 36.778C682.439 36.5706 683.297 36.7741 683.633 37.2307L683.276 37.6345C682.906 37.3232 682.503 37.1371 682.014 37.266C681.766 37.3305 681.549 37.4803 681.404 37.6883C681.056 38.1712 681.102 38.8706 681.509 39.2892C681.757 39.5442 682.064 39.6465 682.419 39.6235C682.765 39.6011 683.042 39.432 683.292 39.2046L683.654 39.5723Z" fill="black"/>
<path d="M731.476 36.7653V37.2808H730.4V40.0827H729.815V37.2926H728.733V36.7653H731.476Z" fill="black"/>
<path d="M715.685 40.0868H715.115V36.7679H715.685V40.0868Z" fill="black"/>
<path d="M733.952 36.7627H734.521V40.0843H733.952V36.7627Z" fill="black"/>
<path fill-rule="evenodd" clip-rule="evenodd" d="M811.49 18.5048H821.289L822.658 20.8153L827.558 29.3762H817.775L811.49 18.5048Z" fill="#828282"/>
<path fill-rule="evenodd" clip-rule="evenodd" d="M842.007 24.5886L839.417 29.991L836.893 24.5886H835.359L839.417 33.3821L843.541 24.5886H842.007Z" fill="black"/>
<path fill-rule="evenodd" clip-rule="evenodd" d="M849.092 30.8718C849.653 31.6198 850.263 32.0686 851.237 32.0686C852.144 32.0686 853.101 31.6697 853.101 30.7554C853.101 29.8411 852.193 29.5586 851.303 29.3923C849.719 29.0599 848.366 28.6443 848.366 26.8823C848.366 25.2366 849.95 24.3722 851.534 24.3722C852.705 24.3722 853.794 24.821 854.354 25.968C853.233 26.716 853.233 26.716 853.233 26.716C852.837 26.1342 852.276 25.6854 851.435 25.6854C850.643 25.6854 849.801 26.0844 849.801 26.8823C849.801 27.6303 850.758 27.9129 851.896 28.1456C853.414 28.4282 854.651 28.9934 854.651 30.7056C854.651 32.5839 852.969 33.3819 851.27 33.3819C849.851 33.3819 848.845 32.9829 848.003 31.7861L849.092 30.8718Z" fill="black"/>
<path fill-rule="evenodd" clip-rule="evenodd" d="M861.072 25.8013C858.597 25.8013 858.597 25.8013 858.597 25.8013C858.597 30.0733 858.597 30.0733 858.597 30.0733C858.597 31.1538 858.597 32.0681 859.834 32.0681C860.28 32.0681 860.725 31.9517 861.072 31.7356C861.138 33.0488 861.138 33.0488 861.138 33.0488C860.692 33.2815 860.065 33.3813 859.504 33.3813C857.541 33.3813 857.195 32.251 857.195 30.4723C857.195 25.8013 857.195 25.8013 857.195 25.8013C855.397 25.8013 855.397 25.8013 855.397 25.8013C855.397 24.6044 855.397 24.6044 855.397 24.6044C857.195 24.6044 857.195 24.6044 857.195 24.6044C857.195 22.2107 857.195 22.2107 857.195 22.2107C858.597 22.2107 858.597 22.2107 858.597 22.2107C858.597 24.6044 858.597 24.6044 858.597 24.6044C861.072 24.6044 861.072 24.6044 861.072 24.6044V25.8013Z" fill="black"/>
<path fill-rule="evenodd" clip-rule="evenodd" d="M907.238 25.8013C904.747 25.8013 904.747 25.8013 904.747 25.8013C904.747 30.0733 904.747 30.0733 904.747 30.0733C904.747 31.1538 904.747 32.0681 906.051 32.0681C906.446 32.0681 906.892 31.9517 907.288 31.7356C907.354 33.0488 907.354 33.0488 907.354 33.0488C906.843 33.2815 906.216 33.3813 905.655 33.3813C903.675 33.3813 903.345 32.251 903.345 30.4723C903.345 25.8013 903.345 25.8013 903.345 25.8013C901.547 25.8013 901.547 25.8013 901.547 25.8013C901.547 24.6044 901.547 24.6044 901.547 24.6044C903.345 24.6044 903.345 24.6044 903.345 24.6044C903.345 22.2107 903.345 22.2107 903.345 22.2107C904.764 22.2107 904.764 22.2107 904.764 22.2107C904.764 24.6044 904.764 24.6044 904.764 24.6044C907.255 24.6044 907.255 24.6044 907.255 24.6044V25.8013H907.238Z" fill="black"/>
<path fill-rule="evenodd" clip-rule="evenodd" d="M877.279 32.0521C879.077 32.0521 880.249 30.6226 880.249 28.8605C880.249 27.0985 879.077 25.6689 877.279 25.6689C875.481 25.6689 874.31 27.0985 874.31 28.8605C874.31 30.6226 875.481 32.0521 877.279 32.0521ZM872.907 24.5884C874.31 24.5884 874.31 24.5884 874.31 24.5884C874.31 25.8352 874.31 25.8352 874.31 25.8352C874.359 25.8352 874.359 25.8352 874.359 25.8352C875.085 24.9209 876.157 24.3557 877.329 24.3557C879.968 24.3557 881.766 26.284 881.766 28.8605C881.766 31.4205 879.918 33.3654 877.559 33.3654C876.042 33.3654 874.87 32.5674 874.359 31.6033C874.31 31.6033 874.31 31.6033 874.31 31.6033C874.31 36.3907 874.31 36.3907 874.31 36.3907C872.907 36.3907 872.907 36.3907 872.907 36.3907V24.5884Z" fill="black"/>
<path fill-rule="evenodd" clip-rule="evenodd" d="M866.487 32.0686C864.705 32.0686 863.534 30.6391 863.534 28.877C863.534 27.0983 864.705 25.6854 866.487 25.6854C868.269 25.6854 869.44 27.115 869.44 28.877C869.44 30.6391 868.269 32.0686 866.487 32.0686ZM870.825 24.5883C869.44 24.5883 869.44 24.5883 869.44 24.5883C869.44 25.8517 869.44 25.8517 869.44 25.8517C869.374 25.8517 869.374 25.8517 869.374 25.8517C868.648 24.9374 867.592 24.3722 866.421 24.3722C863.814 24.3722 862.033 26.3171 862.033 28.877C862.033 31.4369 863.88 33.3819 866.206 33.3819C867.707 33.3819 868.879 32.5839 869.374 31.6198C869.44 31.6198 869.44 31.6198 869.44 31.6198C869.44 33.1491 869.44 33.1491 869.44 33.1491C870.825 33.1491 870.825 33.1491 870.825 33.1491V24.5883Z" fill="black"/>
<path fill-rule="evenodd" clip-rule="evenodd" d="M883.137 26.649C883.137 25.8511 883.071 25.1696 883.071 24.6044C884.423 24.6044 884.423 24.6044 884.423 24.6044C884.423 25.0532 884.423 25.5686 884.423 26.034C884.489 26.034 884.489 26.034 884.489 26.034C884.885 25.1862 885.908 24.3883 887.327 24.3883C887.492 24.3883 887.723 24.4382 887.888 24.5047C887.772 25.9343 887.772 25.9343 887.772 25.9343C887.541 25.8844 887.261 25.8179 887.03 25.8179C885.331 25.8179 884.539 27.0813 884.539 29.0095C884.539 33.1653 884.539 33.1653 884.539 33.1653C883.12 33.1653 883.12 33.1653 883.12 33.1653V26.649H883.137Z" fill="black"/>
<path fill-rule="evenodd" clip-rule="evenodd" d="M893.152 26.649C893.152 25.8511 893.103 25.1696 893.103 24.6044C894.455 24.6044 894.455 24.6044 894.455 24.6044C894.455 25.0532 894.455 25.5686 894.455 26.034C894.521 26.034 894.521 26.034 894.521 26.034C894.917 25.1862 895.924 24.3883 897.326 24.3883C899.52 24.3883 900.526 25.8179 900.526 27.8626C900.526 33.1652 900.526 33.1653 900.526 33.1653C899.124 33.1653 899.124 33.1653 899.124 33.1653C899.124 28.0287 899.124 28.0287 899.124 28.0287C899.124 26.5992 898.513 25.6849 897.161 25.6849C895.363 25.6849 894.571 27.048 894.571 28.9929C894.571 33.1486 894.571 33.1486 894.571 33.1486C893.169 33.1486 893.169 33.1486 893.169 33.1486V26.649H893.152Z" fill="black"/>
<path d="M846.507 24.5886H845.138V33.1328H846.507V24.5886Z" fill="black"/>
<path fill-rule="evenodd" clip-rule="evenodd" d="M845.075 22.975C845.075 22.5095 845.454 22.1272 845.916 22.1272C846.378 22.1272 846.758 22.5095 846.758 22.975C846.758 23.4404 846.378 23.8228 845.916 23.8228C845.454 23.8228 845.075 23.4404 845.075 22.975Z" fill="black"/>
<path d="M890.88 24.5886H889.51V33.1328H890.88V24.5886Z" fill="black"/>
<path fill-rule="evenodd" clip-rule="evenodd" d="M889.367 22.975C889.367 22.5095 889.746 22.1272 890.209 22.1272C890.67 22.1272 891.05 22.5095 891.05 22.975C891.05 23.4404 890.67 23.8228 890.209 23.8228C889.73 23.8228 889.367 23.4404 889.367 22.975Z" fill="black"/>
<path fill-rule="evenodd" clip-rule="evenodd" d="M824.04 18.5048H833.757L827.554 29.3762L822.654 37.9203L817.771 29.3762L822.654 20.8153L824.04 18.5048Z" fill="black"/>
<path fill-rule="evenodd" clip-rule="evenodd" d="M909.008 22.7767C909.008 23.1756 909.008 23.1756 909.008 23.1756C909.289 23.1756 909.289 23.1756 909.289 23.1756C909.454 23.1756 909.57 23.1257 909.57 22.9429C909.57 22.8265 909.454 22.7767 909.289 22.7767H909.008ZM909.289 22.6104C909.619 22.6104 909.801 22.7268 909.801 22.9595C909.801 23.1922 909.636 23.3086 909.405 23.3584C909.801 23.8239 909.801 23.8239 909.801 23.8239C909.52 23.8239 909.52 23.8239 909.52 23.8239C909.19 23.3584 909.19 23.3584 909.19 23.3584C909.025 23.3584 909.025 23.3584 909.025 23.3584C909.025 23.8239 909.025 23.8239 909.025 23.8239C908.811 23.8239 908.811 23.8239 908.811 23.8239C908.811 22.6104 908.811 22.6104 908.811 22.6104H909.289ZM910.246 23.2421C910.246 22.6603 909.801 22.2114 909.24 22.2114C908.679 22.2114 908.233 22.6769 908.233 23.2421C908.233 23.8072 908.679 24.2727 909.24 24.2727C909.801 24.2893 910.246 23.8239 910.246 23.2421ZM910.461 23.2421C910.461 23.9403 909.899 24.5221 909.24 24.5221C908.563 24.5221 908.019 23.9403 908.019 23.2421C908.019 22.4941 908.58 21.9622 909.24 21.9622C909.916 21.9787 910.461 22.4941 910.461 23.2421Z" fill="black"/>
<path fill-rule="evenodd" clip-rule="evenodd" d="M817.771 29.3761H827.554L822.654 20.8153L817.771 29.3761Z" fill="#333333"/>
<path d="M964.603 16.9514C964.883 16.9824 965.167 16.9984 965.445 17.0464C966.473 17.2247 967.499 17.4137 968.525 17.599C966.429 18.1762 964.651 19.2632 963.164 20.8256C961.425 22.6525 960.272 24.7968 959.6 27.198C959.283 28.3306 959.16 29.4885 959.368 30.656C959.733 32.6983 960.998 34.0566 962.829 34.9512C964.527 35.7804 966.359 36.058 968.229 36.1332C969.646 36.1901 971.056 36.0763 972.453 35.8491C975.05 35.4267 977.531 34.6469 979.849 33.4061C981.069 32.7528 982.215 31.9908 983.204 31.0233C983.61 30.6268 983.985 30.2007 984.374 29.7882C984.421 30.2835 984.524 30.7811 984.505 31.2735C984.461 32.4085 984.024 33.417 983.332 34.3177C982.67 35.177 981.844 35.858 980.922 36.4286C978.687 37.8124 976.241 38.658 973.66 39.1374C972.984 39.2629 972.292 39.3066 971.608 39.3904C971.564 39.3956 971.523 39.4196 971.481 39.4346C970.812 39.4346 970.143 39.4346 969.474 39.4346C969.225 39.405 968.976 39.3683 968.726 39.3466C967.525 39.2413 966.361 38.9741 965.24 38.5386C962.594 37.5113 960.592 35.7649 959.305 33.2669C958.008 30.75 957.28 28.0657 957.001 25.2606C956.977 25.0146 956.942 24.7695 956.912 24.524C956.912 23.9441 956.912 23.3637 956.912 22.7838C956.926 22.7249 956.951 22.6666 956.954 22.6073C957 21.7763 957.145 20.963 957.437 20.1808C957.803 19.2044 958.345 18.3549 959.29 17.8182C960.047 17.3884 960.891 17.2336 961.736 17.0939C962.101 17.0337 962.469 16.998 962.835 16.9514C963.424 16.9514 964.014 16.9514 964.603 16.9514Z" fill="#4F4F4F"/>
<path d="M1051.49 29.0863C1051.46 29.1944 1051.43 29.3022 1051.39 29.4296C1049.54 29.4296 1047.69 29.4296 1045.84 29.4296C1045.69 30.2057 1046.25 31.0866 1047.04 31.3345C1047.48 31.4752 1047.94 31.4846 1048.4 31.4032C1048.89 31.3171 1049.25 31.0547 1049.46 30.6163C1049.53 30.4695 1049.62 30.4343 1049.77 30.4366C1050.31 30.4451 1050.85 30.4399 1051.44 30.4399C1051.37 30.6601 1051.32 30.8562 1051.24 31.0373C1050.9 31.7974 1050.33 32.3369 1049.56 32.6515C1048.42 33.1134 1047.27 33.1134 1046.15 32.6389C1045.06 32.1836 1044.42 31.3313 1044.11 30.2377C1043.82 29.2646 1043.84 28.2848 1044.16 27.321C1044.69 25.6682 1046.11 24.7346 1047.96 24.7891C1049.81 24.8437 1051.24 26.1537 1051.45 27.7674C1051.46 27.7853 1051.48 27.8008 1051.49 27.8173C1051.49 28.2397 1051.49 28.663 1051.49 29.0863ZM1049.69 28.0703C1049.67 27.4174 1049.44 26.8954 1048.87 26.5868C1048.09 26.172 1047.3 26.1936 1046.56 26.6466C1046.03 26.9621 1045.83 27.4678 1045.82 28.0703C1047.11 28.0703 1048.38 28.0703 1049.69 28.0703Z" fill="black"/>
<path d="M984.372 29.7873C983.983 30.1997 983.608 30.6259 983.202 31.0224C982.213 31.9904 981.068 32.7524 979.847 33.4052C977.529 34.6464 975.048 35.4259 972.451 35.8483C971.054 36.0754 969.643 36.1892 968.227 36.1323C966.357 36.0571 964.525 35.7796 962.827 34.9503C960.996 34.0557 959.731 32.6973 959.366 30.6551C959.157 29.4877 959.281 28.3297 959.598 27.1971C960.269 24.7959 961.423 22.6516 963.162 20.8248C964.649 19.2622 966.427 18.1753 968.523 17.5982C968.568 17.5958 968.612 17.5939 968.657 17.5916C968.733 17.625 968.807 17.6696 968.887 17.6904C970.602 18.1405 972.256 18.7534 973.856 19.5078C975.42 20.2472 976.925 21.09 978.317 22.1107C979.11 22.692 979.872 23.3181 980.615 23.9611C981.08 24.3622 981.492 24.8232 981.911 25.2733C982.583 25.9958 983.188 26.7742 983.618 27.6595C983.931 28.3048 984.161 28.9886 984.429 29.6556C984.41 29.6994 984.391 29.7435 984.372 29.7873ZM972.139 25.271C972.051 25.1901 971.984 25.1233 971.911 25.0626C971.129 24.406 970.232 24.1506 969.225 24.3651C967.749 24.6797 966.782 25.8819 966.771 27.396C966.763 28.5479 966.769 29.6998 966.77 30.8517C966.77 30.9185 966.78 30.9853 966.784 31.0436C967.336 31.0436 967.864 31.0436 968.407 31.0436C968.407 30.8611 968.407 30.6974 968.407 30.5337C968.408 29.4524 968.394 28.3706 968.413 27.2897C968.43 26.3998 969.242 25.7649 970.119 25.9248C970.845 26.0569 971.325 26.6336 971.329 27.3984C971.334 28.5348 971.33 29.6706 971.33 30.807C971.33 30.8888 971.33 30.9712 971.33 31.0492C971.89 31.0492 972.412 31.0492 972.955 31.0492C972.955 30.9514 972.955 30.8672 972.955 30.783C972.955 29.6862 972.954 28.5888 972.956 27.492C972.956 27.3588 972.952 27.2234 972.975 27.0936C973.108 26.3622 973.797 25.8307 974.515 25.8975C975.295 25.97 975.87 26.572 975.873 27.3373C975.879 28.4891 975.875 29.641 975.875 30.7929C975.875 30.8766 975.875 30.9599 975.875 31.0474C976.43 31.0474 976.958 31.0474 977.493 31.0474C977.497 30.9942 977.501 30.9561 977.501 30.918C977.501 29.6956 977.511 28.4731 977.497 27.2507C977.475 25.3711 975.633 23.9512 973.772 24.3604C973.14 24.5001 972.607 24.8068 972.139 25.271ZM966.055 22.0246C965.405 22.0209 964.89 22.5228 964.886 23.1643C964.883 23.8002 965.406 24.3223 966.046 24.3199C966.689 24.3176 967.222 23.7983 967.221 23.1737C967.221 22.5396 966.702 22.0284 966.055 22.0246Z" fill="black"/>
<path d="M1006.92 22.0229C1006.92 25.623 1006.92 29.1877 1006.92 32.7661C1006.27 32.7661 1005.63 32.7661 1004.98 32.7661C1004.98 30.7018 1004.98 28.6501 1004.98 26.5985C1004.96 26.5938 1004.95 26.5891 1004.94 26.5849C1004.9 26.6545 1004.86 26.7231 1004.83 26.7941C1003.92 28.715 1003.01 30.635 1002.11 32.5597C1002.03 32.7276 1001.95 32.7944 1001.76 32.7845C1001.42 32.7671 1001.07 32.7694 1000.73 32.784C1000.57 32.7911 1000.49 32.7318 1000.43 32.5917C999.509 30.6331 998.583 28.6769 997.659 26.7203C997.639 26.6789 997.618 26.6375 997.565 26.599C997.565 28.6501 997.565 30.7009 997.565 32.7657C996.897 32.7657 996.256 32.7657 995.606 32.7657C995.606 29.1891 995.606 25.6239 995.606 22.0229C995.848 22.0229 996.09 22.0229 996.333 22.0229C996.636 22.0229 996.939 22.0351 997.241 22.0182C997.422 22.0083 997.5 22.0794 997.576 22.2341C998.775 24.694 999.982 27.1507 1001.19 29.6077C1001.21 29.6496 1001.23 29.6915 1001.27 29.7668C1001.32 29.6726 1001.35 29.6026 1001.39 29.5307C1002.57 27.1206 1003.75 24.7119 1004.91 22.2971C1005.02 22.0774 1005.14 22.0083 1005.38 22.0172C1005.89 22.036 1006.39 22.0229 1006.92 22.0229Z" fill="black"/>
<path d="M1041.18 31.7934C1040.74 32.3771 1040.15 32.7369 1039.44 32.8968C1037.81 33.2646 1036.03 32.4242 1035.21 30.9012C1034.11 28.8697 1034.85 26.2818 1036.83 25.2537C1037.88 24.7109 1038.98 24.5914 1040.09 25.0895C1040.53 25.2856 1040.89 25.5834 1041.21 26.0067C1041.21 25.6421 1041.21 25.3322 1041.21 25.0053C1041.83 25.0053 1042.44 25.0053 1043.07 25.0053C1043.07 25.0852 1043.07 25.1615 1043.07 25.2377C1043.07 27.8787 1043.07 30.5202 1043.06 33.1612C1043.06 33.5652 1043.02 33.9777 1042.92 34.3709C1042.67 35.4212 1042.03 36.1672 1040.99 36.5275C1039.68 36.9832 1038.34 37.0477 1037.02 36.5567C1035.75 36.0835 1035.03 35.1521 1034.86 33.8173C1034.85 33.7722 1034.86 33.7256 1034.86 33.6677C1035.48 33.6677 1036.09 33.6677 1036.7 33.6677C1037.04 34.8676 1037.89 35.3864 1039.24 35.2317C1039.41 35.2129 1039.57 35.1879 1039.74 35.1512C1040.58 34.9598 1041.1 34.4231 1041.17 33.5774C1041.22 32.9914 1041.18 32.3973 1041.18 31.7934ZM1036.55 28.8781C1036.58 29.095 1036.59 29.3151 1036.64 29.5282C1037.03 31.2723 1039.11 31.9646 1040.42 30.7709C1041.11 30.1331 1041.3 29.3132 1041.17 28.4064C1040.96 26.9855 1039.58 26.0974 1038.2 26.5024C1037.22 26.7903 1036.56 27.7451 1036.55 28.8781Z" fill="black"/>
<path d="M984.437 29.6554C984.17 28.9884 983.94 28.3046 983.626 27.6593C983.197 26.774 982.592 25.9956 981.919 25.2731C981.501 24.8231 981.088 24.362 980.624 23.9608C979.881 23.3179 979.119 22.6919 978.325 22.1105C976.934 21.0899 975.429 20.247 973.864 19.5085C972.265 18.7536 970.611 18.1408 968.896 17.6911C968.816 17.67 968.742 17.6257 968.665 17.5924C969.361 17.4884 970.054 17.3374 970.754 17.2894C972.747 17.153 974.607 17.693 976.41 18.4639C978.571 19.3877 980.603 20.5292 982.435 21.9953C983.458 22.8141 984.391 23.7187 985.065 24.8513C985.36 25.3484 985.576 25.8771 985.656 26.4504C985.716 26.8808 985.698 27.3131 985.546 27.7255C985.286 28.4278 984.91 29.0693 984.437 29.6554Z" fill="#4F4F4F"/>
<path d="M1032 25.9154C1032 25.6411 1032 25.3312 1032 25.0052C1032.63 25.0052 1033.23 25.0052 1033.85 25.0052C1033.85 27.5888 1033.85 30.1649 1033.85 32.7608C1033.24 32.7608 1032.63 32.7608 1032.01 32.7608C1032.01 32.4391 1032.01 32.1221 1032.01 31.7448C1031.61 32.2811 1031.13 32.6103 1030.56 32.806C1029.12 33.2942 1027.37 32.7345 1026.38 31.473C1024.75 29.3903 1025.46 26.2239 1027.82 25.159C1028.9 24.6722 1030 24.596 1031.07 25.1938C1031.41 25.3852 1031.7 25.6759 1032 25.9154ZM1029.89 31.3493C1030.66 31.3253 1031.37 30.87 1031.78 29.9744C1032.04 29.3969 1032.08 28.7901 1031.91 28.1815C1031.67 27.2972 1031.13 26.6768 1030.2 26.4708C1029.31 26.2723 1028.52 26.5075 1027.93 27.2172C1027.43 27.8202 1027.29 28.5296 1027.38 29.2939C1027.53 30.4843 1028.48 31.3493 1029.89 31.3493Z" fill="black"/>
<path d="M1014.3 25.9022C1014.3 25.6327 1014.3 25.3218 1014.3 24.9996C1014.92 24.9996 1015.52 24.9996 1016.14 24.9996C1016.14 27.5884 1016.14 30.1711 1016.14 32.767C1015.53 32.767 1014.93 32.767 1014.31 32.767C1014.31 32.4504 1014.31 32.1409 1014.31 31.814C1014.26 31.8295 1014.24 31.8305 1014.23 31.8436C1013.34 32.8972 1012.2 33.1606 1010.9 32.8709C1008.82 32.4081 1007.63 30.4824 1007.81 28.5413C1007.95 26.9718 1008.72 25.7794 1010.2 25.1242C1011.21 24.6798 1012.26 24.6125 1013.26 25.1425C1013.64 25.3396 1013.95 25.6435 1014.3 25.9022ZM1014.32 28.8945C1014.28 28.6255 1014.25 28.3503 1014.18 28.0888C1013.91 27.1128 1013.08 26.4572 1012.09 26.4097C1011.09 26.3617 1010.22 26.9083 1009.85 27.8429C1009.64 28.3499 1009.6 28.8739 1009.7 29.4119C1009.95 30.8328 1011.31 31.6743 1012.69 31.2453C1013.65 30.9439 1014.29 30.0187 1014.32 28.8945Z" fill="black"/>
<path d="M1024.57 32.7667C1023.95 32.7667 1023.34 32.7667 1022.73 32.7667C1022.73 32.5118 1022.73 32.2696 1022.73 32.0274C1022.71 30.7348 1022.71 29.4423 1022.68 28.1498C1022.68 27.9419 1022.62 27.7307 1022.56 27.5294C1022.38 26.9245 1022 26.5083 1021.35 26.4189C1020.65 26.3244 1020.03 26.4734 1019.58 27.0609C1019.21 27.5619 1019.11 28.1474 1019.11 28.7514C1019.1 29.9973 1019.11 31.2432 1019.11 32.4897C1019.11 32.5753 1019.11 32.6609 1019.11 32.7635C1018.49 32.7635 1017.88 32.7635 1017.26 32.7635C1017.26 30.1775 1017.26 27.6023 1017.26 25.0079C1017.87 25.0079 1018.47 25.0079 1019.1 25.0079C1019.1 25.331 1019.1 25.6569 1019.1 25.9838C1019.13 25.9819 1019.15 25.9862 1019.15 25.9791C1019.79 25.0676 1020.72 24.7675 1021.78 24.7924C1022.1 24.8 1022.42 24.8381 1022.72 24.9208C1023.78 25.2082 1024.33 25.9364 1024.49 26.9701C1024.55 27.3709 1024.57 27.7815 1024.58 28.1875C1024.59 29.653 1024.58 31.1181 1024.58 32.5838C1024.58 32.6378 1024.58 32.6919 1024.57 32.7667Z" fill="black"/>
<path d="M991.925 32.757C991.925 30.3314 991.925 27.9129 991.925 25.4779C992.529 25.4779 993.135 25.4779 993.753 25.4779C993.753 27.9016 993.753 30.3192 993.753 32.757C993.151 32.757 992.551 32.757 991.925 32.757Z" fill="black"/>
<path d="M992.824 22.0247C993.476 22.026 993.989 22.5274 993.996 23.1691C994.003 23.7951 993.475 24.3167 992.829 24.3223C992.189 24.3279 991.662 23.8083 991.664 23.1728C991.665 22.5265 992.174 22.0233 992.824 22.0247Z" fill="black"/>
<path d="M1154.92 15.5647L1160.13 17.6398L1154.92 19.6026V22.4066L1163.85 18.7613V16.5181L1154.92 12.8728V15.5647Z" fill="black"/>
<path d="M1107.06 25.9957C1104.56 25.9957 1102.73 27.1173 1102.56 29.4728H1105.34V29.4166C1105.39 28.6315 1106.11 28.0707 1106.89 28.1268C1107.95 28.1268 1108.44 28.7437 1108.44 29.8092V30.314H1107.17C1104.45 30.314 1102.23 31.1552 1102.23 33.791V33.9032C1102.23 36.0343 1103.78 36.9877 1105.67 36.9877C1106.84 37.0438 1107.89 36.4829 1108.56 35.5857V36.8195H1111.38V29.7532C1111.33 27.0613 1109.5 25.9957 1107.06 25.9957ZM1106.45 34.9127C1105.45 34.9127 1105 34.408 1105 33.6789V33.5667C1105 32.6133 1105.73 32.2208 1107.17 32.2208H1108.33V33.2302C1108.39 34.3519 1107.45 34.9127 1106.45 34.9127Z" fill="black"/>
<path d="M1118.03 34.8005C1116.64 34.8005 1115.92 33.8471 1115.92 31.716V31.3795C1115.92 29.3045 1116.75 28.2951 1118.03 28.2951C1119.03 28.2951 1119.58 28.968 1119.75 29.9775H1122.52C1122.3 27.2295 1120.3 25.9957 1117.97 25.9957C1115.2 25.9957 1112.98 27.9025 1112.98 31.4917V31.6038C1112.98 35.1931 1115.09 36.9877 1117.97 36.9877C1120.8 36.9877 1122.41 35.2491 1122.64 32.8938H1119.97C1119.75 34.0714 1119.03 34.8005 1118.03 34.8005Z" fill="black"/>
<path d="M1128.85 34.8005C1127.46 34.8005 1126.74 33.8471 1126.74 31.716V31.3795C1126.74 29.3045 1127.57 28.2951 1128.85 28.2951C1129.84 28.2951 1130.4 28.968 1130.57 29.9775H1133.34C1133.12 27.2295 1131.12 25.9957 1128.79 25.9957C1126.02 25.9957 1123.8 27.9025 1123.8 31.4917V31.6038C1123.8 35.1931 1125.91 36.9877 1128.79 36.9877C1131.62 36.9877 1133.23 35.2491 1133.4 32.8938H1130.79C1130.62 34.0714 1129.84 34.8005 1128.85 34.8005Z" fill="black"/>
<path d="M1139.79 34.8566C1138.51 34.8566 1137.74 34.1276 1137.62 32.2208H1144.39V30.987C1144.39 27.5099 1142.23 25.9957 1139.62 25.9957C1136.79 25.9957 1134.63 27.9585 1134.63 31.4917V31.716C1134.63 35.2492 1136.68 37.0438 1139.68 37.0438C1142.4 37.0438 1144.06 35.5296 1144.34 33.5106H1141.62C1141.51 34.3519 1140.68 34.9688 1139.79 34.8566ZM1139.62 28.0147C1140.79 28.0147 1141.51 28.6876 1141.56 30.2579H1137.68C1137.9 28.5755 1138.73 28.0707 1139.62 28.0147Z" fill="black"/>
<path d="M1152.27 25.9957C1150.94 25.9396 1149.72 26.6125 1149.11 27.7903V26.22H1146.22V36.7634H1149.11V30.314C1149.11 30.2018 1149.11 30.1457 1149.11 30.0335C1149.16 29.0802 1150 28.295 1150.94 28.3511C1151.99 28.3511 1152.49 28.9119 1152.49 30.1457V36.7634H1155.43V29.6971C1155.43 27.1173 1154.16 25.9957 1152.27 25.9957Z" fill="black"/>
<path d="M1160.86 33.3988V28.4075H1162.85V26.2203H1160.86V23.0237L1157.97 24.2575V26.2203H1156.7V28.4075H1157.92V33.7353C1157.92 35.8664 1158.97 36.932 1161.24 36.932C1161.8 36.932 1162.35 36.8759 1162.91 36.7076V34.4082C1162.58 34.5204 1162.24 34.5765 1161.91 34.5765C1161.24 34.5765 1160.86 34.1839 1160.86 33.3988Z" fill="black"/>
<path d="M1170.9 32.782C1170.9 32.8941 1170.9 32.9502 1170.9 33.0624C1170.84 34.0158 1170.01 34.8009 1169.07 34.7449C1168.01 34.7449 1167.57 34.184 1167.57 32.9502V26.2205H1164.63V33.3428C1164.63 35.8104 1166.02 36.9881 1167.9 36.9881C1169.18 37.0442 1170.34 36.3712 1170.95 35.1935V36.7638H1173.9V26.2205H1170.95L1170.9 32.782Z" fill="black"/>
<path d="M1178.9 28.1268V26.1639H1176.01V36.7073H1178.9V31.2674C1178.9 29.5289 1180.06 28.9119 1182.06 28.9119V25.9957C1180.62 25.9957 1179.34 26.8369 1178.9 28.1268Z" fill="black"/>
<path d="M1192.71 30.9309C1192.71 27.4538 1190.54 25.9957 1187.94 25.9957C1185.11 25.9957 1182.94 27.9585 1182.94 31.4917V31.716C1182.94 35.2492 1184.99 37.0438 1187.99 37.0438C1190.71 37.0438 1192.32 35.5296 1192.65 33.5106H1189.93C1189.71 34.408 1188.88 34.9688 1187.99 34.9127C1186.71 34.9127 1185.94 34.1836 1185.83 32.2768H1192.6V30.9309H1192.71ZM1185.94 30.2579C1186.16 28.5194 1186.99 28.0147 1187.94 28.0147C1189.1 28.0147 1189.82 28.6876 1189.88 30.2579H1185.94Z" fill="black"/>
</g>
<rect x="-71.1281" y="0.407227" width="156.022" height="229.444" fill="url(#paint0_linear_0_147)"/>
<rect x="1082.98" y="0.407227" width="156.022" height="229.444" fill="url(#paint1_linear_0_147)"/>
<defs>
<linearGradient id="paint0_linear_0_147" x1="-71.1281" y1="115.129" x2="84.8942" y2="115.129" gradientUnits="userSpaceOnUse">
<stop offset="0.1" stop-color="white"/>
<stop offset="1" stop-color="white" stop-opacity="0"/>
</linearGradient>
<linearGradient id="paint1_linear_0_147" x1="1239" y1="115.129" x2="1082.98" y2="115.129" gradientUnits="userSpaceOnUse">
<stop offset="0.1" stop-color="white"/>
<stop offset="1" stop-color="white" stop-opacity="0"/>
</linearGradient>
<clipPath id="clip0_0_147">
<rect width="1310.13" height="55.4969" fill="white" transform="translate(-71.1281 0.407227)"/>
</clipPath>
</defs>
</svg>
