<svg width="122" height="29" viewBox="0 0 122 29" fill="none" xmlns="http://www.w3.org/2000/svg">
<g clip-path="url(#clip0_0_511)">
<path d="M12.364 1.26461C9.60236 1.43232 6.6283 2.84109 4.43688 5.02132C2.14484 7.291 0.69135 10.3769 0.456556 13.4963C0.322388 15.397 0.736073 18.0356 1.42928 19.5562C1.57463 19.8693 1.73115 20.2606 1.79824 20.4171C1.85414 20.5737 2.23429 21.1998 2.63679 21.8259C3.35236 22.9104 4.4816 24.1515 5.49905 24.9789C6.80719 26.041 8.89798 27.0361 10.7428 27.4833C11.8832 27.7628 12.2186 27.7964 13.8175 27.7964C15.4387 27.7852 15.7294 27.7517 16.9034 27.4498C17.6189 27.2597 18.6252 26.9243 19.1395 26.6895C20.3917 26.1528 22.0577 25.0124 23.0751 24.0061C23.8689 23.2347 25.1659 21.5352 25.1659 21.278C25.1659 21.211 25.2106 21.1551 25.2665 21.1551C25.5125 21.1551 26.4293 18.7736 26.7647 17.2977C27.212 15.274 27.0331 11.9645 26.3846 10.2315C25.1882 7.03384 23.2763 4.6859 20.5259 3.03116C18.0997 1.57767 15.7182 1.06336 12.364 1.26461ZM15.8859 9.65013C15.8859 9.76193 15.7182 9.85138 15.4163 9.92964C14.9803 10.0191 14.9356 10.0638 14.902 10.4104C14.8685 10.7794 14.9803 11.126 16.2884 14.5584C17.5295 17.8232 17.6972 18.2481 17.7754 18.2928C17.9208 18.3822 17.9655 18.2704 19.1842 15.0616C19.3184 14.6926 19.7209 13.6416 20.0675 12.736C20.7048 11.0589 20.7831 10.6787 20.5818 10.3098C20.47 10.0862 19.9221 9.86256 19.5085 9.86256C19.3184 9.86256 19.2401 9.79548 19.2401 9.65013C19.2401 9.46005 19.3407 9.44887 20.8054 9.46005C22.2142 9.47124 22.3707 9.4936 22.3707 9.66131C22.3707 9.77311 22.3036 9.86256 22.2365 9.86256C22.0129 9.87374 21.521 10.3321 21.3309 10.7011C21.2415 10.88 20.7271 12.1658 20.2017 13.5522C19.665 14.9386 19.1842 16.1685 19.1283 16.2915C19.0612 16.4144 18.7146 17.3201 18.3345 18.304C17.9655 19.2879 17.5966 20.2271 17.5295 20.3948C17.2947 20.965 17.0822 20.7637 16.6238 19.5562C15.707 17.1524 15.1927 15.8219 14.9803 15.3746C14.8685 15.1063 14.7678 14.8491 14.7678 14.7932C14.7678 14.7485 14.6113 14.3348 14.4212 13.8764C14.2312 13.418 14.0076 12.8478 13.9293 12.6018C13.5491 11.4614 13.0572 10.4551 12.733 10.1533C12.3975 9.8402 12.3864 9.8402 11.1677 9.88492C9.43465 9.94082 9.50173 9.82902 9.53528 12.6466L9.56882 14.838L10.016 14.8715C10.6198 14.9162 11.2906 14.6814 11.5478 14.3237C11.6708 14.1671 11.7938 13.7646 11.8273 13.4068C11.8832 12.859 11.9279 12.7695 12.1292 12.7695C12.364 12.7695 12.364 12.8031 12.364 15.0616C12.3752 17.1524 12.3528 17.3536 12.1851 17.3536C12.0398 17.3536 11.9727 17.2195 11.9168 16.8729C11.7826 15.9449 11.7379 15.8107 11.4584 15.5535C11.2236 15.3299 11.0335 15.2852 10.3403 15.2517L9.50173 15.2069L9.53528 17.5213C9.58 20.406 9.47937 20.2606 11.3577 20.2606C12.0398 20.2606 12.7777 20.2047 12.9901 20.1376C13.7616 19.8693 14.1976 19.2096 14.3877 17.935C14.4436 17.5772 14.5107 17.4654 14.6672 17.4654C14.8461 17.4654 14.8685 17.5996 14.902 19.0307L14.9356 20.596H10.7763C8.10415 20.596 6.60594 20.5513 6.60594 20.4842C6.60594 20.4283 6.81837 20.3389 7.07553 20.3053C7.99234 20.1488 7.94762 20.4171 7.94762 15.0839C7.94762 12.49 7.9029 10.3098 7.85817 10.2427C7.72401 10.0303 7.31032 9.86256 6.95254 9.86256C6.69538 9.86256 6.60594 9.80666 6.60594 9.66131C6.60594 9.48242 6.89663 9.47124 11.2459 9.47124C15.3716 9.47124 15.8859 9.4936 15.8859 9.65013Z" fill="black"/>
<path d="M104.784 8.74444C103.666 8.97923 102.581 9.90723 102.313 10.8464C102.257 11.07 102.201 11.5396 102.201 11.875C102.201 13.5745 102.972 14.3683 105.399 15.1733C106.975 15.71 107.344 16.0231 107.344 16.8393C107.344 17.0405 107.232 17.4318 107.087 17.7002C106.874 18.0803 106.718 18.2368 106.327 18.3822C105.331 18.7623 104.28 18.5834 103.386 17.8902C103.084 17.6554 102.771 17.4654 102.693 17.4654C102.246 17.4654 101.642 18.058 101.642 18.5052C101.642 18.7288 102.57 19.545 103.151 19.8469C104.269 20.4171 105.454 20.5065 106.64 20.1264C107.266 19.9251 107.523 19.7574 108.082 19.1984C108.876 18.4157 109.055 17.9797 109.066 16.8504C109.077 15.6317 108.976 15.3075 108.35 14.6814C107.791 14.1335 107.411 13.9546 104.974 13.0602C104.035 12.7136 103.688 12.0204 104.09 11.2601C104.571 10.3545 105.745 10.1085 106.863 10.6787C107.176 10.8464 107.467 11.0253 107.512 11.0924C107.545 11.1483 107.758 11.2042 107.959 11.2042C108.272 11.2042 108.395 11.1371 108.63 10.7905C108.786 10.5557 108.909 10.2874 108.909 10.1867C108.909 9.95195 108.048 9.24757 107.433 8.96805C106.863 8.72208 105.477 8.59909 104.784 8.74444Z" fill="black"/>
<path d="M34.7925 8.90102C34.703 9.00164 34.6807 10.6005 34.6919 14.6255L34.7254 20.2047L38.1355 20.2382C40.0139 20.2494 41.6574 20.2382 41.8028 20.2047C42.0264 20.1488 42.0488 20.0817 42.0488 19.4444C42.0488 19.0419 41.9929 18.6841 41.9146 18.6059C41.814 18.5052 41.0425 18.4717 39.1194 18.4717H36.4584V16.9064V15.3411L38.7281 15.3187L40.9866 15.2852V14.4466V13.6081L38.7281 13.5745L36.4584 13.5522V12.0428V10.5334L39.2312 10.511L41.9929 10.4775L42.0264 9.77311C42.0488 9.34824 42.004 9.00164 41.9258 8.90102C41.7357 8.6774 34.9826 8.66622 34.7925 8.90102Z" fill="black"/>
<path d="M46.2415 8.87855C46.2079 8.95682 46.1967 11.5396 46.2079 14.6142L46.2415 20.2046L49.5733 20.2381L52.894 20.2605V19.366V18.4716H50.4901H48.0863L48.0639 13.6303L48.0304 8.80029L47.1583 8.76675C46.5322 8.74439 46.275 8.77793 46.2415 8.87855Z" fill="black"/>
<path d="M56.5277 8.87855C56.4942 8.95682 56.483 11.5396 56.4942 14.6142L56.5277 20.2046L59.8596 20.2381L63.1802 20.2605V19.366V18.4716H60.7764H58.3725L58.3502 13.6303L58.3166 8.80029L57.4445 8.76675C56.8184 8.74439 56.5613 8.77793 56.5277 8.87855Z" fill="black"/>
<path d="M66.814 8.87855C66.7804 8.95681 66.7693 11.5396 66.7804 14.6142L66.814 20.2046H70.4477H74.0814L74.115 19.6008C74.1373 19.2654 74.1262 18.8741 74.0814 18.7287L74.0255 18.4716H71.3422H68.6588V16.9063V15.341L70.8726 15.3186L73.0752 15.2851L73.1087 14.413L73.1423 13.5521H70.8949H68.6588V12.0427V10.5333H71.2639C73.1423 10.5333 73.9025 10.4998 74.0032 10.3991C74.1373 10.265 74.1932 9.23633 74.0702 8.92327C74.0143 8.76674 73.5895 8.74438 70.4365 8.74438C67.6749 8.74438 66.8475 8.77792 66.814 8.87855Z" fill="black"/>
<path d="M77.089 8.9121C77.0107 9.10217 77.0666 9.24752 77.7151 10.8128C78.4754 12.6241 79.8171 15.8441 80.4432 17.4094C80.7674 18.2033 81.1811 19.176 81.3488 19.5561L81.6619 20.2605H82.3103H82.9588L83.2272 19.6679C83.3837 19.3549 83.7638 18.4269 84.0881 17.633C84.4011 16.828 84.7589 15.9783 84.8707 15.7211C84.9937 15.4752 85.1502 15.0727 85.2397 14.8267C85.4745 14.1894 86.3019 12.2328 86.559 11.6961C86.6708 11.4501 86.7714 11.1706 86.7714 11.0812C86.7714 10.9917 86.8162 10.8687 86.8721 10.8016C87.0398 10.6339 87.6659 8.94564 87.5988 8.84501C87.5653 8.78911 87.1963 8.74439 86.7714 8.74439C86.0559 8.74439 85.9888 8.76675 85.7205 9.07981C85.5639 9.26988 85.3739 9.63884 85.3068 9.896C85.2397 10.1532 85.1391 10.4215 85.0832 10.4774C85.0384 10.5445 84.8148 11.0588 84.6024 11.6178C84.39 12.1769 84.1663 12.7247 84.0993 12.8477C84.0322 12.9595 83.8868 13.2949 83.7638 13.608C83.2495 14.972 82.6122 16.5261 82.5116 16.6156C82.4557 16.6827 82.411 16.828 82.411 16.951C82.411 17.32 82.2433 17.0293 81.7401 15.7882C81.483 15.1397 81.1811 14.413 81.0581 14.1558C80.9463 13.9099 80.7898 13.5074 80.7003 13.2614C80.4991 12.7247 79.7612 10.9358 79.5487 10.4774C79.4705 10.2873 79.3251 9.91836 79.2245 9.65002C78.9673 8.92328 78.7102 8.74439 77.8604 8.74439C77.3349 8.74439 77.1337 8.78911 77.089 8.9121Z" fill="black"/>
<path d="M91.132 14.5024V20.2605L94.7433 20.2381L98.3435 20.2046V19.366V18.5275L95.6378 18.4939L92.9209 18.4716V16.9063V15.341L95.1905 15.3186L97.449 15.2851V14.4465V13.608L95.1905 13.5744L92.9209 13.5521V12.0427V10.5333L95.6378 10.5109L98.3435 10.4774V9.63884V8.80029L94.7433 8.76675L91.132 8.74439V14.5024Z" fill="black"/>
<path d="M111.95 9.60535L111.984 10.4774L113.739 10.511L115.506 10.5445L115.528 15.3746L115.562 20.2046L116.434 20.2382L117.295 20.2717V15.4081V10.5333L119.117 10.511L120.929 10.4774V9.63889V8.80034L116.423 8.7668L111.917 8.74444L111.95 9.60535Z" fill="black"/>
</g>
<defs>
<clipPath id="clip0_0_511">
<rect width="121.981" height="28.7344" fill="white" transform="translate(0.00927734 0.0234375)"/>
</clipPath>
</defs>
</svg>
