<svg width="106" height="23" viewBox="0 0 106 23" fill="none" xmlns="http://www.w3.org/2000/svg">
<g clip-path="url(#clip0_0_395)">
<path fill-rule="evenodd" clip-rule="evenodd" d="M9.51311 0.475636C7.44868 0.785549 5.39418 1.65153 3.88834 2.84616C1.02 5.12187 -0.507791 8.98969 0.152479 12.3037C0.453285 13.8132 0.79846 14.6083 1.10393 14.495C1.23027 14.4483 4.67329 12.9337 8.75508 11.1296C13.7796 8.90865 16.3762 7.68409 16.795 7.33787C17.6397 6.63977 18.005 5.89955 18.005 4.88631C18.005 3.55225 17.2292 2.45638 15.5685 1.4443C14.2613 0.647584 11.4077 0.191137 9.51311 0.475636ZM73.1697 3.98954L73.1277 5.91378L72.0373 5.95648L70.9469 5.99918V6.86415V7.72912H72.0657H73.1844L73.2314 11.4687C73.2822 15.5365 73.3099 15.6789 74.2293 16.6277C74.8876 17.3069 76.8069 17.6565 78.2978 17.3685C78.7653 17.2782 78.7678 17.2727 78.7678 16.3519V15.4261H77.6299C76.3196 15.4261 76.0122 15.3067 75.6559 14.6593C75.4361 14.2601 75.3973 13.7242 75.3912 10.9967L75.3838 7.80173L76.9254 7.76034L78.467 7.71896V6.85776V5.99656L76.9254 5.95517L75.3838 5.91378L75.3418 3.98954L75.2999 2.06528H74.2558H73.2117L73.1697 3.98954ZM80.4907 2.42181C79.9614 2.93272 79.9747 3.82063 80.5178 4.23308C81.5759 5.03677 82.9775 4.05445 82.4644 2.86882C82.0937 2.01198 81.1389 1.79574 80.4907 2.42181ZM30.6697 5.96302C27.4924 7.05454 26.0749 11.2754 27.7409 14.6837C29.1536 17.5734 33.3588 18.4894 36.3214 16.5528C36.9987 16.1103 37.5376 15.428 37.9288 14.5184L38.1631 13.9738H36.9946C35.8359 13.9738 35.8243 13.9776 35.6223 14.4179C35.5104 14.6622 35.1434 15.0381 34.807 15.253C34.3043 15.5742 33.9923 15.6522 33.0563 15.6901C32.0497 15.7309 31.8212 15.6887 31.0908 15.3271C30.1159 14.8443 29.493 13.9872 29.3419 12.9209L29.2443 12.2311H33.7187H38.1932L38.1285 10.7425C38.0784 9.5886 37.9882 9.10267 37.7269 8.58072C37.2145 7.55687 36.4763 6.81623 35.4256 6.27163C34.5539 5.81983 34.3483 5.77481 32.9701 5.73399C31.7916 5.69914 31.2937 5.74866 30.6697 5.96302ZM43.6143 6.0002C43.0232 6.28267 42.3926 6.8659 41.9656 7.52522C41.8152 7.75744 41.7849 7.65621 41.7776 6.89406L41.7687 5.9864H40.6407H39.5126V11.6502V17.314H40.6274H41.7421L41.7931 13.6471C41.843 10.0427 41.8507 9.96634 42.2383 9.16817C42.7648 8.08405 43.3639 7.68119 44.5447 7.61729C45.7103 7.55427 46.317 7.8912 46.7798 8.85855C47.0866 9.49972 47.1112 9.79757 47.1566 13.4292L47.205 17.314H48.3111H49.4171L49.4657 13.5018C49.5117 9.89706 49.5325 9.65714 49.8462 9.09076C50.2256 8.40602 50.9445 7.77079 51.4894 7.63878C51.6944 7.58912 52.2095 7.5807 52.6341 7.62006C53.2778 7.67989 53.4873 7.77705 53.8934 8.20503C54.1613 8.48734 54.4528 8.96949 54.5411 9.27666C54.6357 9.60544 54.702 11.372 54.7025 13.5745L54.7034 17.314H55.8413H56.9793L56.9317 12.9209C56.8856 8.64855 56.8743 8.50681 56.5244 7.75904C56.1092 6.8717 55.2611 6.10665 54.4239 5.86455C53.423 5.57498 51.8707 5.65369 51.0174 6.03737C50.2432 6.38549 49.3934 7.18233 49.214 7.72839C49.1246 7.99997 49.055 7.94406 48.6366 7.266C47.9642 6.17606 46.971 5.69594 45.3891 5.69609C44.5364 5.69609 44.0905 5.77262 43.6143 6.0002ZM62.5243 6.00571C61.3694 6.43921 60.4003 7.15881 59.7652 8.05457C58.9067 9.26546 58.7116 9.92349 58.6997 11.6502C58.6898 13.0718 58.7212 13.2407 59.1651 14.1452C60.1048 16.0606 61.7069 17.1935 63.9076 17.4986C66.1014 17.8027 68.4263 16.9148 69.6495 15.3057C71.9722 12.2507 70.9379 7.87042 67.5093 6.24054C66.6115 5.81387 66.3772 5.76769 64.9366 5.73313C63.6132 5.70162 63.215 5.74663 62.5243 6.00571ZM98.6004 5.92351C96.2969 6.6084 94.861 8.77358 94.861 11.5623C94.861 13.6715 95.4742 15.1904 96.7705 16.2922C97.798 17.1655 98.8572 17.5046 100.576 17.5104C102.299 17.5163 103.336 17.1812 104.403 16.2742C105.026 15.7447 105.84 14.5266 105.84 14.1239C105.84 14.034 105.404 13.976 104.75 13.9794L103.66 13.9849L103.24 14.5697C102.517 15.5787 100.912 15.9864 99.3314 15.5626C98.2208 15.2648 97.2652 14.0884 97.0675 12.7757L96.9856 12.2311H101.41H105.835L105.933 11.8521C106.125 11.1151 105.884 9.39747 105.471 8.554C104.96 7.51229 103.708 6.39696 102.601 5.99672C101.606 5.63742 99.6812 5.60213 98.6004 5.92351ZM80.2719 11.6502V17.314H81.3247H82.3775V11.6502V5.9864H81.3247H80.2719V11.6502ZM83.4288 6.08921C83.4279 6.15253 84.593 8.70403 86.0177 11.7591L88.6083 17.314H89.3735H90.1389L92.6755 11.9044C94.0704 8.92897 95.2722 6.37765 95.3459 6.23459C95.4699 5.99366 95.3895 5.97755 94.2585 6.01676L93.0372 6.05901L91.2481 10.0346C90.2642 12.2211 89.4313 14.0369 89.3973 14.0697C89.3633 14.1025 88.5285 12.3135 87.5424 10.0941L85.7491 6.05901L84.5898 6.0166C83.9521 5.99323 83.4296 6.0259 83.4288 6.08921ZM33.839 7.44737C34.4899 7.62194 35.3678 8.31308 35.6807 8.89717C35.7983 9.11662 35.9388 9.56435 35.9931 9.89227L36.0919 10.4884H32.6886C28.8876 10.4884 29.0778 10.5491 29.4564 9.45716C30.0341 7.79113 31.911 6.93037 33.839 7.44737ZM102.017 7.63966C103.093 8.12356 103.466 8.63649 103.799 10.089L103.891 10.4884H100.504H97.117L97.1203 10.089C97.125 9.52556 97.6004 8.60063 98.1339 8.11701C99.0885 7.25162 100.71 7.05222 102.017 7.63966ZM13.4929 10.6153C9.56365 12.3525 6.13686 13.8818 5.87802 14.0138C3.46315 15.2447 3.11211 17.7301 5.0869 19.614C5.79831 20.2928 6.61936 20.7449 7.92801 21.1788C9.21486 21.6053 12.4273 21.5702 13.9441 21.1129C17.7554 19.9638 20.3181 17.4842 21.4793 13.8224C21.8705 12.5887 21.9457 10.3173 21.6329 9.18139C21.3703 8.22768 20.9916 7.43736 20.8022 7.44781C20.7114 7.45275 17.4222 8.87815 13.4929 10.6153ZM66.368 7.92866C67.9158 8.62459 68.7883 10.1535 68.6561 11.9382C68.4923 14.149 66.958 15.5713 64.7369 15.5713C63.5063 15.5713 62.3598 15.0412 61.6666 14.1517C61.0686 13.3842 60.8718 12.7268 60.8708 11.4919C60.8693 9.80803 62.036 8.16726 63.5477 7.72693C64.3705 7.48731 65.5786 7.57373 66.368 7.92866Z" fill="black"/>
</g>
<defs>
<clipPath id="clip0_0_395">
<rect width="106" height="22" fill="white" transform="translate(0 0.390625)"/>
</clipPath>
</defs>
</svg>
