<svg width="47" height="46" viewBox="0 0 47 46" fill="none" xmlns="http://www.w3.org/2000/svg">
<path d="M15.6801 14.7262C15.6801 12.496 17.4881 10.688 19.7183 10.688H23.7565V18.7644H19.7183C17.4881 18.7644 15.6801 16.9564 15.6801 14.7262Z" stroke="black" stroke-width="1.38757"/>
<path d="M15.6801 22.8385C15.6801 20.6083 17.4881 18.8003 19.7183 18.8003H23.7565V26.8767H19.7183C17.4881 26.8767 15.6801 25.0687 15.6801 22.8385Z" stroke="black" stroke-width="1.38757"/>
<path d="M15.6801 31.6261C15.6801 29.3958 17.4881 27.5879 19.7183 27.5879H23.7565V31.8387C23.7565 33.9515 22.0438 35.6643 19.931 35.6643H19.7183C17.4881 35.6643 15.6801 33.8563 15.6801 31.6261Z" stroke="black" stroke-width="1.38757"/>
<path d="M23.7914 10.688H27.8296C30.0599 10.688 31.8678 12.496 31.8678 14.7262C31.8678 16.9564 30.0599 18.7644 27.8296 18.7644H23.7914V10.688Z" stroke="black" stroke-width="1.38757"/>
<path d="M23.7914 22.8385C23.7914 20.6083 25.5994 18.8003 27.8296 18.8003C30.0599 18.8003 31.8678 20.6083 31.8678 22.8385C31.8678 25.0687 30.0599 26.8767 27.8296 26.8767C25.5994 26.8767 23.7914 25.0687 23.7914 22.8385Z" stroke="black" stroke-width="1.38757"/>
<path d="M27.1527 19.1202L24.7867 20.4721C24.674 20.8101 24.0431 22.9057 23.7727 23.1761C23.5023 23.4465 23.8854 20.3595 24.1107 18.7822L27.1527 19.1202Z" fill="black"/>
</svg>
