<svg width="46" height="46" viewBox="0 0 46 46" fill="none" xmlns="http://www.w3.org/2000/svg">
<path d="M22.7017 38.4396C31.5146 38.4396 38.6588 31.2954 38.6588 22.4825C38.6588 13.6696 31.5146 6.52539 22.7017 6.52539C13.8889 6.52539 6.74463 13.6696 6.74463 22.4825C6.74463 31.2954 13.8889 38.4396 22.7017 38.4396Z" stroke="black" stroke-width="1.38757"/>
<path d="M22.7015 28.7264C26.15 28.7264 28.9456 25.9309 28.9456 22.4824C28.9456 19.0339 26.15 16.2383 22.7015 16.2383C19.253 16.2383 16.4574 19.0339 16.4574 22.4824C16.4574 25.9309 19.253 28.7264 22.7015 28.7264Z" stroke="black" stroke-width="1.38757"/>
<path d="M37.2711 16.2383H23.3953" stroke="black" stroke-width="1.38757" stroke-linecap="round"/>
<path d="M22.358 38.154L28.7198 24.2134" stroke="black" stroke-width="1.38757" stroke-linecap="round"/>
<path d="M9.77344 13.0234L17.151 25.2575" stroke="black" stroke-width="1.38757" stroke-linecap="round"/>
</svg>
