<svg width="120" height="31" viewBox="0 0 120 31" fill="none" xmlns="http://www.w3.org/2000/svg">
<g clip-path="url(#clip0_0_435)">
<path d="M9.81515 0.45166C10.1713 0.491744 10.5312 0.512393 10.8837 0.57434C12.1867 0.804517 13.4878 1.04866 14.7896 1.28795C12.1309 2.03313 9.87633 3.43667 7.99062 5.45421C5.78567 7.81307 4.32277 10.5818 3.47108 13.6822C3.06947 15.1447 2.91318 16.6399 3.17729 18.1473C3.64009 20.7843 5.24352 22.5383 7.56598 23.6934C9.71883 24.7641 12.0425 25.1224 14.4134 25.2196C16.2101 25.2931 17.9989 25.1461 19.7707 24.8528C23.0642 24.3074 26.2093 23.3005 29.1496 21.6983C30.6967 20.8548 32.1493 19.8709 33.4044 18.6216C33.9181 18.1096 34.3943 17.5594 34.8873 17.0268C34.9473 17.6663 35.0782 18.3088 35.0539 18.9447C34.9976 20.4102 34.4439 21.7123 33.5656 22.8753C32.7272 23.9849 31.6787 24.8643 30.5102 25.601C27.6764 27.3878 24.5744 28.4797 21.3009 29.0986C20.4437 29.2608 19.5666 29.3172 18.6991 29.4253C18.6434 29.432 18.5913 29.463 18.5374 29.4824C17.6894 29.4824 16.8413 29.4824 15.9932 29.4824C15.677 29.4442 15.3614 29.3968 15.044 29.3689C13.5206 29.2328 12.0449 28.8879 10.6232 28.3255C7.26856 26.9991 4.72923 24.7441 3.09673 21.5186C1.45271 18.2688 0.529537 14.8028 0.175776 11.1807C0.144883 10.863 0.100663 10.5466 0.0625 10.2296C0.0625 9.48077 0.0625 8.73133 0.0625 7.9825C0.0806726 7.90658 0.111566 7.83127 0.115806 7.75476C0.174565 6.68161 0.358108 5.63155 0.72883 4.62156C1.19223 3.36075 1.87916 2.26393 3.07855 1.57097C4.03867 1.01587 5.10783 0.816056 6.18002 0.63568C6.64221 0.557942 7.10924 0.511785 7.57386 0.45166C8.32075 0.45166 9.06825 0.45166 9.81515 0.45166Z" fill="#494949"/>
<path d="M120.001 16.1209C119.96 16.2605 119.918 16.3996 119.869 16.5642C117.526 16.5642 115.179 16.5642 112.836 16.5642C112.643 17.5663 113.345 18.7038 114.347 19.0239C114.914 19.2055 115.496 19.2176 116.082 19.1125C116.701 19.0014 117.157 18.6625 117.426 18.0965C117.516 17.907 117.625 17.8615 117.819 17.8645C118.503 17.8754 119.188 17.8687 119.932 17.8687C119.84 18.153 119.781 18.4062 119.678 18.64C119.248 19.6215 118.521 20.3181 117.543 20.7244C116.106 21.3208 114.646 21.3208 113.219 20.708C111.849 20.1201 111.033 19.0196 110.632 17.6076C110.275 16.351 110.3 15.086 110.695 13.8416C111.372 11.7074 113.179 10.5019 115.518 10.5723C117.86 10.6428 119.679 12.3342 119.951 14.4179C119.954 14.441 119.984 14.461 120.002 14.4823C120.001 15.0277 120.001 15.5743 120.001 16.1209ZM117.714 14.809C117.693 13.9661 117.395 13.2919 116.669 12.8935C115.691 12.3579 114.688 12.3858 113.739 12.9707C113.076 13.3782 112.825 14.0311 112.811 14.809C114.448 14.809 116.058 14.809 117.714 14.809Z" fill="black"/>
<path d="M34.8877 17.0266C34.3946 17.5592 33.9191 18.1095 33.4048 18.6215C32.1503 19.8713 30.6977 20.8552 29.15 21.6982C26.2096 23.3009 23.0646 24.3072 19.7711 24.8526C17.9992 25.146 16.2104 25.2929 14.4138 25.2194C12.0428 25.1223 9.71917 24.764 7.56632 23.6932C5.24386 22.5381 3.64042 20.7841 3.17763 18.1471C2.91291 16.6398 3.0698 15.1445 3.47142 13.6821C4.32311 10.5817 5.7854 7.8129 7.99096 5.45405C9.87667 3.43651 12.1313 2.03298 14.7899 1.2878C14.8463 1.28476 14.9026 1.28233 14.959 1.2793C15.0565 1.32242 15.1498 1.38011 15.2515 1.40683C17.4262 1.98804 19.5233 2.77939 21.552 3.75354C23.5358 4.70825 25.444 5.79659 27.2091 7.11448C28.2147 7.86513 29.1815 8.67348 30.124 9.50371C30.7128 10.0218 31.2362 10.6169 31.7668 11.1981C32.6191 12.131 33.386 13.1361 33.9312 14.2791C34.3286 15.1123 34.6205 15.9954 34.9598 16.8566C34.9355 16.9131 34.9119 16.9701 34.8877 17.0266ZM19.3749 11.1951C19.2634 11.0906 19.178 11.0044 19.086 10.926C18.0943 10.0782 16.9567 9.74846 15.6792 10.0254C13.808 10.4317 12.5814 11.984 12.5674 13.939C12.5571 15.4263 12.565 16.9137 12.5662 18.401C12.5662 18.4872 12.5789 18.5735 12.5844 18.6488C13.2846 18.6488 13.954 18.6488 14.6421 18.6488C14.6421 18.4131 14.6421 18.2018 14.6421 17.9904C14.6434 16.5942 14.6264 15.1974 14.6506 13.8017C14.6712 12.6527 15.7016 11.8328 16.8138 12.0393C17.7345 12.2099 18.3427 12.9545 18.3475 13.942C18.3548 15.4093 18.3494 16.876 18.3494 18.3433C18.3494 18.449 18.3494 18.5553 18.3494 18.6561C19.0593 18.6561 19.7214 18.6561 20.4095 18.6561C20.4095 18.5298 20.4095 18.421 20.4095 18.3123C20.4095 16.896 20.4089 15.4792 20.4107 14.0629C20.4107 13.891 20.4059 13.7161 20.4356 13.5485C20.6034 12.6041 21.4775 11.9178 22.3885 12.004C23.3777 12.0976 24.1058 12.8749 24.1107 13.8631C24.118 15.3504 24.1125 16.8377 24.1125 18.3251C24.1125 18.4332 24.1125 18.5407 24.1125 18.6537C24.8164 18.6537 25.4864 18.6537 26.1648 18.6537C26.169 18.585 26.1745 18.5358 26.1745 18.4866C26.1745 16.9082 26.1878 15.3298 26.1697 13.7513C26.1418 11.3244 23.8054 9.49094 21.4454 10.0193C20.644 10.1997 19.9685 10.5957 19.3749 11.1951ZM11.66 7.00335C10.835 6.99849 10.182 7.6465 10.1777 8.47489C10.1735 9.29599 10.8374 9.97013 11.6479 9.9671C12.4632 9.96406 13.1393 9.29357 13.1387 8.48705C13.1381 7.66837 12.4802 7.0082 11.66 7.00335Z" fill="black"/>
<path d="M63.4783 7.00044C63.4783 11.6489 63.4783 16.2518 63.4783 20.8723C62.6563 20.8723 61.844 20.8723 61.0135 20.8723C61.0135 18.2068 61.0135 15.5576 61.0135 12.9085C60.9977 12.9024 60.982 12.8963 60.9668 12.8909C60.9208 12.9808 60.8711 13.0694 60.8281 13.1611C59.6766 15.6415 58.522 18.1206 57.3802 20.6057C57.2808 20.8225 57.1742 20.9088 56.9331 20.896C56.5 20.8736 56.0645 20.8766 55.6314 20.8954C55.4248 20.9045 55.3315 20.828 55.2479 20.647C54.0812 18.1181 52.9073 15.5923 51.7351 13.0658C51.7103 13.0123 51.6843 12.9589 51.617 12.9091C51.617 15.5576 51.617 18.2056 51.617 20.8717C50.769 20.8717 49.9566 20.8717 49.1328 20.8717C49.1328 16.2536 49.1328 11.6501 49.1328 7.00044C49.4387 7.00044 49.7464 7.00044 50.0548 7.00044C50.4382 7.00044 50.8229 7.01623 51.2051 6.99437C51.4353 6.98162 51.5346 7.07332 51.6303 7.27313C53.1514 10.4494 54.6821 13.6215 56.2105 16.7942C56.2365 16.8482 56.2638 16.9023 56.3116 16.9994C56.3734 16.878 56.4225 16.7875 56.4667 16.6946C57.9587 13.5826 59.4549 10.4725 60.9341 7.35452C61.0686 7.07089 61.2213 6.98162 61.5235 6.99316C62.1674 7.01745 62.812 7.00044 63.4783 7.00044Z" fill="black"/>
<path d="M106.928 19.6167C106.37 20.3704 105.624 20.835 104.721 21.0415C102.649 21.5164 100.398 20.4311 99.3562 18.4646C97.9672 15.8416 98.8965 12.5001 101.416 11.1725C102.746 10.4716 104.136 10.3174 105.548 10.9605C106.104 11.2138 106.561 11.5982 106.963 12.1448C106.963 11.6741 106.963 11.2739 106.963 10.8518C107.751 10.8518 108.521 10.8518 109.323 10.8518C109.323 10.955 109.323 11.0534 109.323 11.1518C109.323 14.5619 109.331 17.9727 109.315 21.3828C109.313 21.9045 109.255 22.4371 109.138 22.9449C108.822 24.301 108.006 25.2642 106.69 25.7295C105.024 26.318 103.323 26.4012 101.654 25.7671C100.048 25.1561 99.1272 23.9536 98.9134 22.23C98.9061 22.1717 98.9122 22.1116 98.9122 22.0369C99.6985 22.0369 100.471 22.0369 101.241 22.0369C101.678 23.5862 102.751 24.2561 104.471 24.0563C104.681 24.032 104.892 23.9998 105.098 23.9524C106.164 23.7052 106.824 23.0123 106.916 21.9203C106.979 21.1636 106.928 20.3965 106.928 19.6167ZM101.052 15.8525C101.089 16.1325 101.107 16.4167 101.168 16.6918C101.663 18.9438 104.309 19.8378 105.958 18.2964C106.84 17.4729 107.084 16.4143 106.917 15.2434C106.655 13.4086 104.897 12.262 103.149 12.7849C101.909 13.1566 101.073 14.3895 101.052 15.8525Z" fill="black"/>
<path d="M34.9578 16.8558C34.6186 15.9946 34.3266 15.1115 33.9293 14.2783C33.3847 13.1353 32.6172 12.1302 31.7649 11.1973C31.2343 10.6161 30.7109 10.0209 30.1221 9.5029C29.1796 8.67269 28.2134 7.86434 27.2072 7.11368C25.4426 5.79578 23.5345 4.70746 21.5501 3.75396C19.5214 2.7792 17.4249 1.98785 15.2496 1.40725C15.1478 1.37992 15.054 1.32283 14.957 1.27971C15.8396 1.14549 16.7186 0.950536 17.606 0.888588C20.1332 0.712464 22.4914 1.40968 24.7787 2.40509C27.5192 3.59787 30.0948 5.07185 32.4185 6.96489C33.7154 8.02224 34.8985 9.19012 35.7532 10.6525C36.1282 11.2945 36.402 11.9771 36.5031 12.7175C36.5788 13.2732 36.557 13.8313 36.3638 14.3639C36.0337 15.2706 35.5569 16.099 34.9578 16.8558Z" fill="#A4A4A4"/>
<path d="M95.2686 12.0268C95.2686 11.6728 95.2686 11.2725 95.2686 10.8516C96.0573 10.8516 96.8267 10.8516 97.6111 10.8516C97.6111 14.1877 97.6111 17.514 97.6111 20.8658C96.8388 20.8658 96.0689 20.8658 95.2729 20.8658C95.2729 20.4504 95.2729 20.0411 95.2729 19.554C94.7707 20.2464 94.1619 20.6715 93.432 20.9241C91.6135 21.5545 89.3892 20.8318 88.1353 19.203C86.0648 16.5137 86.9686 12.4252 89.9604 11.0502C91.3276 10.4217 92.7324 10.3233 94.0868 11.0952C94.5205 11.3424 94.8828 11.7177 95.2686 12.0268ZM92.5852 19.0433C93.5622 19.0123 94.466 18.4244 94.9815 17.268C95.3141 16.5222 95.3662 15.7388 95.156 14.9529C94.8507 13.8111 94.1565 13.0101 92.9813 12.7441C91.8473 12.4878 90.8527 12.7914 90.1028 13.7079C89.4655 14.4865 89.2917 15.4023 89.4092 16.3892C89.5921 17.9264 90.803 19.0433 92.5852 19.0433Z" fill="black"/>
<path d="M72.838 12.0093C72.838 11.6613 72.838 11.2598 72.838 10.8438C73.623 10.8438 74.3857 10.8438 75.1653 10.8438C75.1653 14.1865 75.1653 17.5214 75.1653 20.8732C74.3984 20.8732 73.6352 20.8732 72.844 20.8732C72.844 20.4645 72.844 20.0648 72.844 19.6428C72.7883 19.6628 72.7568 19.664 72.7429 19.681C71.6216 21.0414 70.1721 21.3815 68.5202 21.0074C65.8809 20.4098 64.3829 17.9234 64.6058 15.417C64.7863 13.3903 65.7537 11.8508 67.6376 11.0048C68.9151 10.4308 70.2429 10.344 71.518 11.0284C71.9942 11.2829 72.397 11.6752 72.838 12.0093ZM72.8652 15.8731C72.8065 15.5257 72.7774 15.1704 72.6847 14.8327C72.3376 13.5725 71.2897 12.7259 70.0346 12.6646C68.7588 12.6026 67.6679 13.3083 67.1899 14.5151C66.9307 15.1698 66.8786 15.8464 66.9979 16.5411C67.3129 18.3759 69.0484 19.4624 70.7899 18.9085C72.0142 18.5192 72.8174 17.3246 72.8652 15.8731Z" fill="black"/>
<path d="M85.868 20.8731C85.0739 20.8731 84.3112 20.8731 83.528 20.8731C83.528 20.5439 83.5304 20.2312 83.5274 19.9184C83.5116 18.2495 83.5013 16.5805 83.4716 14.9116C83.4668 14.6432 83.3977 14.3705 83.3214 14.1105C83.0924 13.3295 82.609 12.792 81.7767 12.6766C80.8954 12.5546 80.1042 12.7471 79.5421 13.5056C79.0636 14.1524 78.9418 14.9086 78.9376 15.6884C78.9303 17.2972 78.9351 18.906 78.9351 20.5154C78.9351 20.6259 78.9351 20.7365 78.9351 20.8689C78.1501 20.8689 77.3802 20.8689 76.5957 20.8689C76.5957 17.5298 76.5957 14.2047 76.5957 10.8547C77.3644 10.8547 78.1337 10.8547 78.9242 10.8547C78.9242 11.2719 78.9242 11.6928 78.9242 12.1149C78.963 12.1124 78.9897 12.1179 78.9957 12.1088C79.8026 10.9318 80.9777 10.5443 82.3304 10.5765C82.7302 10.5862 83.1397 10.6354 83.5237 10.7423C84.8576 11.1134 85.5639 12.0535 85.7669 13.3884C85.8456 13.9059 85.8704 14.4361 85.8741 14.9602C85.8862 16.8526 85.8789 18.7444 85.8783 20.6369C85.8801 20.7067 85.8729 20.7766 85.868 20.8731Z" fill="black"/>
<path d="M44.4629 20.8609C44.4629 17.7289 44.4629 14.606 44.4629 11.4619C45.2286 11.4619 45.9979 11.4619 46.7811 11.4619C46.7811 14.5914 46.7811 17.7131 46.7811 20.8609C46.0173 20.8609 45.2564 20.8609 44.4629 20.8609Z" fill="black"/>
<path d="M45.6165 7.00196C46.4422 7.00378 47.094 7.65119 47.1024 8.47959C47.1109 9.28794 46.441 9.96146 45.622 9.96875C44.8103 9.97604 44.1427 9.30494 44.1445 8.48445C44.1457 7.64998 44.7915 7.00014 45.6165 7.00196Z" fill="black"/>
</g>
<defs>
<clipPath id="clip0_0_435">
<rect width="120" height="30" fill="white" transform="translate(0 0.390625)"/>
</clipPath>
</defs>
</svg>
