<svg width="22" height="22" viewBox="0 0 22 22" fill="none" xmlns="http://www.w3.org/2000/svg">
<g clip-path="url(#clip0_0_1040)">
<path d="M12.1374 20.8598C12.1374 20.7147 12.1374 20.6051 12.1374 20.4956C12.1374 18.1114 12.14 15.7273 12.1374 13.3431C12.1374 12.5993 12.3655 11.9447 12.9089 11.4226C13.5599 10.7985 14.3391 10.6304 15.2003 10.8469C16.0128 11.0532 16.4332 11.6492 16.6049 12.4109C16.7177 12.9076 16.7689 13.4272 16.7715 13.9366C16.7894 16.1145 16.7792 18.2923 16.7792 20.4727C16.7792 20.5898 16.7792 20.7096 16.7792 20.8598C16.915 20.8598 17.0176 20.8598 17.1175 20.8598C18.3786 20.8598 19.6396 20.8598 20.9007 20.8598C21.2672 20.8598 21.2698 20.8598 21.2698 20.4905C21.2698 18.1063 21.2851 15.7222 21.2595 13.338C21.2518 12.6325 21.18 11.9192 21.0416 11.2264C20.77 9.88151 20.1266 8.74292 18.9271 7.97877C17.9557 7.3598 16.8766 7.18405 15.7437 7.24518C14.6313 7.30631 13.6522 7.6782 12.8653 8.48056C12.6141 8.73782 12.3911 9.02056 12.1246 9.32877C12.1246 8.71235 12.1246 8.13669 12.1246 7.55084C12.0169 7.5432 11.9349 7.53301 11.8529 7.53301C10.5534 7.53301 9.25646 7.5381 7.95697 7.52537C7.69809 7.52282 7.64171 7.61197 7.64683 7.85141C7.6699 8.88047 7.6904 9.90698 7.68784 10.936C7.68015 13.9646 7.66221 16.9958 7.64939 20.0244C7.64939 20.2842 7.56481 20.651 7.69809 20.7783C7.84932 20.9184 8.20559 20.8573 8.47215 20.8573C9.67938 20.8649 10.884 20.8598 12.1374 20.8598ZM5.23238 20.8446C5.24007 20.7529 5.24776 20.6968 5.24776 20.6408C5.24776 16.359 5.24776 12.0797 5.25289 7.79792C5.25289 7.5865 5.18625 7.52792 4.97864 7.52792C3.68939 7.53556 2.40271 7.54065 1.11347 7.52537C0.828962 7.52282 0.752068 7.59669 0.752068 7.88197C0.76232 12.0976 0.759758 16.3131 0.759758 20.5287C0.759758 20.6281 0.767447 20.7274 0.775136 20.842C2.26943 20.8446 3.74065 20.8446 5.23238 20.8446ZM2.98197 5.78819C3.20496 5.76272 3.43308 5.75508 3.65094 5.70668C4.58904 5.49781 5.25032 4.96545 5.46819 4.01026C5.68862 3.04488 5.41693 2.20686 4.60186 1.60827C3.96364 1.13959 3.22547 1.06572 2.45397 1.19054C1.07502 1.41469 0.226631 2.70356 0.580339 4.04847C0.859719 5.12083 1.7645 5.76782 2.98197 5.78819Z" fill="white"/>
</g>
<defs>
<clipPath id="clip0_0_1040">
<rect width="21" height="21" fill="white" transform="translate(0.5 0.3125)"/>
</clipPath>
</defs>
</svg>
