<svg width="97" height="28" viewBox="0 0 97 28" fill="none" xmlns="http://www.w3.org/2000/svg">
<g clip-path="url(#clip0_0_408)">
<path d="M9.7883 8.82582C9.7883 14.85 9.7883 20.8287 9.7883 26.8552C11.3285 26.8552 12.8234 26.8552 14.3804 26.8552C14.3923 26.5941 14.4138 26.374 14.4138 26.1561C14.4162 23.0259 14.3923 19.8958 14.4329 16.768C14.4425 16.087 14.5786 15.3766 14.815 14.7319C15.4836 12.9047 17.2555 11.7675 19.0942 11.8924C20.9831 12.0195 21.9956 12.8729 22.4493 14.7751C22.5663 15.2653 22.6284 15.7806 22.6308 16.2845C22.6499 19.5644 22.6428 22.8466 22.6499 26.1266C22.6499 26.3626 22.6857 26.601 22.7048 26.8461C24.2642 26.8461 25.7591 26.8461 27.3184 26.8461C27.3184 26.6032 27.3184 26.4194 27.3184 26.2355C27.3184 22.6719 27.3327 19.1082 27.3041 15.5445C27.2993 14.8182 27.2038 14.0759 27.0271 13.3678C26.3322 10.5849 24.5579 8.77815 21.5109 8.36958C18.822 8.00868 16.0496 8.8417 14.5022 11.4452C14.4544 11.5269 14.3541 11.5791 14.1416 11.7652C14.1416 10.6848 14.1416 9.75873 14.1416 8.82808C12.6395 8.82581 11.2378 8.82582 9.7883 8.82582ZM48.9725 8.81901C48.9439 8.9847 48.9128 9.07551 48.9128 9.1663C48.9463 13.1975 48.9272 17.231 49.0394 21.2623C49.1206 24.1631 51.1599 26.5215 53.9443 27.1911C57.149 27.9606 60.048 26.8847 61.7195 24.3107C61.7816 24.2131 61.8819 24.1359 62.1374 23.8681C62.1374 25.003 62.1374 25.9223 62.1374 26.8529C63.649 26.8529 65.0269 26.8529 66.4358 26.8529C66.4358 20.8242 66.4358 14.8432 66.4358 8.84398C64.9099 8.84398 63.4365 8.84398 61.8962 8.84398C61.8962 9.14587 61.8962 9.38875 61.8962 9.62934C61.8962 12.571 61.9058 15.5105 61.8915 18.4522C61.8843 19.771 61.6455 21.0466 60.7906 22.1384C59.6611 23.5798 58.1137 24.0474 56.3108 23.6797C54.7729 23.3664 54.0828 22.2633 53.801 20.8991C53.684 20.3316 53.598 19.746 53.5957 19.1672C53.5765 15.944 53.5861 12.7186 53.5837 9.49543C53.5837 9.27979 53.5503 9.06188 53.5312 8.82128C51.9838 8.81901 50.5032 8.81901 48.9725 8.81901ZM89.8952 26.8552C89.8952 22.1135 89.8952 17.4172 89.8952 12.6278C91.7292 12.6278 93.4652 12.6278 95.2061 12.6278C95.2061 11.3022 95.2061 10.0742 95.2061 8.83036C90.0695 8.83036 84.9903 8.83036 79.8896 8.83036C79.8896 10.1128 79.8896 11.3431 79.8896 12.6664C81.6782 12.6664 83.4119 12.6664 85.2267 12.6664C85.2267 17.4444 85.2267 22.1271 85.2267 26.8529C86.8028 26.8552 88.2977 26.8552 89.8952 26.8552ZM45.3357 8.82354C40.1753 8.82354 35.0984 8.82354 29.9882 8.82354C29.9882 10.1106 29.9882 11.3521 29.9882 12.6505C31.5403 12.6505 33.0304 12.6823 34.5181 12.6369C35.2035 12.6142 35.4017 12.8162 35.3993 13.4631C35.373 17.6646 35.385 21.8661 35.3898 26.0698C35.3898 26.324 35.4208 26.5805 35.4399 26.8416C36.9801 26.8416 38.4535 26.8416 40.0129 26.8416C40.0129 22.0999 40.0129 17.4194 40.0129 12.6414C41.8349 12.6414 43.5686 12.6414 45.338 12.6414C45.3357 11.3226 45.3357 10.106 45.3357 8.82354ZM4.58013 26.8552C4.58013 20.831 4.58013 14.8522 4.58013 8.82808C3.0375 8.82808 1.54263 8.82808 0 8.82808C0 14.8522 0 20.831 0 26.8552C1.54263 26.8552 3.0375 26.8552 4.58013 26.8552ZM76.2265 26.8552C76.2265 20.831 76.2265 14.85 76.2265 8.82808C74.6838 8.82808 73.189 8.82808 71.6487 8.82808C71.6487 14.8545 71.6487 20.8333 71.6487 26.8552C73.1914 26.8552 74.6862 26.8552 76.2265 26.8552ZM87.598 6.20868C89.1979 6.20187 90.3848 5.08057 90.3871 3.56886C90.3895 2.0753 89.0929 0.854121 87.5431 0.890438C86.0124 0.926756 84.816 2.10027 84.8136 3.56659C84.8136 5.08285 86.0076 6.2155 87.598 6.20868ZM40.4642 3.5734C40.469 2.09345 39.2439 0.910867 37.6941 0.899517C36.216 0.888168 34.936 2.10935 34.9313 3.53481C34.9265 5.06468 36.1252 6.20414 37.7443 6.20868C39.2798 6.21096 40.4594 5.06696 40.4642 3.5734Z" fill="black"/>
<path d="M9.78906 8.82579C11.2386 8.82579 12.6403 8.82579 14.1423 8.82579C14.1423 9.75643 14.1423 10.6848 14.1423 11.7629C14.3549 11.5768 14.4552 11.5223 14.5029 11.4429C16.0479 8.83941 18.8228 8.00411 21.5116 8.36728C24.5563 8.77586 26.3329 10.5826 27.0278 13.3655C27.2045 14.0736 27.2977 14.8136 27.3048 15.5422C27.3335 19.1059 27.3168 22.6696 27.3192 26.2332C27.3192 26.4171 27.3192 26.6032 27.3192 26.8438C25.7598 26.8438 24.265 26.8438 22.7056 26.8438C22.6865 26.5964 22.6531 26.3603 22.6507 26.1243C22.6435 22.8443 22.6507 19.5621 22.6316 16.2822C22.6292 15.7783 22.5671 15.2653 22.4501 14.7728C21.9964 12.8706 20.9839 12.0172 19.095 11.8901C17.2563 11.7675 15.4844 12.9047 14.8157 14.7296C14.5793 15.3743 14.4432 16.0847 14.4337 16.7657C14.3931 19.8958 14.417 23.0259 14.4146 26.1538C14.4146 26.3739 14.3931 26.5918 14.3811 26.8529C12.8266 26.8529 11.3293 26.8529 9.78906 26.8529C9.78906 20.8287 9.78906 14.8499 9.78906 8.82579Z" fill="black"/>
<path d="M48.9718 8.81885C50.5025 8.81885 51.983 8.81885 53.5304 8.81885C53.5496 9.05946 53.583 9.27509 53.583 9.493C53.5854 12.7161 53.5758 15.9416 53.5949 19.1648C53.5973 19.7436 53.6833 20.3269 53.8003 20.8967C54.0821 22.2608 54.7722 23.364 56.31 23.6772C58.113 24.0449 59.6604 23.5774 60.7899 22.136C61.6448 21.0442 61.8836 19.7686 61.8907 18.4498C61.9075 15.5081 61.8955 12.5686 61.8955 9.62692C61.8955 9.38631 61.8955 9.14344 61.8955 8.84155C63.4358 8.84155 64.9091 8.84155 66.4351 8.84155C66.4351 14.8407 66.4351 20.8195 66.4351 26.8505C65.0261 26.8505 63.6483 26.8505 62.1367 26.8505C62.1367 25.9221 62.1367 25.0006 62.1367 23.8656C61.8812 24.1335 61.7833 24.2106 61.7188 24.3082C60.0472 26.8845 57.1482 27.9604 53.9436 27.1887C51.1592 26.5191 49.1175 24.1607 49.0387 21.2598C48.9264 17.2286 48.9455 13.1951 48.9121 9.16387C48.9121 9.07535 48.9432 8.98455 48.9718 8.81885Z" fill="black"/>
<path d="M89.8943 26.8551C88.2967 26.8551 86.8019 26.8551 85.2258 26.8551C85.2258 22.1292 85.2258 17.4466 85.2258 12.6685C83.4109 12.6685 81.6749 12.6685 79.8887 12.6685C79.8887 11.3429 79.8887 10.115 79.8887 8.83252C84.9894 8.83252 90.0686 8.83252 95.2051 8.83252C95.2051 10.0741 95.2051 11.3044 95.2051 12.6299C93.4667 12.6299 91.7306 12.6299 89.8943 12.6299C89.8943 17.4171 89.8943 22.1134 89.8943 26.8551Z" fill="black"/>
<path d="M45.3362 8.82339C45.3362 10.1059 45.3362 11.3225 45.3362 12.6367C43.5667 12.6367 41.8307 12.6367 40.011 12.6367C40.011 17.4147 40.011 22.0951 40.011 26.8369C38.4517 26.8369 36.9807 26.8369 35.4381 26.8369C35.4214 26.5758 35.3879 26.3216 35.3879 26.0651C35.3855 21.8636 35.3736 17.6599 35.3975 13.4584C35.4022 12.8138 35.2017 12.6117 34.5163 12.6322C33.0286 12.6798 31.5409 12.6458 29.9863 12.6458C29.9863 11.3474 29.9863 10.1059 29.9863 8.81885C35.099 8.82339 40.1782 8.82339 45.3362 8.82339Z" fill="black"/>
<path d="M4.58013 26.8552C3.0375 26.8552 1.54263 26.8552 0 26.8552C0 20.831 0 14.8523 0 8.82812C1.54263 8.82812 3.0375 8.82812 4.58013 8.82812C4.58013 14.8523 4.58013 20.831 4.58013 26.8552Z" fill="black"/>
<path d="M76.2262 26.8552C74.6859 26.8552 73.1911 26.8552 71.6484 26.8552C71.6484 20.8333 71.6484 14.8545 71.6484 8.82812C73.1887 8.82812 74.6835 8.82812 76.2262 8.82812C76.2262 14.85 76.2262 20.8288 76.2262 26.8552Z" fill="black"/>
<path d="M87.5984 6.20886C86.0104 6.21567 84.8164 5.08301 84.8164 3.56903C84.8164 2.10271 86.0128 0.926929 87.5459 0.892881C89.0957 0.856563 90.3923 2.07548 90.3899 3.56903C90.3828 5.08074 89.1983 6.20204 87.5984 6.20886Z" fill="black"/>
<path d="M40.4642 3.57337C40.4594 5.06693 39.2773 6.21094 37.7466 6.20866C36.13 6.20639 34.9288 5.06466 34.9336 3.53479C34.9384 2.10933 36.2183 0.888143 37.6965 0.899493C39.2463 0.910842 40.4713 2.09343 40.4642 3.57337Z" fill="black"/>
</g>
<defs>
<clipPath id="clip0_0_408">
<rect width="97" height="27" fill="white" transform="translate(0 0.890625)"/>
</clipPath>
</defs>
</svg>
