<svg width="46" height="46" viewBox="0 0 46 46" fill="none" xmlns="http://www.w3.org/2000/svg">
<path d="M36.4783 25.2574V10.6459C36.4783 9.9027 35.8759 9.30029 35.1328 9.30029H14.2772C13.5341 9.30029 12.9316 9.9027 12.9316 10.6459V15.5444" stroke="black" stroke-width="1.38757"/>
<path d="M36.1528 17.2339H21.0156" stroke="black" stroke-width="1.38757"/>
<path d="M28.459 29.4201V9.99414" stroke="black" stroke-width="1.38757"/>
<path d="M20.1328 29.4201V9.99414" stroke="black" stroke-width="1.38757"/>
<path d="M36.1528 24.9321H21.0156" stroke="black" stroke-width="1.38757"/>
<path d="M11.2598 30.4714V35.8535C11.2598 36.5966 11.8622 37.199 12.6053 37.199H36.8247C37.5679 37.199 38.1703 36.5966 38.1703 35.8535V25.762C38.1703 25.0189 37.5679 24.4165 36.8247 24.4165H36.4884" stroke="black" stroke-width="1.38757"/>
<path d="M24.3789 30.8078L37.8342 24.7529" stroke="black" stroke-width="1.38757"/>
<path d="M37.8359 36.8629L20.134 28.7271" stroke="black" stroke-width="1.38757"/>
<mask id="mask0_0_824" style="mask-type:alpha" maskUnits="userSpaceOnUse" x="3" y="13" width="20" height="20">
<path d="M19.6699 15.334H6.21467C5.47155 15.334 4.86914 15.9364 4.86914 16.6795V29.462C4.86914 30.2051 5.47155 30.8075 6.21467 30.8075H19.6699C20.413 30.8075 21.0154 30.2051 21.0154 29.462V16.6795C21.0154 15.9364 20.413 15.334 19.6699 15.334Z" stroke="black" stroke-width="2.77515"/>
</mask>
<g mask="url(#mask0_0_824)">
<path d="M19.6699 15.334H6.21467C5.47155 15.334 4.86914 15.9364 4.86914 16.6795V29.462C4.86914 30.2051 5.47155 30.8075 6.21467 30.8075H19.6699C20.413 30.8075 21.0154 30.2051 21.0154 29.462V16.6795C21.0154 15.9364 20.413 15.334 19.6699 15.334Z" stroke="black" stroke-width="2.77515"/>
</g>
<path d="M17.0044 22.9323C16.9769 24.5356 16.5216 25.8136 15.2751 26.6944C13.3238 28.0741 9.58352 27.5534 8.98853 23.9512C8.76168 22.5787 8.97319 21.2838 9.86608 20.1883C10.9721 18.8328 12.4568 18.509 14.0851 18.9183C15.6771 19.318 16.5474 20.4579 16.8938 22.0217C16.9688 22.3599 16.9785 22.7127 17.0044 22.9323ZM15.2476 23.1212C15.2614 22.4625 15.0854 21.7544 14.7883 21.2693C13.9584 19.9146 12.1201 19.8492 11.2127 21.1425C10.4804 22.1856 10.4869 23.9931 11.2272 25.0313C12.0628 26.2028 13.7259 26.2496 14.6171 25.121C15.0781 24.5365 15.2299 23.8478 15.2476 23.1212Z" fill="black"/>
</svg>
