<svg width="20" height="20" viewBox="0 0 20 20" fill="none" xmlns="http://www.w3.org/2000/svg">
<g clip-path="url(#clip0_0_546)">
<path d="M10 20C4.47715 20 0 15.5228 0 10C0 4.47715 4.47715 0 10 0C15.5228 0 20 4.47715 20 10C20 15.5228 15.5228 20 10 20Z" fill="black"/>
<path d="M15.7078 9.29284C16.0983 9.68337 16.0983 10.3165 15.7078 10.707L9.3438 17.071C8.95327 17.4615 8.32011 17.4615 7.92958 17.071C7.53906 16.6804 7.53906 16.0473 7.92958 15.6568L13.5864 9.99995L7.92958 4.3431C7.53906 3.95257 7.53906 3.31941 7.92958 2.92888C8.32011 2.53836 8.95327 2.53836 9.3438 2.92888L15.7078 9.29284ZM4.58398 8.99995H15.0007V10.9999H4.58398V8.99995Z" fill="white"/>
</g>
<defs>
<clipPath id="clip0_0_546">
<rect width="20" height="20" fill="white"/>
</clipPath>
</defs>
</svg>
