<svg width="22" height="20" viewBox="0 0 22 20" fill="none" xmlns="http://www.w3.org/2000/svg">
<path d="M21.2865 3.33081C20.8829 4.04341 20.3427 4.64199 19.7175 5.1329C19.3624 5.4116 19.2744 5.71248 19.2561 6.15271C19.0892 10.7957 17.2288 14.4822 13.4624 17.0254C11.7203 18.2004 9.76581 18.7293 7.69596 18.8339C5.19211 18.9605 2.87036 18.3556 0.718569 17.0191C0.657869 16.9811 0.575932 16.9653 0.554688 16.8576C2.82181 17.0634 4.87344 16.4839 6.76119 15.0206C6.45465 14.97 6.20579 14.9478 5.96603 14.8845C4.53959 14.5234 3.52895 13.6398 2.92196 12.2431C2.78538 11.9295 2.87643 11.882 3.16779 11.9105C3.63821 11.9612 4.11166 11.9549 4.65492 11.7997C3.97509 11.5907 3.40755 11.3309 2.91892 10.9129C1.93559 10.0799 1.40143 9.00312 1.29521 7.6856C1.27397 7.41322 1.32556 7.34671 1.58354 7.47973C2.03575 7.71093 2.51528 7.85979 3.13441 7.86295C2.23909 7.09651 1.6412 6.22555 1.41965 5.11073C1.19809 4.00224 1.36198 2.96026 1.87489 1.96895C2.02057 1.99112 2.06306 2.1083 2.12983 2.18748C4.33018 4.78452 7.07379 6.25406 10.388 6.5771C10.8098 6.61828 10.7188 6.40608 10.6915 6.16538C10.5154 4.699 10.9343 3.43532 11.9267 2.39334C13.5474 0.695763 16.1362 0.651424 17.8722 2.28883C18.0513 2.45668 18.1969 2.49152 18.4246 2.43451C19.2349 2.22865 19.9967 1.90244 20.7402 1.47488C20.6644 2.14314 20.2 2.80823 19.0892 3.85022C19.4989 3.85338 19.851 3.73937 20.2061 3.63485C20.5581 3.5335 20.9041 3.40999 21.2531 3.29914C21.2744 3.2643 21.2987 3.25163 21.329 3.2833C21.3169 3.3023 21.3017 3.31497 21.2865 3.33081Z" fill="white"/>
</svg>
