<svg width="101" height="38" viewBox="0 0 101 38" fill="none" xmlns="http://www.w3.org/2000/svg">
<g clip-path="url(#clip0_0_786)">
<path d="M0 37.286C0 25.0159 0 12.8005 0 0.5625C12.5198 0.5625 25.0166 0.5625 37.5531 0.5625C37.569 0.664927 37.5993 0.768917 37.5993 0.872908C37.6017 12.8678 37.6009 24.8619 37.6057 36.8567C37.6057 37.1804 37.5061 37.293 37.1589 37.293C24.9154 37.2844 12.6711 37.286 0.427654 37.286C0.297845 37.286 0.168035 37.286 0 37.286ZM18.777 33.4125C23.5879 33.4125 28.3988 33.4149 33.2097 33.3992C33.3498 33.3985 33.6118 33.2069 33.6118 33.1037C33.6302 23.6703 33.627 14.2361 33.6333 4.80265C33.6333 4.47035 33.5219 4.36167 33.1842 4.36167C23.595 4.36792 14.0067 4.36871 4.4175 4.36089C4.02727 4.36089 3.91658 4.49693 3.91737 4.86286C3.92454 14.2251 3.92454 23.5866 3.91658 32.9489C3.91658 33.3117 4.0432 33.418 4.40316 33.4172C9.19496 33.4094 13.986 33.4125 18.777 33.4125Z" fill="black"/>
<path d="M68.8667 15.8222C68.8667 15.3163 68.8882 14.9441 68.8611 14.5751C68.8317 14.167 68.9894 14.0192 69.4075 14.0278C70.4021 14.0489 71.3984 14.0411 72.3939 14.0317C72.7172 14.0286 72.8422 14.1591 72.8422 14.475C72.8374 19.1921 72.843 23.9092 72.8223 28.6263C72.8215 28.7631 72.5675 29.0133 72.4249 29.0173C71.3777 29.0509 70.3281 29.0509 69.2808 29.0173C69.1391 29.0126 68.9145 28.7764 68.8874 28.6201C68.8269 28.2799 68.8691 27.9218 68.8691 27.516C68.4056 27.8382 68.048 28.1408 67.6427 28.3589C65.8923 29.3034 64.0208 29.409 62.1214 28.968C60.1225 28.5028 58.7034 27.2698 57.7772 25.4949C57.0891 24.1758 56.8374 22.7536 56.8828 21.2774C56.9473 19.164 57.5717 17.2562 59.1374 15.7479C60.7803 14.1654 62.7943 13.665 65.0489 13.9394C66.4927 14.1161 67.7454 14.6627 68.8667 15.8222ZM68.8755 21.5339C68.9256 21.5159 68.9758 21.4987 69.026 21.4807C68.7815 20.7035 68.635 19.8778 68.2734 19.1569C67.1473 16.9129 63.5533 16.5157 61.9191 18.4415C60.7755 19.7887 60.6887 21.3689 61.0726 23.0069C61.7678 25.9703 65.1707 26.3768 67.0239 25.2267C68.3961 24.376 68.8651 23.0562 68.8755 21.5339Z" fill="black"/>
<path d="M89.6167 15.3923C90.0555 15.0952 90.4346 14.7872 90.859 14.5604C92.1977 13.8473 93.6535 13.7019 95.13 13.8989C96.8828 14.1327 98.3505 14.9123 99.3986 16.3541C100.185 17.4354 100.586 18.652 100.593 19.9742C100.61 22.8609 100.598 25.7468 100.602 28.6335C100.603 28.9213 100.486 29.0432 100.185 29.0401C99.1692 29.03 98.1538 29.026 97.1385 29.0409C96.7928 29.0464 96.6869 28.9072 96.6877 28.5874C96.6941 25.9423 96.7092 23.2964 96.6829 20.6513C96.671 19.4902 96.3811 18.3948 95.3562 17.6684C93.6416 16.4534 90.3493 16.8889 89.764 19.7083C89.6366 20.3221 89.5848 20.9594 89.5792 21.5872C89.5585 23.9196 89.5665 26.2527 89.5761 28.5851C89.5777 28.9095 89.4678 29.0448 89.1277 29.0409C88.1123 29.0292 87.0969 29.0315 86.0816 29.0386C85.7598 29.0409 85.6276 28.9064 85.6276 28.5921C85.6308 22.226 85.6308 15.8607 85.6268 9.49461C85.6268 9.18811 85.7511 9.05754 86.0648 9.0591C87.1065 9.06614 88.149 9.04894 89.1898 9.07865C89.3196 9.08256 89.5514 9.314 89.553 9.44223C89.5769 11.3117 89.5689 13.182 89.5721 15.0522C89.5729 15.1609 89.6 15.2696 89.6167 15.3923Z" fill="black"/>
<path d="M41.3933 19.4989C41.3933 16.4887 41.3989 13.4792 41.387 10.469C41.3854 10.0773 41.5192 9.94983 41.9197 9.95218C44.1098 9.96703 46.299 9.95843 48.489 9.96C49.854 9.96078 51.1911 10.1148 52.4414 10.6965C53.984 11.4143 55.0273 12.573 55.5338 14.1767C56.0116 15.6896 55.9909 17.2143 55.5091 18.7163C55.0329 20.2011 54.086 21.3293 52.6668 22.0557C51.4547 22.6757 50.1574 22.897 48.8012 22.872C47.8193 22.854 46.8366 22.8845 45.8554 22.861C45.462 22.8517 45.3577 22.9932 45.3601 23.3591C45.3744 25.0918 45.3601 26.8252 45.3712 28.5578C45.3736 28.9128 45.2398 29.045 44.8799 29.0403C43.8916 29.0262 42.9025 29.0254 41.9142 29.0403C41.5327 29.0457 41.3854 28.9152 41.387 28.5281C41.3981 25.5194 41.3933 22.5092 41.3933 19.4989ZM45.3673 16.4441C45.3673 17.4473 45.3529 18.4512 45.384 19.4536C45.388 19.5873 45.6189 19.8203 45.7527 19.8258C46.5873 19.8602 47.4291 19.8977 48.2589 19.8258C48.9478 19.7656 49.6717 19.6624 50.2944 19.3895C51.3894 18.9086 51.7168 17.8945 51.8497 16.7952C52.1094 14.6591 50.7802 13.1266 48.5973 13.0906C47.6417 13.075 46.6861 13.0727 45.7312 13.1016C45.6062 13.1055 45.3864 13.3283 45.3824 13.4542C45.3537 14.4503 45.3665 15.448 45.3673 16.4441Z" fill="black"/>
<path d="M76.4468 21.0187C76.4468 19.885 76.4532 18.7513 76.4348 17.6183C76.4332 17.5261 76.2716 17.3673 76.1744 17.3587C75.7985 17.3267 75.4139 17.3791 75.0436 17.3243C74.8946 17.3025 74.6669 17.089 74.6613 16.9553C74.6263 16.1101 74.6271 15.2617 74.6605 14.4157C74.6661 14.2844 74.8859 14.0741 75.0292 14.0529C75.3932 13.9998 75.7722 14.0576 76.1394 14.0178C76.2533 14.0053 76.4348 13.8231 76.4364 13.7152C76.4571 12.5697 76.4396 11.4227 76.4611 10.2772C76.4635 10.1701 76.6594 9.97776 76.7693 9.97542C77.8834 9.95274 78.9992 9.95196 80.1133 9.97854C80.2144 9.98089 80.3904 10.2217 80.3936 10.3546C80.4167 11.4485 80.4151 12.5431 80.4016 13.6378C80.3984 13.9325 80.4924 14.0428 80.8006 14.0373C81.6766 14.0225 82.5526 14.0162 83.4278 14.0506C83.5632 14.0561 83.7973 14.2859 83.8029 14.4196C83.8388 15.2524 83.818 16.0866 83.8252 16.9201C83.8276 17.2172 83.7209 17.3548 83.392 17.3486C82.5096 17.3329 81.6264 17.3314 80.7448 17.3587C80.6286 17.3627 80.4223 17.5659 80.4215 17.6785C80.4024 19.7826 80.4008 21.8874 80.4111 23.9915C80.4167 25.1752 80.9837 25.7116 82.1966 25.721C82.6283 25.7241 83.0615 25.6991 83.4891 25.7382C83.6118 25.7491 83.8133 25.9368 83.8164 26.0486C83.8435 26.9274 83.8459 27.8078 83.8156 28.6859C83.8117 28.8055 83.5855 29.0205 83.4653 29.0182C82.3726 28.9971 81.276 28.9846 80.1905 28.8782C78.3214 28.6945 76.8298 27.2769 76.6291 25.4411C76.4691 23.975 76.442 22.4949 76.356 21.0219C76.3863 21.0219 76.4165 21.0203 76.4468 21.0187Z" fill="black"/>
<path d="M7.26066 16.2781C7.26066 14.3296 7.26623 12.3819 7.25588 10.4335C7.25429 10.0832 7.37295 9.94634 7.74247 9.95338C8.74431 9.97214 9.74694 9.96901 10.7488 9.95416C11.0809 9.94947 11.1932 10.0761 11.1932 10.3912C11.19 14.0075 11.1653 17.6237 11.2187 21.2391C11.2306 22.0515 11.4233 22.8959 11.7084 23.6622C12.1449 24.8373 13.1571 25.394 14.3835 25.527C15.7548 25.6755 17.0545 25.5012 17.9839 24.3479C18.6823 23.4816 18.8774 22.4401 18.8806 21.3689C18.8934 17.7402 18.891 14.1107 18.8774 10.4819C18.8758 10.0675 19.0064 9.94088 19.4253 9.95182C20.4264 9.97841 21.4298 9.94556 22.4309 9.97761C22.5694 9.98231 22.8163 10.2192 22.8171 10.349C22.8378 14.056 22.872 17.7636 22.8179 21.4706C22.7844 23.7364 22.1601 25.8249 20.3635 27.4105C19.149 28.4825 17.6908 28.9891 16.0821 29.1369C14.1509 29.3144 12.289 29.1268 10.5943 28.115C9.34 27.366 8.47832 26.2815 7.93121 24.9499C7.38012 23.6082 7.2519 22.2024 7.25827 20.7739C7.26623 19.275 7.26066 17.7769 7.26066 16.2781Z" fill="black"/>
<path d="M25.8533 21.534C25.8533 19.1821 25.8581 16.8294 25.8469 14.4775C25.8454 14.1421 25.9712 14.0272 26.3009 14.0303C27.3099 14.0405 28.3181 14.0405 29.3271 14.0311C29.668 14.0279 29.8081 14.1413 29.8073 14.4986C29.7978 19.1962 29.7986 23.8945 29.8065 28.5921C29.8073 28.9298 29.668 29.0417 29.3446 29.0385C28.3229 29.0307 27.3003 29.0291 26.2786 29.0409C25.956 29.0448 25.8485 28.9166 25.8501 28.6101C25.8565 26.2511 25.8533 23.8922 25.8533 21.534Z" fill="black"/>
<path d="M25.4188 9.99653C25.4212 8.60478 26.4031 7.6501 27.8294 7.65088C29.208 7.65167 30.2353 8.65951 30.2329 10.0067C30.2297 11.3422 29.204 12.3086 27.8 12.2969C26.3808 12.2859 25.4164 11.3539 25.4188 9.99653Z" fill="black"/>
</g>
<defs>
<clipPath id="clip0_0_786">
<rect width="101" height="37" fill="white" transform="translate(0 0.5625)"/>
</clipPath>
</defs>
</svg>
