<svg width="47" height="46" viewBox="0 0 47 46" fill="none" xmlns="http://www.w3.org/2000/svg">
<path d="M13.793 15.485V10.6332C13.793 9.89705 14.3897 9.30029 15.1259 9.30029H36.0488C36.785 9.30029 37.3817 9.89705 37.3817 10.6332V35.0251C37.3817 35.7613 36.785 36.358 36.0488 36.358H15.1259C14.3897 36.358 13.793 35.7613 13.793 35.0251V29.242" stroke="black" stroke-width="1.38757"/>
<mask id="mask0_0_813" style="mask-type:alpha" maskUnits="userSpaceOnUse" x="4" y="13" width="19" height="19">
<path d="M20.1288 14.6045H6.79971C6.06356 14.6045 5.4668 15.2013 5.4668 15.9374V28.6C5.4668 29.3361 6.06356 29.9329 6.79971 29.9329H20.1288C20.8649 29.9329 21.4617 29.3361 21.4617 28.6V15.9374C21.4617 15.2013 20.8649 14.6045 20.1288 14.6045Z" stroke="black" stroke-width="2.77515"/>
</mask>
<g mask="url(#mask0_0_813)">
<path d="M20.1288 14.6045H6.79971C6.06356 14.6045 5.4668 15.2013 5.4668 15.9374V28.6C5.4668 29.3361 6.06356 29.9329 6.79971 29.9329H20.1288C20.8649 29.9329 21.4617 29.3361 21.4617 28.6V15.9374C21.4617 15.2013 20.8649 14.6045 20.1288 14.6045Z" stroke="black" stroke-width="2.77515"/>
</g>
<path d="M16.3085 26.6414C15.8279 26.6414 15.3476 26.6414 14.867 26.6414C14.8623 26.6375 14.8576 26.6336 14.8529 26.6297C14.7696 26.3579 14.6847 26.0863 14.6035 25.8139C14.1205 24.1975 13.6388 22.5808 13.1561 20.9641C13.1511 20.9476 13.1449 20.9314 13.1364 20.9074C13.0251 21.2623 12.9155 21.6106 12.8063 21.9588C12.326 23.4904 11.8454 25.022 11.3672 26.5545C11.3457 26.6231 11.318 26.6459 11.2461 26.6453C10.8171 26.6414 10.388 26.6435 9.95899 26.6432C9.93219 26.6432 9.9051 26.6411 9.8783 26.6399C9.87506 26.6363 9.87153 26.633 9.86829 26.6294C9.76375 26.0986 9.6598 25.5678 9.55408 25.037C9.46721 24.6003 9.37651 24.1642 9.29082 23.7272C9.07438 22.6242 8.86 21.5206 8.64385 20.4177C8.51222 19.7457 8.37912 19.0743 8.2469 18.4026C8.24366 18.3855 8.24366 18.3679 8.24219 18.3505C8.24307 18.3406 8.24395 18.331 8.24513 18.3211C8.72807 18.3211 9.21102 18.3211 9.70456 18.3211C10.0841 20.2492 10.4637 22.1776 10.8433 24.1063C10.848 24.1069 10.853 24.1072 10.8577 24.1078C10.8798 24.0365 10.9022 23.9655 10.924 23.8938C11.4641 22.115 12.0041 20.3361 12.5424 18.5567C12.5598 18.4994 12.5848 18.4815 12.6443 18.4821C13.0218 18.4859 13.3994 18.485 13.7772 18.4856C13.7819 18.4895 13.7866 18.4934 13.7913 18.4973C13.8693 18.7605 13.9489 19.0234 14.0251 19.2871C14.4851 20.8792 14.9442 22.4717 15.4039 24.0638C15.408 24.0779 15.4118 24.0923 15.4286 24.109C15.4522 23.9975 15.4772 23.8863 15.4993 23.7745C15.6542 22.9875 15.8085 22.2007 15.9628 21.4136C16.1618 20.3967 16.3603 19.3797 16.5614 18.3634C16.565 18.3454 16.5986 18.3211 16.6183 18.3208C17.0597 18.319 17.5011 18.3202 17.9422 18.3208C17.9467 18.3247 17.9511 18.3286 17.9552 18.3325C17.9107 18.5687 17.8672 18.8055 17.8212 19.0413C17.6949 19.6866 17.5677 20.3319 17.4408 20.9772C17.2873 21.7574 17.1339 22.5376 16.9802 23.3178C16.7664 24.4025 16.5523 25.4872 16.3382 26.5716C16.3344 26.591 16.3285 26.6099 16.3235 26.6291C16.3182 26.6339 16.3135 26.6375 16.3085 26.6414Z" fill="black"/>
<path d="M37.3814 16.9321H20.7305" stroke="black" stroke-width="1.38757"/>
<path d="M37.3814 22.4824H20.7305" stroke="black" stroke-width="1.38757"/>
<path d="M37.3814 28.0327H20.7305" stroke="black" stroke-width="1.38757"/>
</svg>
